<svg version="1.1" id="Layer_1" xmlns="http://www.w3.org/2000/svg" xmlns:xlink="http://www.w3.org/1999/xlink" x="0" y="0" viewBox="0 0 1280 1280" xml:space="preserve"><style>.st0{fill:#999}.st1{fill:#2b7a7b}</style><path d="M-1257 670.7c-1.4 0-2.5-1.1-2.5-2.5v-8c0-1.4 1.1-2.5 2.5-2.5s2.5 1.1 2.5 2.5v8c0 1.4-1.1 2.5-2.5 2.5zm0-12c-.8 0-1.5.7-1.5 1.5v8c0 .8.7 1.5 1.5 1.5s1.5-.7 1.5-1.5v-8c0-.8-.7-1.5-1.5-1.5zM-1241 664.7h-12c-.3 0-.5-.2-.5-.5s.2-.5.5-.5h12c.3 0 .5.2.5.5s-.2.5-.5.5zM-1261 664.7h-3c-.3 0-.5-.2-.5-.5s.2-.5.5-.5h3c.3 0 .5.2.5.5s-.2.5-.5.5zM-1200 670.7h-8c-1.4 0-2.5-1.1-2.5-2.5s1.1-2.5 2.5-2.5h8c1.4 0 2.5 1.1 2.5 2.5s-1.1 2.5-2.5 2.5zm-8-4c-.8 0-1.5.7-1.5 1.5s.7 1.5 1.5 1.5h8c.8 0 1.5-.7 1.5-1.5s-.7-1.5-1.5-1.5h-8zM-1204 664.7c-.3 0-.5-.2-.5-.5v-12c0-.3.2-.5.5-.5s.5.2.5.5v12c0 .3-.2.5-.5.5zM-1204 675.7c-.3 0-.5-.2-.5-.5v-3c0-.3.2-.5.5-.5s.5.2.5.5v3c0 .3-.2.5-.5.5zM-1309.8 627.6c-.7 0-1.3-.3-1.8-.7-.5-.5-.7-1.1-.7-1.8s.3-1.3.7-1.8l9.6-9.6c-1.2-2.6-.6-5.7 1.5-7.8 2.1-2.1 5.5-2.7 8.2-1.3.1.1.2.2.3.4 0 .2 0 .3-.1.4l-3.1 3.2v2.1h2l3.2-3.2c.1-.1.3-.2.4-.1.2 0 .3.1.4.3 1.4 2.7.9 6-1.3 8.1a6.9 6.9 0 01-7.8 1.4l-9.6 9.6c-.6.5-1.3.8-1.9.8zm14.2-22.7c-1.6 0-3.1.6-4.3 1.8-1.9 1.9-2.3 4.7-1.1 7 .1.2.1.4-.1.6l-9.8 9.8c-.3.3-.4.7-.4 1.1 0 .4.2.8.4 1.1.6.6 1.6.6 2.1 0l9.8-9.8c.2-.2.4-.2.6-.1 2.3 1.2 5.1.7 7-1.1 1.7-1.7 2.2-4.2 1.4-6.3l-2.8 2.8c-.1.1-.2.1-.4.1h-2.7c-.3 0-.5-.2-.5-.5v-2.8c0-.1.1-.3.1-.3l2.7-2.8c-.6-.5-1.3-.6-2-.6zM-1338 675.7h-22c-.3 0-.5-.2-.5-.5v-23c0-.3.2-.5.5-.5h22c.3 0 .5.2.5.5v23c0 .3-.2.5-.5.5zm-21.5-1h21v-22h-21v22z"/><path d="M-1349 666.7c-.3 0-.5-.2-.5-.5v-7c0-.3.2-.5.5-.5s.5.2.5.5v7c0 .3-.2.5-.5.5zM-1343 666.7c-.3 0-.5-.2-.5-.5v-2c0-.3.2-.5.5-.5s.5.2.5.5v2c0 .3-.2.5-.5.5zM-1355 660.7c-.3 0-.5-.2-.5-.5v-5c0-.3.2-.5.5-.5s.5.2.5.5v5c0 .3-.2.5-.5.5zM-1355 666.7c-.3 0-.5-.2-.5-.5v-4c0-.3.2-.5.5-.5s.5.2.5.5v4c0 .3-.2.5-.5.5zM-1343 662.7c-.3 0-.5-.2-.5-.5v-7c0-.3.2-.5.5-.5s.5.2.5.5v7c0 .3-.2.5-.5.5zM-1349 657.7c-.3 0-.5-.2-.5-.5v-2c0-.3.2-.5.5-.5s.5.2.5.5v2c0 .3-.2.5-.5.5z"/><path d="M-1341 664.7h-4c-.3 0-.5-.2-.5-.5v-2c0-.3.2-.5.5-.5h4c.3 0 .5.2.5.5v2c0 .3-.2.5-.5.5zm-3.5-1h3v-1h-3v1zM-1347 659.7h-4c-.3 0-.5-.2-.5-.5v-2c0-.3.2-.5.5-.5h4c.3 0 .5.2.5.5v2c0 .3-.2.5-.5.5zm-3.5-1h3v-1h-3v1zM-1353 662.7h-4c-.3 0-.5-.2-.5-.5v-2c0-.3.2-.5.5-.5h4c.3 0 .5.2.5.5v2c0 .3-.2.5-.5.5zm-3.5-1h3v-1h-3v1zM-1343 672.7c-1.1 0-2-.9-2-2s.9-2 2-2 2 .9 2 2-.8 2-2 2zm0-3c-.6 0-1 .4-1 1s.4 1 1 1 1-.4 1-1-.4-1-1-1zM-1349 672.7c-1.1 0-2-.9-2-2s.9-2 2-2 2 .9 2 2-.9 2-2 2zm0-3c-.6 0-1 .4-1 1s.4 1 1 1 1-.4 1-1-.4-1-1-1zM-1355 672.7c-1.1 0-2-.9-2-2s.9-2 2-2 2 .9 2 2-.9 2-2 2zm0-3c-.6 0-1 .4-1 1s.4 1 1 1 1-.4 1-1-.4-1-1-1zM-1108 625.7c-.3 0-.5-.2-.5-.4l-2.7-16.8-2.4 7.9c-.1.2-.3.4-.5.4h-6c-.3 0-.5-.2-.5-.5s.2-.5.5-.5h5.6l2.9-9.6c.1-.2.3-.4.5-.4s.4.2.5.4l2.6 16.3 2.4-11.4c0-.2.2-.4.4-.4s.4.1.5.3l1.9 4.7h5.7c.3 0 .5.2.5.5s-.2.5-.5.5h-6c-.2 0-.4-.1-.5-.3l-1.4-3.5-2.7 12.4c.1.2-.1.4-.3.4zM-964.5 621.7c-1.1 0-2-.9-2-2s.9-2 2-2 2 .9 2 2-.9 2-2 2zm0-3c-.6 0-1 .4-1 1s.4 1 1 1 1-.4 1-1-.4-1-1-1z"/><path d="M-963.4 619.2c-.1 0-.3 0-.4-.1-.2-.2-.2-.5 0-.7l5-4.9c.2-.2.5-.2.7 0s.2.5 0 .7l-5 4.9c-.1 0-.2.1-.3.1zM-972 620.7h-2c-.3 0-.5-.2-.5-.5s.2-.5.5-.5h2c.3 0 .5.2.5.5s-.2.5-.5.5zM-955 620.7h-2c-.3 0-.5-.2-.5-.5s.2-.5.5-.5h2c.3 0 .5.2.5.5s-.2.5-.5.5zM-957.6 617.3c-.2 0-.4-.1-.5-.3-.1-.3 0-.5.3-.7l1.8-.8c.3-.1.5 0 .7.3.1.3 0 .5-.3.7l-1.8.8h-.2zM-961.6 613.3h-.2c-.3-.1-.4-.4-.3-.7l.8-1.8c.1-.3.4-.4.7-.3.3.1.4.4.3.7l-.8 1.8c-.1.2-.3.3-.5.3zM-964.5 612.7c-.3 0-.5-.2-.5-.5v-2c0-.3.2-.5.5-.5s.5.2.5.5v2c0 .3-.2.5-.5.5zM-967.4 613.3c-.2 0-.4-.1-.5-.3l-.8-1.8c-.1-.3 0-.5.3-.7.3-.1.5 0 .7.3l.8 1.8c.1.3 0 .5-.3.7h-.2zM-969.8 614.9c-.1 0-.3 0-.4-.1l-1.4-1.4c-.2-.2-.2-.5 0-.7.2-.2.5-.2.7 0l1.4 1.4c.2.2.2.5 0 .7 0 .1-.2.1-.3.1zM-971.4 617.3h-.2l-1.8-.8c-.3-.1-.4-.4-.3-.7.1-.3.4-.4.7-.3l1.8.8c.3.1.4.4.3.7-.1.2-.3.3-.5.3z"/><path d="M-953 624.7h-23c-.3 0-.5-.2-.5-.5v-4.5c0-6.6 5.4-12 12-12s12 5.4 12 12v4.5c0 .3-.2.5-.5.5zm-22.5-1h22v-4c0-6.1-4.9-11-11-11s-11 4.9-11 11v4z"/><path class="st0" d="M-1498 145.8c-3.3 0-6-2.7-6-6s2.7-6 6-6 6 2.7 6 6-2.7 6-6 6zm0-9c-1.7 0-3 1.4-3 3 0 1.7 1.4 3 3 3s3-1.4 3-3c0-1.7-1.3-3-3-3zM-1481.7 145.8c-3.3 0-6-2.7-6-6s2.7-6 6-6 6 2.7 6 6-2.7 6-6 6zm0-9c-1.7 0-3 1.4-3 3 0 1.7 1.4 3 3 3s3-1.4 3-3c0-1.7-1.4-3-3-3zM-1465.5 145.8c-3.3 0-6-2.7-6-6s2.7-6 6-6 6 2.7 6 6-2.7 6-6 6zm0-9c-1.7 0-3 1.4-3 3 0 1.7 1.4 3 3 3s3-1.4 3-3c0-1.7-1.4-3-3-3z"/><path d="M-1128 773.8c-1.7 0-3-1.3-3-3s1.3-3 3-3 3 1.3 3 3-1.3 3-3 3zm0-5c-1.1 0-2 .9-2 2s.9 2 2 2 2-.9 2-2-.9-2-2-2zM-1128 782.8c-1.7 0-3-1.3-3-3s1.3-3 3-3 3 1.3 3 3-1.3 3-3 3zm0-5c-1.1 0-2 .9-2 2s.9 2 2 2 2-.9 2-2-.9-2-2-2zM-1128 791.8c-1.7 0-3-1.3-3-3s1.3-3 3-3 3 1.3 3 3-1.3 3-3 3zm0-5c-1.1 0-2 .9-2 2s.9 2 2 2 2-.9 2-2-.9-2-2-2zM-1153.2 640.7c-.2 0-.3-.1-.4-.2-.1-.2-.1-.5.2-.7 1.7-1.1 2.8-3 2.8-5.1 0-3.3-2.7-6-6-6s-6 2.7-6 6c0 2 1 3.9 2.8 5.1.2.1.3.5.2.7-.1.2-.5.3-.7.2-2-1.3-3.2-3.5-3.2-5.9 0-3.9 3.1-7 7-7s7 3.1 7 7c0 2.4-1.2 4.6-3.2 5.9h-.5z"/><path d="M-1150.9 651.8h-8c-.2 0-.3-.1-.4-.2l-4-6c-.4-.6-.5-1.5-.2-2.1.2-.4.6-.7 1.1-.7 1.1 0 2.1.4 3.6 2.4v-9.4c0-1.1.9-2 2-2s2 .9 2 2v5.6l4.1 1.4c1.3.4 1.6 1.9 1.3 3.1l-1 5.5c0 .2-.2.4-.5.4zm-7.7-1h7.3l.9-5.1c.2-.8.1-1.7-.6-1.9l-4.4-1.5c-.2-.1-.3-.3-.3-.5v-6c0-.6-.4-1-1-1s-1 .4-1 1v11c0 .2-.1.4-.4.5-.2.1-.4 0-.6-.2-2-3-2.9-3.3-3.7-3.3-.2 0-.2.1-.3.1-.1.3-.1.8.1 1.1l4 5.8zM-1106 477.8h-10c-.2 0-.3-.1-.4-.2s-.1-.3 0-.5l5-10c.2-.3.7-.3.9 0l5 10c.1.2.1.3 0 .5s-.3.2-.5.2zm-9.2-1h8.4l-4.2-8.4-4.2 8.4z"/><path d="M-1102.7 474.2c-.1 0-.2 0-.3-.1-.2-.2-.2-.5 0-.7 2-2.1 3.1-4.8 3.1-7.6 0-6.1-4.9-11-11-11s-11 4.9-11 11c0 2.8 1.1 5.5 3.1 7.6.2.2.2.5 0 .7-.2.2-.5.2-.7 0-2.1-2.2-3.3-5.2-3.3-8.3 0-6.6 5.4-12 12-12s12 5.4 12 12c0 3.1-1.2 6-3.3 8.3-.3.1-.5.1-.6.1z"/><path d="M-1104.9 470.6c-.1 0-.2 0-.3-.1-.2-.2-.3-.5-.1-.7.9-1.2 1.3-2.6 1.3-4.1 0-3.9-3.1-7-7-7s-7 3.1-7 7c0 1.5.5 2.9 1.3 4.1.2.2.1.5-.1.7-.2.2-.5.1-.7-.1-1-1.4-1.5-3-1.5-4.7 0-4.4 3.6-8 8-8s8 3.6 8 8c0 1.7-.5 3.3-1.5 4.7-.1.2-.2.2-.4.2z"/><path d="M-1107.5 466.4c-.3 0-.5-.2-.5-.5l.5-.1h-.5c0-1.7-1.3-3-3-3s-3 1.3-3 3c0 .3-.2.6-.5.6s-.5-.1-.5-.4h.5-.5v-.1c0-2.2 1.8-4 4-4s4 1.8 4 4v.1c0 .2-.2.4-.5.4z"/><path d="M-1111 467.8c-.3 0-.5-.2-.5-.5v-2c0-.3.2-.5.5-.5s.5.2.5.5v2c0 .2-.2.5-.5.5z"/><path transform="rotate(-33.767 -1112.29 474.784)" d="M-1116.7 474.3h9v1h-9z"/><path transform="rotate(-56.312 -1109.677 474.726)" d="M-1110.2 470.3h1v9h-1z"/><path d="M-1112.7 470.3h3.5v1h-3.5zM-1201.5 525.8h-10c-.2 0-.3-.1-.4-.2-.1-.1-.1-.3-.1-.5l5-13.5c.1-.4.8-.4.9 0l5 13.5c.1.2 0 .3-.1.5 0 .1-.1.2-.3.2zm-9.3-1h8.6l-4.3-11.6-4.3 11.6z"/><path d="M-1206.5 512.3c-.3 0-.5-.2-.5-.5v-2.5c0-.3.2-.5.5-.5s.5.2.5.5v2.5c0 .2-.2.5-.5.5zM-1208.2 515.8h3.3v1h-3.3zM-1206.5 504.8c-.3 0-.5-.2-.5-.5v-2c0-.3.2-.5.5-.5s.5.2.5.5v2c0 .2-.2.5-.5.5zM-1210 506.3c-.1 0-.3 0-.4-.1l-1.5-1.5c-.2-.2-.2-.5 0-.7s.5-.2.7 0l1.5 1.5c.2.2.2.5 0 .7 0 0-.2.1-.3.1zM-1211.5 509.8h-2c-.3 0-.5-.2-.5-.5s.2-.5.5-.5h2c.3 0 .5.2.5.5s-.2.5-.5.5zM-1211.5 514.8c-.1 0-.3 0-.4-.1-.2-.2-.2-.5 0-.7l1.5-1.5c.2-.2.5-.2.7 0s.2.5 0 .7l-1.5 1.5s-.2.1-.3.1zM-1201.5 514.8c-.1 0-.3 0-.4-.1l-1.5-1.5c-.2-.2-.2-.5 0-.7s.5-.2.7 0l1.5 1.5c.2.2.2.5 0 .7 0 0-.2.1-.3.1zM-1203 506.3c-.1 0-.3 0-.4-.1-.2-.2-.2-.5 0-.7l1.5-1.5c.2-.2.5-.2.7 0s.2.5 0 .7l-1.5 1.5s-.2.1-.3.1zM-1199.5 509.8h-2c-.3 0-.5-.2-.5-.5s.2-.5.5-.5h2c.3 0 .5.2.5.5s-.2.5-.5.5z"/><path transform="rotate(-47.273 -1205.242 521.855)" d="M-1205.7 516.8h1v10.1h-1z"/><path transform="rotate(-42.743 -1207.816 521.85)" d="M-1212.8 521.3h10.1v1h-10.1z"/><path d="M-1145 731.8h-23c-.3 0-.5-.2-.5-.5v-1.5c0-1.9 1.2-3.6 2.9-4.2l6.4-1.8c.3-.1.5.1.6.3s-.1.5-.3.6l-6.3 1.8c-1.3.5-2.2 1.8-2.2 3.3v1h22v-1c0-1.5-.9-2.8-2.3-3.3l-6.3-1.7c-.3-.1-.4-.3-.3-.6.1-.3.3-.4.6-.3l6.3 1.8c1.8.7 3 2.4 3 4.2v1.5c-.1.1-.3.4-.6.4zM-1157.5 719.8c-.3 0-.5-.2-.5-.5h-1c0 .2-.2.5-.5.5s-.5-.2-.5-.5.1-.5.3-.7c.3-.3.7-.3 1.1-.3h.2c.4 0 .8 0 1.1.3.2.2.3.4.3.7 0 .2-.2.5-.5.5zM-1153.5 719.8c-.3 0-.5-.2-.5-.5h-1c0 .2-.2.5-.5.5s-.5-.2-.5-.5.1-.5.3-.7c.3-.3.7-.3 1.1-.3h.2c.4 0 .8 0 1.1.3.2.2.3.4.3.7 0 .2-.2.5-.5.5z"/><path d="M-1156.5 725.8c-1.6 0-5.2-2-5.5-5.1-.7-.2-1.1-1-1.1-1.9 0-.5.1-1 .4-1.3.2-.3.5-.5.8-.6v-1c0-.3.2-.5.5-.5s.5.2.5.5v1.4c0 .3-.2.5-.5.5-.5 0-.6.7-.6 1s.1 1 .6 1c.3 0 .5.2.5.5 0 2.6 3.2 4.5 4.5 4.5s4.5-1.9 4.5-4.5c0-.3.2-.5.5-.5.5 0 .6-.7.6-1s-.1-1-.6-1c-.3 0-.5-.2-.5-.5v-1.4c0-.3.2-.5.5-.5s.5.2.5.5v1c.7.2 1.1 1 1.1 1.9 0 1-.5 1.7-1.1 1.9-.4 3.1-4 5.1-5.6 5.1z"/><path d="M-1154 728.8h-5c-1.4 0-2.5-1.1-2.5-2.5v-1.5c0-.3.2-.5.5-.5s.5.2.5.5v1.5c0 .8.7 1.5 1.5 1.5h5c.8 0 1.5-.7 1.5-1.5v-1.5c0-.3.2-.5.5-.5s.5.2.5.5v1.5c0 1.4-1.1 2.5-2.5 2.5zM-1164 731.8c-.3 0-.5-.2-.5-.5v-5.6c0-.3.2-.5.5-.5s.5.2.5.5v5.6c0 .2-.2.5-.5.5zM-1149 731.8c-.3 0-.5-.2-.5-.5v-5.6c0-.3.2-.5.5-.5s.5.2.5.5v5.6c0 .2-.2.5-.5.5zM-1156.5 717.3c-6.3 0-7-2.8-7-2.9 0-.2.1-.4.2-.5l1.3-.7c.1-2.1 1.6-3.8 3.9-4.6.3-.1.5.1.6.3.1.3-.1.5-.3.6-1 .3-3.2 1.3-3.2 3.9 0 .2-.1.3-.2.4l-1.1.6c.4.6 1.7 1.8 5.9 1.8 4.1 0 5.5-1.2 5.9-1.8l-1.1-.6c-.2-.1-.2-.3-.2-.4 0-2.6-2.2-3.6-3.2-3.9-.3-.1-.4-.4-.3-.6.1-.3.4-.4.6-.3 2.3.7 3.8 2.4 3.9 4.6l1.3.7c.2.1.3.3.2.5-.2.1-.9 2.9-7.2 2.9z"/><path d="M-1155.6 714.7c-.3 0-.5-.3-.5-.5l.5-5.4h-1.9l.5 5.4c0 .3-.2.5-.5.5s-.5-.2-.5-.5l-.6-6c0-.1 0-.3.1-.4.1-.1.2-.2.4-.2h3c.1 0 .3.1.4.2.1.1.1.2.1.4l-.6 6c.1.4-.1.5-.4.5z"/><path d="M-1156.5 714.8c-1.9 0-3.8-.3-5.2-.9-.3-.1-.4-.4-.3-.7.1-.3.4-.4.7-.3 2.5 1.1 7.1 1.1 9.6 0 .3-.1.5 0 .7.3s0 .5-.3.7c-1.4.5-3.3.9-5.2.9zM-1145 539.8h-23c-.3 0-.5-.2-.5-.5v-6c0-.3.2-.5.5-.5h23c.3 0 .5.2.5.5v6c0 .2-.2.5-.5.5zm-22.5-1h22v-5h-22v5z"/><path d="M-1145 533.8c-.1 0-.2 0-.3-.1l-5.9-4.9h-10.6l-5.9 4.9c-.2.2-.5.1-.7-.1-.2-.2-.1-.5.1-.7l6-5c.1-.1.2-.1.3-.1h11c.1 0 .2 0 .3.1l6 5c.2.2.2.5.1.7-.1.1-.3.2-.4.2zM-1154.5 537.3c-.6 0-1-.4-1-1s.4-1 1-1 1 .4 1 1-.4 1-1 1zm0-1h.5-.5zM-1151.5 537.3c-.6 0-1-.4-1-1s.4-1 1-1 1 .4 1 1-.4 1-1 1zm0-1h.5-.5zM-1148.5 537.3c-.6 0-1-.4-1-1s.4-1 1-1 1 .4 1 1-.4 1-1 1zm0-1h.5-.5zM-1165 537.8c-.8 0-1.5-.7-1.5-1.5s.7-1.5 1.5-1.5 1.5.7 1.5 1.5-.7 1.5-1.5 1.5zm0-2c-.3 0-.5.2-.5.5s.2.5.5.5.5-.2.5-.5-.2-.5-.5-.5zM-1145 545.8h-23c-.3 0-.5-.2-.5-.5v-6c0-.3.2-.5.5-.5s.5.2.5.5v5.5h22v-5.5c0-.3.2-.5.5-.5s.5.2.5.5v6c0 .2-.2.5-.5.5z"/><path d="M-1154.5 543.3c-.6 0-1-.4-1-1s.4-1 1-1 1 .4 1 1-.4 1-1 1zm0-1h.5-.5zM-1151.5 543.3c-.6 0-1-.4-1-1s.4-1 1-1 1 .4 1 1-.4 1-1 1zm0-1h.5-.5zM-1148.5 543.3c-.6 0-1-.4-1-1s.4-1 1-1 1 .4 1 1-.4 1-1 1zm0-1h.5-.5zM-1165 543.8c-.8 0-1.5-.7-1.5-1.5s.7-1.5 1.5-1.5 1.5.7 1.5 1.5-.7 1.5-1.5 1.5zm0-2c-.3 0-.5.2-.5.5s.2.5.5.5.5-.2.5-.5-.2-.5-.5-.5zM-1147 551.8h-19c-1.4 0-2.5-1.1-2.5-2.5v-4c0-.3.2-.5.5-.5s.5.2.5.5v4c0 .8.7 1.5 1.5 1.5h19c.8 0 1.5-.7 1.5-1.5v-4c0-.3.2-.5.5-.5s.5.2.5.5v4c0 1.4-1.1 2.5-2.5 2.5z"/><path d="M-1154.5 549.3c-.6 0-1-.4-1-1s.4-1 1-1 1 .4 1 1-.4 1-1 1zm0-1h.5-.5zM-1151.5 549.3c-.6 0-1-.4-1-1s.4-1 1-1 1 .4 1 1-.4 1-1 1zm0-1h.5-.5zM-1148.5 549.3c-.6 0-1-.4-1-1s.4-1 1-1 1 .4 1 1-.4 1-1 1zm0-1h.5-.5zM-1165 549.8c-.8 0-1.5-.7-1.5-1.5s.7-1.5 1.5-1.5 1.5.7 1.5 1.5-.7 1.5-1.5 1.5zm0-2c-.3 0-.5.2-.5.5s.2.5.5.5.5-.2.5-.5-.2-.5-.5-.5zM-1242.5 734.7h-19c-1.4 0-2.5-1.1-2.5-2.5v-10c0-1.4 1.1-2.5 2.5-2.5h19c1.4 0 2.5 1.1 2.5 2.5v10c0 1.4-1.1 2.5-2.5 2.5zm-19-14c-.8 0-1.5.7-1.5 1.5v10c0 .8.7 1.5 1.5 1.5h19c.8 0 1.5-.7 1.5-1.5v-10c0-.8-.7-1.5-1.5-1.5h-19z"/><path d="M-1244 728.7h-16c-1.1 0-2-.9-2-2v-3c0-1.1.9-2 2-2h16c1.1 0 2 .9 2 2v3c0 1.1-.9 2-2 2zm-16-6c-.6 0-1 .4-1 1v3c0 .6.4 1 1 1h16c.6 0 1-.4 1-1v-3c0-.6-.4-1-1-1h-16zM-1259.5 732.7c-.8 0-1.5-.7-1.5-1.5s.7-1.5 1.5-1.5 1.5.7 1.5 1.5-.7 1.5-1.5 1.5zm0-2c-.3 0-.5.2-.5.5s.2.5.5.5.5-.2.5-.5-.2-.5-.5-.5zM-1244.5 732.7c-.8 0-1.5-.7-1.5-1.5s.7-1.5 1.5-1.5 1.5.7 1.5 1.5-.7 1.5-1.5 1.5zm0-2c-.3 0-.5.2-.5.5s.2.5.5.5.5-.2.5-.5-.2-.5-.5-.5zM-1248.5 732.7h-7c-.8 0-1.5-.7-1.5-1.5s.7-1.5 1.5-1.5h7c.8 0 1.5.7 1.5 1.5s-.7 1.5-1.5 1.5zm-7-2c-.3 0-.5.2-.5.5s.2.5.5.5h7c.3 0 .5-.2.5-.5s-.2-.5-.5-.5h-7z"/><path d="M-1242.5 724.7h-19c-.3 0-.5-.2-.5-.5s.2-.5.5-.5h19c.3 0 .5.2.5.5s-.2.5-.5.5zM-1242.5 726.7h-19c-.3 0-.5-.2-.5-.5s.2-.5.5-.5h19c.3 0 .5.2.5.5s-.2.5-.5.5zM-1250.5 732.7c-.3 0-.5-.2-.5-.5v-2c0-.3.2-.5.5-.5s.5.2.5.5v2c0 .3-.2.5-.5.5zM-1261.5 720.7c-.2 0-.4-.1-.4-.3-.1-.2 0-.5.2-.7l16-8c.2-.1.5 0 .7.2.1.2 0 .5-.2.7l-16 8c-.1.1-.2.1-.3.1zM-1258.5 735.7c-.3 0-.5-.2-.5-.5v-1c0-.3.2-.5.5-.5s.5.2.5.5v1c0 .3-.2.5-.5.5zM-1245.5 735.7c-.3 0-.5-.2-.5-.5v-1c0-.3.2-.5.5-.5s.5.2.5.5v1c0 .3-.2.5-.5.5z"/><g><path d="M-1155.5 1021.7c-.1 0-.3-.1-.4-.1l-6.9-6.9h-3.3c-1.1 0-2-.9-2-2v-3c0-1.1.9-2 2-2h3.3l6.9-6.9c.1-.1.4-.2.5-.1s.3.3.3.5v20c0 .2-.1.4-.3.5h-.1zm-10.5-13c-.6 0-1 .4-1 1v3c0 .6.4 1 1 1h3.5c.1 0 .3.1.4.1l6.1 6.1v-17.6l-6.1 6.1c-.1.1-.2.1-.4.1h-3.5zM-1148 1019.7c-.1 0-.3-.1-.4-.2-.2-.2-.2-.5 0-.7 2.1-1.9 3.3-4.6 3.3-7.6s-1.2-5.8-3.3-7.6c-.2-.2-.2-.5 0-.7.2-.2.5-.2.7 0 2.3 2 3.7 5.1 3.7 8.4 0 3.3-1.3 6.3-3.7 8.4-.1-.1-.2 0-.3 0z"/><path d="M-1150.5 1017.7c-.1 0-.3-.1-.4-.2-.2-.2-.1-.5.1-.7 1.8-1.5 2.8-3.5 2.8-5.6 0-2.1-1-4.1-2.8-5.6-.2-.2-.2-.5-.1-.7.2-.2.5-.2.7-.1 2 1.7 3.2 3.9 3.2 6.4 0 2.4-1.1 4.7-3.2 6.4-.1 0-.2.1-.3.1z"/><path d="M-1152.5 1015.2c-.2 0-.3-.1-.4-.2-.2-.2-.1-.5.1-.7 1.2-.8 1.8-1.9 1.8-3.1 0-1.2-.6-2.3-1.8-3.1-.2-.2-.3-.5-.1-.7.2-.2.5-.3.7-.1 1.4 1 2.2 2.4 2.2 3.9s-.8 2.9-2.2 3.9c-.1 0-.2.1-.3.1z"/></g><g><path d="M-1292.5 783.7h-17c-1.4 0-2.5-1.1-2.5-2.5v-9c0-1.4 1.1-2.5 2.5-2.5h17c1.4 0 2.5 1.1 2.5 2.5v9c0 1.4-1.1 2.5-2.5 2.5zm-17-13c-.8 0-1.5.7-1.5 1.5v9c0 .8.7 1.5 1.5 1.5h17c.8 0 1.5-.7 1.5-1.5v-9c0-.8-.7-1.5-1.5-1.5h-17z"/><path d="M-1303.5 770.7h-7c-.3 0-.5-.2-.5-.5v-9c0-.3.2-.5.5-.5h7c.3 0 .5.2.5.5v9c0 .3-.2.5-.5.5zm-6.5-1h6v-8h-6v8z"/><path d="M-1307 769.2c-1.4 0-2.5-1.1-2.5-2.5s1.1-2.5 2.5-2.5 2.5 1.1 2.5 2.5-1.1 2.5-2.5 2.5zm0-4c-.8 0-1.5.7-1.5 1.5s.7 1.5 1.5 1.5 1.5-.7 1.5-1.5-.7-1.5-1.5-1.5zM-1291.5 770.7h-7c-.3 0-.5-.2-.5-.5v-9c0-.3.2-.5.5-.5h7c.3 0 .5.2.5.5v9c0 .3-.2.5-.5.5zm-6.5-1h6v-8h-6v8z"/><path d="M-1295 769.2c-1.4 0-2.5-1.1-2.5-2.5s1.1-2.5 2.5-2.5 2.5 1.1 2.5 2.5-1.1 2.5-2.5 2.5zm0-4c-.8 0-1.5.7-1.5 1.5s.7 1.5 1.5 1.5 1.5-.7 1.5-1.5-.7-1.5-1.5-1.5zM-1308 762.7h2v1h-2zM-1296 762.7h2v1h-2zM-1292.5 777.7h-17c-.3 0-.5-.2-.5-.5v-5c0-.3.2-.5.5-.5h17c.3 0 .5.2.5.5v5c0 .3-.2.5-.5.5zm-16.5-1h16v-4h-16v4zM-1307 781.7c-.8 0-1.5-.7-1.5-1.5s.7-1.5 1.5-1.5 1.5.7 1.5 1.5-.7 1.5-1.5 1.5zm0-2c-.3 0-.5.2-.5.5s.2.5.5.5.5-.2.5-.5-.2-.5-.5-.5zM-1302 781.7c-.8 0-1.5-.7-1.5-1.5s.7-1.5 1.5-1.5 1.5.7 1.5 1.5-.7 1.5-1.5 1.5zm0-2c-.3 0-.5.2-.5.5s.2.5.5.5.5-.2.5-.5-.2-.5-.5-.5zM-1292.5 779.7h-4c-.3 0-.5-.2-.5-.5s.2-.5.5-.5h4c.3 0 .5.2.5.5s-.2.5-.5.5zM-1292.5 781.7h-4c-.3 0-.5-.2-.5-.5s.2-.5.5-.5h4c.3 0 .5.2.5.5s-.2.5-.5.5z"/><path d="M-1308 774.7h1v2.5h-1zM-1306 773.7h1v3.5h-1zM-1304 774.7h1v2.5h-1zM-1302 774.7h1v2.5h-1zM-1300 773.7h1v3.5h-1zM-1298 774.7h1v2.5h-1z"/></g><g><path d="M-1006 830.7c-2.8 0-5-2.2-5-5 0-2-.8-2.9-1.8-3.9-1-1.1-2.2-2.4-2.2-5.1 0-3.9 3.1-7 7-7s7 3.1 7 7c0 .3-.2.5-.5.5s-.5-.2-.5-.5c0-3.3-2.7-6-6-6s-6 2.7-6 6c0 2.3.9 3.3 1.9 4.4 1 1.1 2.1 2.3 2.1 4.6 0 2.2 1.8 4 4 4s4-1.8 4-4c0-.3.2-.5.5-.5s.5.2.5.5c0 2.7-2.2 5-5 5zM-1019.1 826.3c-.1 0-.3 0-.4-.1-2.3-2.3-3.5-5.3-3.5-8.5s1.2-6.2 3.5-8.5c.2-.2.5-.2.7 0s.2.5 0 .7c-2.1 2.1-3.2 4.8-3.2 7.8s1.1 5.7 3.2 7.8c.2.2.2.5 0 .7-.1.1-.2.1-.3.1z"/><path d="M-1016.3 823.5c-.1 0-.3 0-.4-.1-1.5-1.5-2.3-3.5-2.3-5.7s.8-4.1 2.3-5.7c.2-.2.5-.2.7 0s.2.5 0 .7c-1.3 1.3-2.1 3.1-2.1 4.9s.7 3.6 2.1 4.9c.2.2.2.5 0 .7 0 .2-.2.3-.3.3zM-1007 823.2c-1.4 0-2.5-1.1-2.5-2.5 0-.6-.3-.9-.7-1.3-.6-.5-1.3-1.2-1.3-2.7 0-1.9 1.6-3.5 3.5-3.5s3.5 1.6 3.5 3.5c0 .3-.2.5-.5.5s-.5-.2-.5-.5c0-1.4-1.1-2.5-2.5-2.5s-2.5 1.1-2.5 2.5c0 1 .4 1.5.9 1.9.5.5 1.1 1 1.1 2.1 0 .8.7 1.5 1.5 1.5s1.5-.7 1.5-1.5c0-.3.2-.5.5-.5s.5.2.5.5c0 1.4-1.1 2.5-2.5 2.5z"/></g><g><path d="M-1290.5 831.7h-19c-1.4 0-2.5-1.1-2.5-2.5v-5c0-1.4 1.1-2.5 2.5-2.5h19c1.4 0 2.5 1.1 2.5 2.5v5c0 1.4-1.1 2.5-2.5 2.5zm-19-9c-.8 0-1.5.7-1.5 1.5v5c0 .8.7 1.5 1.5 1.5h19c.8 0 1.5-.7 1.5-1.5v-5c0-.8-.7-1.5-1.5-1.5h-19zM-1299 819.7h-3c-1.8 0-3-1.4-3-3.5v-5c0-2.1 1.2-3.5 3-3.5h3c1.8 0 3 1.4 3 3.5v5c0 2.1-1.2 3.5-3 3.5zm-3-11c-1.5 0-2 1.3-2 2.5v5c0 1.2.5 2.5 2 2.5h3c1.5 0 2-1.3 2-2.5v-5c0-1.2-.5-2.5-2-2.5h-3z"/><path d="M-1300.5 822.7c-.3 0-.5-.2-.5-.5v-5.5c0-.3.2-.5.5-.5s.5.2.5.5v5.5c0 .3-.2.5-.5.5zM-1301.5 812.7h-3c-.3 0-.5-.2-.5-.5s.2-.5.5-.5h3c.3 0 .5.2.5.5s-.2.5-.5.5zM-1301.5 814.7h-3c-.3 0-.5-.2-.5-.5s.2-.5.5-.5h3c.3 0 .5.2.5.5s-.2.5-.5.5zM-1296.5 812.7h-2c-.3 0-.5-.2-.5-.5s.2-.5.5-.5h2c.3 0 .5.2.5.5s-.2.5-.5.5zM-1296.5 814.7h-2c-.3 0-.5-.2-.5-.5s.2-.5.5-.5h2c.3 0 .5.2.5.5s-.2.5-.5.5zM-1302.5 828.7c-.2 0-.3-.1-.4-.2l-1.1-1.6v1.3c0 .3-.2.5-.5.5s-.5-.2-.5-.5v-3c0-.2.1-.4.4-.5.2-.1.4 0 .6.2l1.1 1.6v-1.3c0-.3.2-.5.5-.5s.5.2.5.5v3c0 .2-.1.4-.4.5h-.2zM-1307.5 828.7c-1.5 0-1.5-1.1-1.5-2s0-2 1.5-2 1.5 1.1 1.5 2 0 2-1.5 2zm0-3c-.5 0-.5 0-.5 1s0 1 .5 1 .5 0 .5-1 0-1-.5-1zM-1295.5 828.7c-.3 0-.5-.2-.5-.5v-3c0-.3.2-.5.5-.5s.5.2.5.5v3c0 .3-.2.5-.5.5zM-1297.3 828.7c-.2 0-.4-.1-.5-.3l-.6-1.7-.6 1.7c-.1.3-.4.4-.6.3-.3-.1-.4-.4-.3-.6l1.1-3c.1-.4.8-.4.9 0l1.1 3c.1.3 0 .5-.3.6h-.2z"/><path d="M-1297.5 828.2h-1.8c-.3 0-.5-.2-.5-.5s.2-.5.5-.5h1.8c.3 0 .5.2.5.5s-.2.5-.5.5z"/><g><path d="M-1293.5 828.7c-.3 0-.5-.2-.5-.5v-3c0-.3.2-.5.5-.5h.8c.5 0 .7 0 1 .1.4.2.4.7.4.9 0 1.2-.8 1.5-1.4 1.5h-.3v1c0 .3-.2.5-.5.5zm.5-2.5h.3c.4 0 .4-.1.4-.5h-.7v.5z"/><path d="M-1291.8 828.7c-.2 0-.3-.1-.4-.2l-.9-1.5c-.1-.2-.1-.5.2-.7.2-.1.5-.1.7.2l.9 1.5c.1.2.1.5-.2.7h-.3z"/></g></g><g><path d="M-1156.5 848.7c-6.6 0-12-5.4-12-12s5.4-12 12-12 12 5.4 12 12-5.4 12-12 12zm0-23c-6.1 0-11 4.9-11 11s4.9 11 11 11 11-4.9 11-11-4.9-11-11-11z"/><path d="M-1160 841.7c-.1 0-.2 0-.3-.1-.1-.1-.2-.3-.2-.4v-9c0-.2.1-.3.2-.4.1-.1.3-.1.5 0l9 4.5c.2.1.3.3.3.4s-.1.4-.3.4l-9 4.5c0 .1-.1.1-.2.1zm.5-8.7v7.4l7.4-3.7-7.4-3.7z"/></g><g><path d="M-1136 916.7h-5c-.3 0-.5-.2-.5-.5s.2-.5.5-.5h5c.3 0 .5.2.5.5s-.2.5-.5.5zM-1136 914.7h-5c-.3 0-.5-.2-.5-.5s.2-.5.5-.5h5c.3 0 .5.2.5.5s-.2.5-.5.5zM-1136 912.7h-5c-.3 0-.5-.2-.5-.5s.2-.5.5-.5h5c.3 0 .5.2.5.5s-.2.5-.5.5zM-1136 910.7h-5c-.3 0-.5-.2-.5-.5s.2-.5.5-.5h5c.3 0 .5.2.5.5s-.2.5-.5.5zM-1136 908.7h-5c-.3 0-.5-.2-.5-.5s.2-.5.5-.5h5c.3 0 .5.2.5.5s-.2.5-.5.5zM-1129 916.7h-5c-.3 0-.5-.2-.5-.5s.2-.5.5-.5h5c.3 0 .5.2.5.5s-.2.5-.5.5zM-1129 914.7h-5c-.3 0-.5-.2-.5-.5s.2-.5.5-.5h5c.3 0 .5.2.5.5s-.2.5-.5.5zM-1129 912.7h-5c-.3 0-.5-.2-.5-.5s.2-.5.5-.5h5c.3 0 .5.2.5.5s-.2.5-.5.5zM-1129 910.7h-5c-.3 0-.5-.2-.5-.5s.2-.5.5-.5h5c.3 0 .5.2.5.5s-.2.5-.5.5zM-1129 908.7h-5c-.3 0-.5-.2-.5-.5s.2-.5.5-.5h5c.3 0 .5.2.5.5s-.2.5-.5.5zM-1129 906.7h-5c-.3 0-.5-.2-.5-.5s.2-.5.5-.5h5c.3 0 .5.2.5.5s-.2.5-.5.5zM-1129 904.7h-5c-.3 0-.5-.2-.5-.5s.2-.5.5-.5h5c.3 0 .5.2.5.5s-.2.5-.5.5zM-1129 902.7h-5c-.3 0-.5-.2-.5-.5s.2-.5.5-.5h5c.3 0 .5.2.5.5s-.2.5-.5.5zM-1129 900.7h-5c-.3 0-.5-.2-.5-.5s.2-.5.5-.5h5c.3 0 .5.2.5.5s-.2.5-.5.5zM-1129 898.7h-5c-.3 0-.5-.2-.5-.5s.2-.5.5-.5h5c.3 0 .5.2.5.5s-.2.5-.5.5zM-1122 916.7h-5c-.3 0-.5-.2-.5-.5s.2-.5.5-.5h5c.3 0 .5.2.5.5s-.2.5-.5.5zM-1122 914.7h-5c-.3 0-.5-.2-.5-.5s.2-.5.5-.5h5c.3 0 .5.2.5.5s-.2.5-.5.5zM-1122 912.7h-5c-.3 0-.5-.2-.5-.5s.2-.5.5-.5h5c.3 0 .5.2.5.5s-.2.5-.5.5z"/></g><g><path d="M-1183 917.2c-.3 0-.5-.2-.5-.5v-18c0-.3.2-.5.5-.5s.5.2.5.5v18c0 .3-.2.5-.5.5zM-1180 918.2c-.3 0-.5-.2-.5-.5v-22c0-.3.2-.5.5-.5s.5.2.5.5v22c0 .3-.2.5-.5.5zM-1177 916.2c-.3 0-.5-.2-.5-.5v-18c0-.3.2-.5.5-.5s.5.2.5.5v18c0 .3-.2.5-.5.5zM-1174 913.2c-.3 0-.5-.2-.5-.5v-10c0-.3.2-.5.5-.5s.5.2.5.5v10c0 .3-.2.5-.5.5zM-1186 913.2c-.3 0-.5-.2-.5-.5v-10c0-.3.2-.5.5-.5s.5.2.5.5v10c0 .3-.2.5-.5.5zM-1171 912.2c-.3 0-.5-.2-.5-.5v-8c0-.3.2-.5.5-.5s.5.2.5.5v8c0 .3-.2.5-.5.5zM-1189 912.2c-.3 0-.5-.2-.5-.5v-8c0-.3.2-.5.5-.5s.5.2.5.5v8c0 .3-.2.5-.5.5zM-1191 909.2c-.3 0-.5-.2-.5-.5v-2c0-.3.2-.5.5-.5s.5.2.5.5v2c0 .3-.2.5-.5.5zM-1169 909.2c-.3 0-.5-.2-.5-.5v-2c0-.3.2-.5.5-.5s.5.2.5.5v2c0 .3-.2.5-.5.5z"/></g><g><path d="M-1221.6 862.9c-.1 0-.3-.1-.4-.1l-2.8-2.8c-.2-.2-.2-.5 0-.7l4.2-4.2c.2-.2.5-.2.7 0l2.8 2.8c.2.2.2.5 0 .7l-4.2 4.2c0 .1-.1.1-.3.1zm-2.1-3.3l2.1 2.1 3.5-3.5-2.1-2.1-3.5 3.5zM-1235 876.4c-.1 0-.3-.1-.4-.1l-2.8-2.8c-.1-.1-.1-.2-.1-.4s.1-.3.1-.4l4.2-4.2c.2-.2.5-.2.7 0l2.8 2.8c.1.1.1.2.1.4s-.1.3-.1.4l-4.2 4.2s-.2.1-.3.1zm-2.1-3.4l2.1 2.1 3.5-3.5-2.1-2.1-3.5 3.5zM-1230.1 870c-.1 0-.3 0-.4-.1-.9-.9-1.5-2.2-1.5-3.5 0-1.3.5-2.6 1.5-3.5 1.9-1.9 5.1-1.9 7.1 0 .1.1.1.2.1.4s-.1.3-.1.4l-6.4 6.4c0-.1-.1-.1-.3-.1zm.4-6.5c-.8.8-1.2 1.8-1.2 2.8 0 .9.3 1.8.8 2.5l5.6-5.6c-1.5-1.2-3.8-1.1-5.2.3z"/><path d="M-1226.8 868.9c-.7 0-1.4-.3-1.9-.8-.2-.2-.2-.5 0-.7.2-.2.5-.2.7 0 .6.6 1.6.6 2.2.1.6-.6.6-1.6 0-2.2-.2-.2-.2-.5 0-.7s.5-.2.7 0c1 1 1 2.6 0 3.6-.4.4-1 .7-1.7.7z"/><path d="M-1226.8 871.9c-.3 0-.5 0-.8-.1-.3 0-.5-.3-.4-.6s.3-.5.6-.4c1.4.2 2.8-.3 3.8-1.3s1.5-2.4 1.3-3.8c0-.3.1-.5.4-.6.3 0 .5.1.6.4.3 1.7-.3 3.4-1.5 4.7-1.2 1.1-2.5 1.7-4 1.7z"/><path d="M-1226.8 874.9c-.3 0-.6 0-1-.1-.3 0-.5-.3-.4-.6 0-.3.3-.5.6-.4 2.3.3 4.5-.5 6.1-2.2 1.6-1.6 2.4-3.9 2.1-6.1 0-.3.2-.5.4-.6.3 0 .5.2.6.4.3 2.6-.6 5.1-2.4 7-1.6 1.7-3.8 2.6-6 2.6z"/><path d="M-1226.8 877.9c-.6 0-1.3-.1-2-.2-.3 0-.5-.3-.4-.6 0-.3.3-.5.6-.4 3.4.6 6.8-.5 9.2-3 2.4-2.5 3.5-5.8 2.9-9.2 0-.3.1-.5.4-.6.3-.1.5.1.6.4.7 3.7-.5 7.4-3.2 10.1-2.1 2.3-5 3.5-8.1 3.5z"/></g><g><path d="M-1036.5 1094.7c-6.6 0-12-5.4-12-12s5.4-12 12-12 12 5.4 12 12-5.4 12-12 12zm0-23c-6.1 0-11 4.9-11 11s4.9 11 11 11 11-4.9 11-11-4.9-11-11-11z"/><path d="M-1036.5 1091.7c-4.4 0-8-3.6-8-8 0-.3.2-.5.5-.5s.5.2.5.5c0 3.9 3.1 7 7 7s7-3.1 7-7c0-.3.2-.5.5-.5s.5.2.5.5c0 4.4-3.6 8-8 8zM-1039 1081.2c-.3 0-.5-.2-.5-.5 0-.5-.2-.8-.5-1.1-.8-.7-2.5-.5-2.5 1.1 0 .3-.2.5-.5.5s-.5-.2-.5-.5c0-1.6 1.3-2.5 2.5-2.5.6 0 1.3.2 1.7.6.4.3.8.9.8 1.9 0 .3-.2.5-.5.5zM-1030 1081.2c-.3 0-.5-.2-.5-.5 0-1.6-1.8-1.8-2.5-1.1-.3.3-.5.6-.5 1.1 0 .3-.2.5-.5.5s-.5-.2-.5-.5c0-1 .4-1.5.8-1.9.5-.4 1.1-.6 1.7-.6 1.2 0 2.5.9 2.5 2.5 0 .3-.2.5-.5.5z"/></g><g><path d="M-1228.5 1142.7c-6.6 0-12-5.4-12-12s5.4-12 12-12 12 5.4 12 12-5.4 12-12 12zm0-23c-6.1 0-11 4.9-11 11s4.9 11 11 11 11-4.9 11-11-4.9-11-11-11z"/><path d="M-1235.1 1127.7c-.2 0-.3-.1-.4-.2-.2-.2-.1-.5.1-.7 1.1-.9 2.4-1.4 3.8-1.6.3 0 .5.2.6.4 0 .3-.2.5-.4.6-1.2.2-2.4.6-3.4 1.4 0 0-.1.1-.3.1zM-1221.9 1127.7c-.1 0-.2 0-.3-.1-1-.7-2.1-1.2-3.4-1.4-.3 0-.5-.3-.4-.6 0-.3.3-.5.6-.4 1.4.2 2.7.7 3.8 1.6.2.2.3.5.1.7-.1.1-.3.2-.4.2zM-1228.5 1137.9c-3 0-5.6-1.5-7-4-.1-.2 0-.5.2-.7.2-.1.5 0 .7.2 1.2 2.2 3.4 3.5 6.1 3.5 2.6 0 4.8-1.3 6-3.5.1-.2.4-.3.7-.2.2.1.3.4.2.7-1.4 2.5-3.9 4-6.9 4z"/></g><g><path d="M-1276.5 1094.7c-6.6 0-12-5.4-12-12s5.4-12 12-12 12 5.4 12 12-5.4 12-12 12zm0-23c-6.1 0-11 4.9-11 11s4.9 11 11 11 11-4.9 11-11-4.9-11-11-11z"/><path d="M-1276.5 1091.7c-4.3 0-8-3.4-8-7.5 0-.3.2-.5.5-.5h15c.3 0 .5.2.5.5 0 4-3.7 7.5-8 7.5zm-7-7c.3 3.2 3.4 6 7 6s6.7-2.8 7-6h-14zM-1279 1081.2c-.3 0-.5-.2-.5-.5 0-.5-.2-.8-.5-1.1-.8-.7-2.5-.5-2.5 1.1 0 .3-.2.5-.5.5s-.5-.2-.5-.5c0-1.6 1.3-2.5 2.5-2.5.6 0 1.3.2 1.7.6.4.3.8.9.8 1.9 0 .3-.2.5-.5.5zM-1270 1081.2c-.3 0-.5-.2-.5-.5 0-.5-.2-.8-.5-1.1-.8-.7-2.5-.5-2.5 1.1 0 .3-.2.5-.5.5s-.5-.2-.5-.5c0-1.6 1.3-2.5 2.5-2.5.6 0 1.3.2 1.7.6.5.5.8 1.1.8 1.9 0 .3-.2.5-.5.5z"/></g><g><path d="M-1180.5 1094.7c-6.6 0-12-5.4-12-12s5.4-12 12-12 12 5.4 12 12-5.4 12-12 12zm0-23c-6.1 0-11 4.9-11 11s4.9 11 11 11 11-4.9 11-11-4.9-11-11-11z"/><path d="M-1180.5 1091.7c-4.3 0-8-3.4-8-7.5 0-.3.2-.5.5-.5h15c.3 0 .5.2.5.5 0 4-3.7 7.5-8 7.5zm-7-7c.3 3.2 3.4 6 7 6s6.7-2.8 7-6h-14zM-1185 1081.2c-.6 0-1.3-.2-1.7-.6-.5-.5-.8-1.1-.8-1.9 0-.3.2-.5.5-.5s.5.2.5.5c0 .5.2.8.5 1.1.8.7 2.5.5 2.5-1.1 0-.3.2-.5.5-.5s.5.2.5.5c0 1.6-1.3 2.5-2.5 2.5zM-1176 1081.2c-1.2 0-2.5-.9-2.5-2.5 0-.3.2-.5.5-.5s.5.2.5.5c0 .5.2.8.5 1.1.8.7 2.5.5 2.5-1.1 0-.3.2-.5.5-.5s.5.2.5.5c0 .8-.3 1.4-.8 1.9-.4.3-1 .6-1.7.6z"/></g><g><path d="M-1227.5 918.7c-.3 0-.5-.2-.5-.5v-23c0-.3.2-.5.5-.5s.5.2.5.5v23c0 .3-.3.5-.5.5zM-1248.5 916.7c-.3 0-.5-.2-.5-.5v-19c0-.3.2-.5.5-.5s.5.2.5.5v19c0 .3-.3.5-.5.5zM-1245.5 913.2c-.3 0-.5-.2-.5-.5v-12c0-.3.2-.5.5-.5s.5.2.5.5v12c0 .3-.3.5-.5.5zM-1242.5 915.7c-.3 0-.5-.2-.5-.5v-17c0-.3.2-.5.5-.5s.5.2.5.5v17c0 .3-.3.5-.5.5zM-1239.5 918.7c-.3 0-.5-.2-.5-.5v-23c0-.3.2-.5.5-.5s.5.2.5.5v23c0 .3-.3.5-.5.5zM-1236.5 914.7c-.3 0-.5-.2-.5-.5v-15c0-.3.2-.5.5-.5s.5.2.5.5v15c0 .3-.3.5-.5.5zM-1233.5 912.2c-.3 0-.5-.2-.5-.5v-10c0-.3.2-.5.5-.5s.5.2.5.5v10c0 .3-.3.5-.5.5zM-1230.5 914.7c-.3 0-.5-.2-.5-.5v-15c0-.3.2-.5.5-.5s.5.2.5.5v15c0 .3-.3.5-.5.5z"/></g><g><path d="M-1347.5 512.4c-.5 0-1-.2-1.4-.6-.4-.4-.6-.9-.6-1.4 0-.5.2-1 .6-1.4l6.6-6.6c.2-.2.5-.2.7 0l2.1 2.1c.2.2.2.5 0 .7l-6.6 6.6c-.4.4-.9.6-1.4.6zm5.5-8.9l-6.2 6.2c-.2.2-.3.4-.3.7 0 .3.1.5.3.7.2.2.4.3.7.3.3 0 .5-.1.7-.3l6.2-6.2-1.4-1.4z"/><path d="M-1338.8 506.5c-.1 0-.3 0-.4-.1l-4.2-4.2c-.2-.2-.2-.5 0-.7s.5-.2.7 0l4.2 4.2c.2.2.2.5 0 .7-.1 0-.2.1-.3.1z"/><path transform="rotate(-45.001 -1335.63 498.53)" d="M-1343.2 498h15.1v1h-15.1z"/><path d="M-1329.1 494.9c-.1 0-.3-.1-.4-.1l-2.5-2.5c-.1-.1-.2-.3-.1-.4s.1-.3.2-.4l3.5-2.5c.2-.1.5-.1.6.1l1.5 1.5c.2.2.2.5 0 .7l-2.6 3.4c.1.1 0 .2-.2.2zm-1.7-2.9l1.6 1.6 2-2.6-.9-.9-2.7 1.9zM-1340.6 501.2l-3.5-3.5c-1.6.6-3.4.2-4.6-1.1-1.3-1.3-1.7-3.2-1-4.9.1-.2.2-.3.4-.3s.3 0 .4.1l1.9 1.8h1.5v-1.4l-1.9-2c-.1-.1-.2-.3-.1-.4s.1-.3.3-.4c1.7-.7 3.6-.3 4.9 1 1.2 1.2 1.6 3 1.1 4.6l3.5 3.5-.7.7-3.7-3.7c-.1-.1-.2-.4-.1-.5.6-1.3.3-2.8-.7-3.8-.8-.8-1.9-1.2-3-1l1.5 1.5c.1.1.1.2.1.3v2.1c0 .3-.2.5-.5.5h-2.2c-.1 0-.3 0-.3-.1l-1.5-1.4c-.2 1.1.1 2.3 1 3.1 1 1 2.5 1.3 3.8.7.2-.1.4 0 .5.1l3.7 3.7-.8.8zM-1330.7 512.8c-1.2 0-2.3-.5-3.2-1.3-1.2-1.2-1.6-3-1.1-4.6l-3.5-3.5.7-.7 3.7 3.7c.1.1.2.4.1.5-.6 1.3-.3 2.8.7 3.8.8.8 2 1.2 3.1 1l-1.5-1.5c-.1-.1-.1-.2-.1-.3v-2c0-.3.2-.5.5-.5h2c.1 0 .2 0 .3.1l1.6 1.5c.2-1.1-.1-2.3-1-3.1-1-1-2.5-1.3-3.8-.7-.2.1-.4 0-.5-.1l-3.7-3.7.7-.7 3.5 3.5c1.6-.5 3.4-.1 4.6 1.1 1.3 1.3 1.7 3.2 1 4.9-.1.1-.2.3-.4.3s-.3 0-.4-.1l-2-1.9h-1.3v1.3l1.9 2c.1.1.2.3.1.4 0 .2-.1.3-.3.4-.5.1-1.1.2-1.7.2z"/></g><g><path d="M-1347.5 608.9c-.7 0-1.3-.3-1.8-.7-.5-.5-.7-1.1-.7-1.8s.3-1.3.7-1.8l9.6-9.6c-1.2-2.6-.6-5.7 1.5-7.8 2.1-2.1 5.5-2.7 8.2-1.3.1.1.2.2.3.4 0 .2 0 .3-.1.4l-3.1 3.3v1.8h2l3.2-3c.1-.1.3-.2.4-.1.2 0 .3.1.4.3 1.4 2.7.9 6-1.3 8.1a6.9 6.9 0 01-7.8 1.4l-9.6 9.6c-.6.6-1.3.8-1.9.8zm14.2-22.6c-1.6 0-3.1.6-4.3 1.8-1.9 1.9-2.3 4.7-1.1 7 .1.2.1.4-.1.6l-9.8 9.8c-.3.3-.4.7-.4 1.1 0 .4.2.8.4 1.1.6.6 1.6.6 2.1 0l9.8-9.8c.2-.2.4-.2.6-.1 2.3 1.2 5.1.7 7-1.1 1.7-1.7 2.2-4.2 1.4-6.4l-2.8 2.7c-.1.1-.2.1-.3.1h-2.7c-.3 0-.5-.2-.5-.5v-2.5c0-.1 0-.2.1-.3l2.7-3c-.6-.4-1.3-.5-2.1-.5z"/><path transform="rotate(-43.075 -1331.19 594.815)" d="M-1331.8 591.6h1v6.6h-1z"/><path d="M-1337.5 594.4c-.1 0-.3 0-.4-.1-.2-.2-.2-.5 0-.7l1.5-1.5c.2-.2.5-.2.7 0s.2.5 0 .7l-1.5 1.5c-.1.1-.2.1-.3.1zM-1336.3 595.7c-.1 0-.3 0-.4-.1-.2-.2-.2-.5 0-.7l1.5-1.5c.2-.2.5-.2.7 0s.2.5 0 .7l-1.5 1.5s-.1.1-.3.1zM-1335 596.9c-.1 0-.3 0-.4-.1-.2-.2-.2-.5 0-.7l1.5-1.5c.2-.2.5-.2.7 0s.2.5 0 .7l-1.5 1.5c-.1.1-.2.1-.3.1z"/></g><g><path d="M-1416.1 189.7c-2.7 0-5.3-1.1-7.2-3-1.9-1.9-3-4.5-3-7.2s1.1-5.3 3-7.2l41.8-41.8c-5.2-11.2-2.9-24.6 6-33.5 9-9 23.3-11.2 34.6-5.4.4.2.7.6.8 1.1.1.5-.1.9-.4 1.3l-13.6 13.9V118h9.4l13.9-13.9c.3-.3.8-.5 1.3-.4.5.1.9.4 1.1.8 5.9 11.5 3.7 25.4-5.4 34.5-8.9 8.9-22.2 11.2-33.5 5.9l-41.7 41.8c-1.8 1.9-4.4 3-7.1 3zm61.8-98.3c-7 0-13.9 2.7-19 7.8-8.2 8.2-10.2 20.7-5 31 .3.6.2 1.3-.3 1.7l-42.6 42.5c-1.4 1.4-2.1 3.2-2.1 5.1 0 1.9.7 3.7 2.1 5 1.4 1.4 3.1 2.1 5.1 2.1s3.7-.7 5.1-2.1l42.5-42.5c.5-.5 1.2-.6 1.7-.3 10.3 5.3 22.8 3.3 31-4.9 7.7-7.7 9.9-19.2 5.8-29.1l-12.8 12.8c-.3.3-.7.4-1.1.4h-11.5c-.8 0-1.5-.7-1.5-1.5v-12.2c0-.4.2-.8.4-1l12.5-12.8c-3.4-1.3-6.8-2-10.3-2z"/></g><g><path d="M-1163.1 161.9c-4.9 0-8.9-4-8.9-8.9s4-8.9 8.9-8.9 8.9 4 8.9 8.9c.1 4.9-3.9 8.9-8.9 8.9zm0-14.8c-3.3 0-5.9 2.7-5.9 5.9 0 3.3 2.7 5.9 5.9 5.9 3.3 0 5.9-2.7 5.9-5.9.1-3.3-2.6-5.9-5.9-5.9z"/><path d="M-1157.8 149.2c-.4 0-.8-.1-1.1-.4-.6-.6-.6-1.5 0-2.1l24.5-24.5c.6-.6 1.5-.6 2.1 0 .6.6.6 1.5 0 2.1l-24.5 24.5c-.2.3-.6.4-1 .4zM-1200.2 157h-9.9c-.8 0-1.5-.7-1.5-1.5s.7-1.5 1.5-1.5h9.9c.8 0 1.5.7 1.5 1.5s-.7 1.5-1.5 1.5zM-1116 157h-9.9c-.8 0-1.5-.7-1.5-1.5s.7-1.5 1.5-1.5h9.9c.8 0 1.5.7 1.5 1.5s-.7 1.5-1.5 1.5zM-1128.7 140.3c-.6 0-1.1-.3-1.4-.9-.3-.8 0-1.6.8-2l9.2-3.8c.8-.3 1.6 0 2 .8.3.8 0 1.6-.8 2l-9.2 3.8c-.3 0-.4.1-.6.1zM-1148.8 120.2c-.2 0-.4 0-.6-.1-.8-.3-1.1-1.2-.8-2l3.8-9.2c.3-.8 1.2-1.1 2-.8.8.3 1.1 1.2.8 2l-3.8 9.2c-.3.5-.9.9-1.4.9zM-1163.1 117.3c-.8 0-1.5-.7-1.5-1.5v-9.9c0-.8.7-1.5 1.5-1.5s1.5.7 1.5 1.5v9.9c0 .9-.6 1.5-1.5 1.5zM-1177.3 120.2c-.6 0-1.1-.3-1.4-.9l-3.8-9.2c-.3-.8 0-1.6.8-2 .8-.3 1.6 0 2 .8l3.8 9.2c.3.8 0 1.6-.8 2-.2 0-.4.1-.6.1zM-1189.4 128.2c-.4 0-.8-.1-1.1-.4l-7-7c-.6-.6-.6-1.5 0-2.1s1.5-.6 2.1 0l7 7c.6.6.6 1.5 0 2.1-.2.3-.6.4-1 .4zM-1197.4 140.3c-.2 0-.4 0-.6-.1l-9.1-3.8c-.8-.3-1.1-1.2-.8-2 .3-.8 1.2-1.1 2-.8l9.1 3.8c.8.3 1.1 1.2.8 2-.3.5-.8.9-1.4.9z"/><path d="M-1106.1 176.8h-114c-.8 0-1.5-.7-1.5-1.5V153c0-32.2 26.2-58.5 58.5-58.5 32.2 0 58.5 26.2 58.5 58.5v22.3c0 .8-.7 1.5-1.5 1.5zm-112.4-3h111V153c0-30.6-24.9-55.5-55.5-55.5s-55.5 24.9-55.5 55.5v20.8z"/></g><g><path d="M-911.2 190.5h-49.5c-.5 0-1-.3-1.3-.7s-.3-1-.1-1.5l24.8-49.5c.3-.5.8-.8 1.3-.8s1.1.3 1.3.8l24.8 49.5c.2.5.2 1-.1 1.5s-.7.7-1.2.7zm-47.1-3h44.7l-22.3-44.7-22.4 44.7z"/><path d="M-977.1 172.9c-.4 0-.8-.2-1.1-.5-10.5-10.9-16.2-25.3-16.2-40.4 0-32.2 26.2-58.5 58.5-58.5s58.5 26.2 58.5 58.5c0 15.1-5.8 29.5-16.2 40.4-.6.6-1.5.6-2.1 0-.6-.6-.6-1.5 0-2.1 9.9-10.4 15.4-24 15.4-38.3 0-30.6-24.9-55.5-55.5-55.5s-55.5 24.9-55.5 55.5c0 14.3 5.5 28 15.4 38.3.6.6.6 1.5 0 2.1-.5.3-.8.5-1.2.5z"/><path d="M-905.8 155.1c-.3 0-.6-.1-.9-.3-.7-.5-.8-1.4-.3-2.1 4.4-6.1 6.7-13.3 6.7-20.7 0-19.7-16-35.7-35.7-35.7s-35.7 16-35.7 35.7c0 7.5 2.3 14.6 6.7 20.7.5.7.3 1.6-.3 2.1-.7.5-1.6.3-2.1-.3-4.7-6.6-7.3-14.4-7.3-22.5 0-21.3 17.3-38.7 38.7-38.7s38.7 17.3 38.7 38.7c0 8.1-2.5 15.9-7.3 22.5-.3.4-.7.6-1.2.6z"/><path d="M-918.7 134.3c-.9 0-1.5-.7-1.5-1.6v-.4-.3c0-8.7-7.1-15.8-15.8-15.8s-15.8 7.1-15.8 15.8v.7c0 .8-.6 1.5-1.4 1.6-.8 0-1.5-.6-1.6-1.4v-.3-.5c0-10.4 8.5-18.8 18.8-18.8 10.4 0 18.8 8.5 18.8 18.8V133c0 .6-.7 1.3-1.5 1.3z"/><path d="M-936 140.9c-.8 0-1.5-.7-1.5-1.5v-9.9c0-.8.7-1.5 1.5-1.5s1.5.7 1.5 1.5v9.9c0 .9-.6 1.5-1.5 1.5z"/><path transform="rotate(-33.757 -942.068 176.593)" d="M-964.4 175.1h44.6v3h-44.6z"/><path transform="rotate(-56.308 -929.829 176.61)" d="M-931.3 154.3h3V199h-3z"/><path d="M-944.5 155.3h17.1v3h-17.1z"/></g><g><path d="M-1525.9 188.5h-114c-.8 0-1.5-.7-1.5-1.5v-7.4c0-8.8 5.6-16.9 13.8-20h.1l31.4-8.7c.8-.2 1.6.2 1.8 1 .2.8-.2 1.6-1 1.8l-31.4 8.7c-7.1 2.7-11.8 9.6-11.8 17.1v5.9h111v-5.9c0-7.6-4.8-14.4-11.8-17.1l-31.3-8.7c-.8-.2-1.3-1-1-1.8.2-.8 1-1.3 1.8-1l31.3 8.7h.1c8.3 3.1 13.8 11.1 13.8 20v7.4c.2.8-.5 1.5-1.3 1.5zM-1587.9 129c-.8 0-1.5-.7-1.5-1.5 0-.4-.1-.6-.1-.7-.3-.3-1.7-.3-2.6-.3h-1.4c-1 0-2.4 0-2.6.3-.1.1-.1.3-.1.7 0 .8-.7 1.5-1.5 1.5s-1.5-.7-1.5-1.5c0-1.2.3-2.2 1-2.8 1.2-1.2 2.9-1.2 4.8-1.1h1.2c1.8 0 3.6 0 4.8 1.1.7.7 1 1.6 1 2.8 0 .8-.6 1.5-1.5 1.5zM-1568 129c-.8 0-1.5-.7-1.5-1.5 0-.4-.1-.6-.1-.7-.3-.3-1.7-.3-2.6-.3h-1.4c-1 0-2.4 0-2.6.3-.1.1-.1.3-.1.7 0 .8-.7 1.5-1.5 1.5s-1.5-.7-1.5-1.5c0-1.2.3-2.2 1-2.8 1.2-1.2 2.9-1.2 4.8-1.1h1.2c1.8 0 3.6 0 4.8 1.1.7.7 1 1.6 1 2.8 0 .8-.7 1.5-1.5 1.5z"/><path d="M-1582.9 158.9c-7.6 0-25.2-9.7-26.2-25.1-3.7-.8-5.6-4.8-5.6-8.8 0-2.2.6-4.4 1.6-5.9s2.3-2.4 3.9-2.8v-5.8c0-.8.7-1.5 1.5-1.5s1.5.7 1.5 1.5v7.1c0 .8-.7 1.5-1.5 1.5-2.8 0-4.1 3.1-4.1 5.9 0 2.9 1.3 5.9 4.1 5.9.8 0 1.5.7 1.5 1.5 0 14.1 16.6 23.4 23.3 23.4s23.3-9.3 23.3-23.4c0-.8.7-1.5 1.5-1.5 2.8 0 4.1-3.1 4.1-5.9 0-2.9-1.3-5.9-4.1-5.9-.8 0-1.5-.7-1.5-1.5v-7.1c0-.8.7-1.5 1.5-1.5s1.5.7 1.5 1.5v5.8c3.7.9 5.6 4.8 5.6 8.8 0 3.9-1.9 7.9-5.6 8.8-1.1 15.3-18.7 25-26.3 25z"/><path d="M-1570.5 173.6h-24.8c-6.3 0-11.4-5.1-11.4-11.4v-7.3c0-.8.7-1.5 1.5-1.5s1.5.7 1.5 1.5v7.3c0 4.6 3.8 8.4 8.4 8.4h24.8c4.6 0 8.4-3.8 8.4-8.4v-7.3c0-.8.7-1.5 1.5-1.5s1.5.7 1.5 1.5v7.3c0 6.3-5.1 11.4-11.4 11.4zM-1620.1 188.5c-.8 0-1.5-.7-1.5-1.5v-27.9c0-.8.7-1.5 1.5-1.5s1.5.7 1.5 1.5V187c0 .8-.6 1.5-1.5 1.5zM-1545.8 188.5c-.8 0-1.5-.7-1.5-1.5v-27.9c0-.8.7-1.5 1.5-1.5s1.5.7 1.5 1.5V187c0 .8-.6 1.5-1.5 1.5zM-1582.9 116.6c-30.6 0-33.6-13-33.7-13.6-.1-.6.2-1.3.7-1.6l6.7-3.9c.4-10.4 7.3-18.7 18.7-22.3.8-.3 1.6.2 1.9 1 .3.8-.2 1.6-1 1.9-10.4 3.3-16.6 10.9-16.6 20.3 0 .5-.3 1-.7 1.3l-6.3 3.7c1.4 2.7 7.4 10.2 30.3 10.2s28.9-7.5 30.3-10.2l-6.3-3.7c-.5-.3-.7-.8-.7-1.3 0-9.4-6.2-17-16.6-20.3-.8-.2-1.2-1.1-1-1.9.2-.8 1.1-1.2 1.9-1 11.4 3.6 18.3 11.9 18.7 22.3l6.7 3.9c.6.3.8 1 .7 1.6-.1.6-3.1 13.6-33.7 13.6z"/><path d="M-1587.6 104.1c-.8 0-1.4-.6-1.5-1.4l-2.8-29.6c0-.4.1-.8.4-1.1s.7-.5 1.1-.5h14.9c.4 0 .8.2 1.1.5s.4.7.4 1.1l-2.8 29.6c-.1.8-.8 1.4-1.6 1.4-.8-.1-1.4-.8-1.4-1.6l2.6-28h-11.6l2.6 28c.1.8-.5 1.6-1.4 1.6.1 0 .1 0 0 0z"/><path d="M-1582.9 104.2c-9.5 0-18.7-1.6-25.4-4.5-.8-.3-1.1-1.2-.8-2 .3-.8 1.2-1.1 2-.8 6.3 2.7 15.1 4.2 24.2 4.2s17.9-1.5 24.2-4.2c.8-.3 1.6 0 2 .8.3.8 0 1.6-.8 2-6.7 2.9-15.9 4.5-25.4 4.5z"/></g><g><path d="M-684.3 189.7c-13.1 0-23.8-10.7-23.8-23.8 0-10-4.5-14.9-9.2-20.1-5.2-5.7-10.6-11.7-10.6-24.5 0-18.6 15.1-33.7 33.7-33.7s33.7 15.1 33.7 33.7c0 .8-.7 1.5-1.5 1.5s-1.5-.7-1.5-1.5c0-16.9-13.8-30.7-30.7-30.7s-30.7 13.8-30.7 30.7c0 11.6 4.8 16.9 9.9 22.5 4.9 5.4 10 10.9 10 22.1 0 11.5 9.3 20.8 20.8 20.8s20.8-9.3 20.8-20.8c0-.8.7-1.5 1.5-1.5s1.5.7 1.5 1.5c-.1 13.2-10.8 23.8-23.9 23.8zM-749.4 168.1c-.4 0-.8-.1-1.1-.4-11-11-17.1-25.7-17.1-41.4s6.1-30.3 17.1-41.4c.6-.6 1.5-.6 2.1 0s.6 1.5 0 2.1c-10.5 10.5-16.2 24.4-16.2 39.2 0 14.8 5.8 28.8 16.2 39.2.6.6.6 1.5 0 2.1-.2.5-.6.6-1 .6zM-735.3 154.1c-.4 0-.8-.1-1.1-.4-7.3-7.3-11.3-17-11.3-27.3s4-20 11.3-27.3c.6-.6 1.5-.6 2.1 0 .6.6.6 1.5 0 2.1-6.7 6.7-10.4 15.7-10.4 25.2s3.7 18.5 10.4 25.2c.6.6.6 1.5 0 2.1-.3.2-.6.4-1 .4z"/><path d="M-689.2 152.6c-6.3 0-11.4-5.1-11.4-11.4 0-3.6-1.8-5.3-4-7.3-2.6-2.5-5.9-5.5-5.9-12.5 0-9 7.3-16.4 16.4-16.4s16.4 7.3 16.4 16.4c0 .8-.7 1.5-1.5 1.5s-1.5-.7-1.5-1.5c0-7.4-6-13.4-13.4-13.4s-13.4 6-13.4 13.4c0 5.6 2.4 7.9 5 10.3 2.4 2.3 4.9 4.6 4.9 9.5 0 4.6 3.8 8.4 8.4 8.4s8.4-3.8 8.4-8.4c0-.8.7-1.5 1.5-1.5s1.5.7 1.5 1.5c0 6.3-5.2 11.4-11.4 11.4z"/></g><path d="M-624.7 396.5c-14.9 0-29.1-5.7-40-16.1-10.6-10.1-16.6-23.5-16.6-36.9 0-.8.7-1.5 1.5-1.5h110.3c.8 0 1.5.7 1.5 1.5 0 13.4-6.1 26.8-16.6 36.9-11 10.4-25.2 16.1-40.1 16.1zm-53.7-51.5c.9 26 25.6 48.5 53.6 48.5S-572 371-571.1 345h-107.3zM-643.1 319.3c-.8 0-1.5-.7-1.5-1.5 0-4.1-1.4-7.5-4.1-9.8-2.4-2.1-5.6-3.3-9.1-3.3-6.4 0-13.2 4.1-13.2 13.1 0 .8-.7 1.5-1.5 1.5s-1.5-.7-1.5-1.5c0-10.6 8.2-16.1 16.2-16.1 8.1 0 16.2 5.5 16.2 16.1 0 .8-.7 1.5-1.5 1.5zM-576.9 319.3c-.8 0-1.5-.7-1.5-1.5 0-9-6.8-13.1-13.2-13.1-3.5 0-6.7 1.2-9.1 3.3-2.7 2.4-4.1 5.8-4.1 9.8 0 .8-.7 1.5-1.5 1.5s-1.5-.7-1.5-1.5c0-4.9 1.8-9.1 5.1-12.1 2.9-2.6 6.9-4 11.1-4 8.1 0 16.2 5.5 16.2 16.1 0 .8-.7 1.5-1.5 1.5z"/><g><path class="st0" d="M-830.3 155.4c-.8 0-1.5-.7-1.5-1.5v-37.2c0-.8.7-1.5 1.5-1.5s1.5.7 1.5 1.5v37.2c0 .8-.7 1.5-1.5 1.5zM-824.1 157.5c-.8 0-1.5-.7-1.5-1.5v-45.5c0-.8.7-1.5 1.5-1.5s1.5.7 1.5 1.5V156c0 .8-.7 1.5-1.5 1.5zM-817.9 153.3c-.8 0-1.5-.7-1.5-1.5v-37.2c0-.8.7-1.5 1.5-1.5s1.5.7 1.5 1.5v37.2c0 .9-.7 1.5-1.5 1.5zM-811.7 147.1c-.8 0-1.5-.7-1.5-1.5V125c0-.8.7-1.5 1.5-1.5s1.5.7 1.5 1.5v20.7c0 .8-.7 1.4-1.5 1.4zM-836.5 147.1c-.8 0-1.5-.7-1.5-1.5V125c0-.8.7-1.5 1.5-1.5s1.5.7 1.5 1.5v20.7c0 .8-.7 1.4-1.5 1.4zM-805.5 145.1c-.8 0-1.5-.7-1.5-1.5V127c0-.8.7-1.5 1.5-1.5s1.5.7 1.5 1.5v16.5c0 .9-.7 1.6-1.5 1.6zM-842.7 145.1c-.8 0-1.5-.7-1.5-1.5V127c0-.8.7-1.5 1.5-1.5s1.5.7 1.5 1.5v16.5c0 .9-.7 1.6-1.5 1.6zM-846.8 138.9c-.8 0-1.5-.7-1.5-1.5v-4.1c0-.8.7-1.5 1.5-1.5s1.5.7 1.5 1.5v4.1c0 .8-.7 1.5-1.5 1.5zM-801.4 138.9c-.8 0-1.5-.7-1.5-1.5v-4.1c0-.8.7-1.5 1.5-1.5s1.5.7 1.5 1.5v4.1c0 .8-.6 1.5-1.5 1.5z"/></g><g><path class="st0" d="M-1030 158.5c-.8 0-1.5-.7-1.5-1.5v-44c0-.8.7-1.5 1.5-1.5s1.5.7 1.5 1.5v44c0 .8-.7 1.5-1.5 1.5zM-1070.2 154.7c-.8 0-1.5-.7-1.5-1.5v-36.3c0-.8.7-1.5 1.5-1.5s1.5.7 1.5 1.5v36.3c0 .8-.6 1.5-1.5 1.5zM-1064.4 148c-.8 0-1.5-.7-1.5-1.5v-23c0-.8.7-1.5 1.5-1.5s1.5.7 1.5 1.5v23c0 .8-.7 1.5-1.5 1.5zM-1058.7 152.8c-.8 0-1.5-.7-1.5-1.5v-32.5c0-.8.7-1.5 1.5-1.5s1.5.7 1.5 1.5v32.5c0 .8-.7 1.5-1.5 1.5zM-1052.9 158.5c-.8 0-1.5-.7-1.5-1.5v-44c0-.8.7-1.5 1.5-1.5s1.5.7 1.5 1.5v44c0 .8-.7 1.5-1.5 1.5zM-1047.2 150.9c-.8 0-1.5-.7-1.5-1.5v-28.7c0-.8.7-1.5 1.5-1.5s1.5.7 1.5 1.5v28.7c0 .8-.7 1.5-1.5 1.5zM-1041.5 146.1c-.8 0-1.5-.7-1.5-1.5v-19.1c0-.8.7-1.5 1.5-1.5s1.5.7 1.5 1.5v19.1c0 .8-.6 1.5-1.5 1.5zM-1035.7 150.9c-.8 0-1.5-.7-1.5-1.5v-28.7c0-.8.7-1.5 1.5-1.5s1.5.7 1.5 1.5v28.7c0 .8-.7 1.5-1.5 1.5z"/></g><g><path class="st0" d="M-1290.3 143c-3.3 0-6-2.7-6-6s2.7-6 6-6 6 2.7 6 6-2.7 6-6 6zm0-9.1c-1.7 0-3 1.4-3 3 0 1.7 1.4 3 3 3s3-1.4 3-3-1.3-3-3-3zM-1274 143c-3.3 0-6-2.7-6-6s2.7-6 6-6 6 2.7 6 6-2.7 6-6 6zm0-9.1c-1.7 0-3 1.4-3 3 0 1.7 1.4 3 3 3 1.7 0 3-1.4 3-3s-1.4-3-3-3zM-1257.8 143c-3.3 0-6-2.7-6-6s2.7-6 6-6 6 2.7 6 6-2.7 6-6 6zm0-9.1c-1.7 0-3 1.4-3 3 0 1.7 1.4 3 3 3s3-1.4 3-3-1.3-3-3-3z"/></g><g><path d="M-701.3 1005.4h-49.5c-.9 0-1.7-.4-2.1-1.2s-.5-1.7-.1-2.4l24.8-49.5c.4-.8 1.3-1.4 2.2-1.4s1.8.5 2.2 1.4l24.8 49.5c.4.8.3 1.7-.1 2.4s-1.3 1.2-2.2 1.2zm-45.5-5h41.5L-726 959l-20.8 41.4z"/><path d="M-684.9 987.8c-.6 0-1.2-.2-1.7-.7-1-1-1-2.5-.1-3.5 9.8-10.2 15.1-23.6 15.1-37.7 0-30-24.4-54.5-54.5-54.5s-54.5 24.4-54.5 54.5c0 14.1 5.4 27.5 15.1 37.7 1 1 .9 2.6-.1 3.5s-2.6.9-3.5-.1c-10.7-11.1-16.5-25.7-16.5-41.1 0-32.8 26.7-59.5 59.5-59.5s59.5 26.7 59.5 59.5c0 15.4-5.9 30-16.5 41.1-.5.6-1.1.8-1.8.8z"/><path d="M-695.9 970.1c-.5 0-1-.2-1.5-.5-1.1-.8-1.4-2.4-.6-3.5 4.3-5.9 6.5-12.9 6.5-20.2 0-19.1-15.5-34.7-34.7-34.7s-34.7 15.5-34.7 34.7c0 7.3 2.3 14.2 6.5 20.2.8 1.1.5 2.7-.6 3.5-1.1.8-2.7.5-3.5-.6-4.9-6.8-7.4-14.8-7.4-23.1 0-21.9 17.8-39.7 39.7-39.7 21.9 0 39.7 17.8 39.7 39.7 0 8.3-2.6 16.3-7.4 23.1-.4.7-1.2 1.1-2 1.1z"/><path d="M-708.7 949.2c-.1 0-.1 0 0 0-1.5-.1-2.5-1.2-2.5-2.6v-.4-.3c0-8.2-6.7-14.8-14.8-14.8-8.2 0-14.8 6.7-14.8 14.8v.7c0 1.4-1 2.5-2.4 2.6-1.4.1-2.5-1-2.6-2.4v-.2-.6c0-10.9 8.9-19.8 19.8-19.8s19.8 8.9 19.8 19.8v.8c-.1 1.3-1.2 2.4-2.5 2.4z"/><path d="M-726 955.9c-1.4 0-2.5-1.1-2.5-2.5v-9.9c0-1.4 1.1-2.5 2.5-2.5s2.5 1.1 2.5 2.5v9.9c0 1.4-1.2 2.5-2.5 2.5z"/><path transform="rotate(-33.757 -732.193 990.657)" d="M-754.5 988h44.6v5h-44.6z"/><path transform="rotate(-56.312 -719.815 990.47)" d="M-722.3 968.2h5v44.7h-5z"/><path d="M-734.6 968.2h17.1v5h-17.1z"/></g><g id="rlMacw.tif"><image width="1024" height="512" id="Layer_0_00000120542444452470341740000017589377438381485471_" xlink:href="E602DA32441F67A4.png" transform="translate(-953 1594)" overflow="visible"/></g><g id="Sn2UMH.tif"><image width="1024" height="512" id="Layer_0_00000181801267152399303200000015547455957892211889_" xlink:href="E602DA32441F67A5.png" transform="translate(-856 1556)" overflow="visible"/></g><g id="_x34_4nTJy.tif"><image width="1024" height="512" id="Layer_0_00000152233407447121753620000010203020699597340296_" xlink:href="E602DA32441F67A3.png" transform="translate(-1098 1628)" overflow="visible"/></g><g id="S0rFV8.tif"><image width="1024" height="512" id="Layer_0_00000169542970085037806670000018276416553307347858_" xlink:href="E602DA32441F67AC.png" transform="translate(-1028 1742)" overflow="visible"/></g><g id="xyhBBd.tif"><image width="1024" height="512" id="Layer_0_00000045616806988154077440000018129401230087532707_" xlink:href="E602DA32441F67AF.png" transform="translate(-818 1850)" overflow="visible"/></g><g id="_x30_t8pNl.tif"><image width="1024" height="512" id="Layer_0_00000132793152714055587480000009721497753653565602_" xlink:href="E602DA32441F67AD.png" transform="translate(-1170 1497) scale(1.6826)" overflow="visible"/></g><g><path class="st1" d="M56.5 677.8c-4.6 0-8.4-3.8-8.4-8.4V642c0-4.6 3.8-8.4 8.4-8.4s8.4 3.8 8.4 8.4v27.5c-.1 4.6-3.8 8.3-8.4 8.3zm0-41.2c-3 0-5.4 2.4-5.4 5.4v27.5c0 3 2.4 5.4 5.4 5.4s5.4-2.4 5.4-5.4V642c-.1-3-2.5-5.4-5.4-5.4zM111.4 657.2H70.2c-.8 0-1.5-.7-1.5-1.5s.7-1.5 1.5-1.5h41.2c.8 0 1.5.7 1.5 1.5s-.7 1.5-1.5 1.5zM42.7 657.2H32.4c-.8 0-1.5-.7-1.5-1.5s.7-1.5 1.5-1.5h10.3c.8 0 1.5.7 1.5 1.5s-.6 1.5-1.5 1.5z"/></g><g><path class="st1" d="M402.2 372.8h-27.5c-4.6 0-8.4-3.8-8.4-8.4s3.8-8.4 8.4-8.4h27.5c4.6 0 8.4 3.8 8.4 8.4s-3.7 8.4-8.4 8.4zM374.8 359c-3 0-5.4 2.4-5.4 5.4s2.4 5.4 5.4 5.4h27.5c3 0 5.4-2.4 5.4-5.4s-2.4-5.4-5.4-5.4h-27.5zM388.5 352.2c-.8 0-1.5-.7-1.5-1.5v-41.2c0-.8.7-1.5 1.5-1.5s1.5.7 1.5 1.5v41.2c0 .9-.7 1.5-1.5 1.5zM388.5 390c-.8 0-1.5-.7-1.5-1.5v-10.3c0-.8.7-1.5 1.5-1.5s1.5.7 1.5 1.5v10.3c0 .8-.7 1.5-1.5 1.5z"/></g><g><path class="st1" d="M39.4 144.5c-2.2 0-4.3-.9-5.9-2.5-1.6-1.6-2.4-3.7-2.4-5.9s.9-4.3 2.5-5.9l33-33c-4.1-9-2.2-19.6 4.9-26.7 7.2-7.2 18.7-9 27.8-4.4.4.2.7.6.8 1.1.1.5-.1.9-.4 1.3L89 79.5V87h7l11-10.9c.3-.3.8-.5 1.3-.4.5.1.9.4 1.1.8 4.7 9.2 3 20.4-4.4 27.7-7.1 7.1-17.7 8.9-26.7 4.8l-33 33c-1.5 1.6-3.6 2.5-5.9 2.5zm49-77.9c-5.5 0-10.9 2.1-14.9 6.1-6.4 6.4-8 16.2-3.9 24.2.3.6.2 1.3-.3 1.7l-33.8 33.7c-1 1-1.6 2.4-1.6 3.8s.6 2.8 1.6 3.8 2.4 1.6 3.8 1.6 2.8-.6 3.8-1.6l33.7-33.7c.5-.5 1.2-.6 1.7-.3 8.1 4.1 17.8 2.6 24.2-3.8 5.9-5.9 7.7-14.7 4.7-22.3l-9.8 9.8c-.2.2-.6.4-1 .4h-9.1c-.8 0-1.5-.7-1.5-1.5v-9.6c0-.4.2-.8.4-1L96 68c-2.4-1-5-1.4-7.6-1.4z"/></g><g><path class="st1" d="M924.1 436.4h-75.6c-.8 0-1.5-.7-1.5-1.5v-79c0-.8.7-1.5 1.5-1.5h75.6c.8 0 1.5.7 1.5 1.5v79c0 .8-.6 1.5-1.5 1.5zm-74-3h72.6v-76h-72.6v76z"/><path class="st1" d="M886.3 405.5c-.8 0-1.5-.7-1.5-1.5v-24c0-.8.7-1.5 1.5-1.5s1.5.7 1.5 1.5v24c0 .8-.6 1.5-1.5 1.5zM907.1 405.5c-.8 0-1.5-.7-1.5-1.5v-6.9c0-.8.7-1.5 1.5-1.5s1.5.7 1.5 1.5v6.9c0 .8-.7 1.5-1.5 1.5zM865.7 384.9c-.8 0-1.5-.7-1.5-1.5v-17.2c0-.8.7-1.5 1.5-1.5s1.5.7 1.5 1.5v17.2c0 .8-.6 1.5-1.5 1.5zM865.7 405.5c-.8 0-1.5-.7-1.5-1.5v-13.7c0-.8.7-1.5 1.5-1.5s1.5.7 1.5 1.5V404c0 .8-.6 1.5-1.5 1.5zM907.1 391.8c-.8 0-1.5-.7-1.5-1.5v-24c0-.8.7-1.5 1.5-1.5s1.5.7 1.5 1.5v24c0 .8-.7 1.5-1.5 1.5zM886.3 374.6c-.8 0-1.5-.7-1.5-1.5v-6.9c0-.8.7-1.5 1.5-1.5s1.5.7 1.5 1.5v6.9c0 .8-.6 1.5-1.5 1.5z"/><path class="st1" d="M913.9 398.6h-13.7c-.8 0-1.5-.7-1.5-1.5v-6.9c0-.8.7-1.5 1.5-1.5h13.7c.8 0 1.5.7 1.5 1.5v6.9c0 .9-.6 1.5-1.5 1.5zm-12.2-3h10.7v-3.9h-10.7v3.9zM893.2 381.5h-13.7c-.8 0-1.5-.7-1.5-1.5v-6.9c0-.8.7-1.5 1.5-1.5h13.7c.8 0 1.5.7 1.5 1.5v6.9c0 .8-.7 1.5-1.5 1.5zm-12.2-3h10.7v-3.9H881v3.9zM872.6 391.8h-13.7c-.8 0-1.5-.7-1.5-1.5v-6.9c0-.8.7-1.5 1.5-1.5h13.7c.8 0 1.5.7 1.5 1.5v6.9c0 .8-.7 1.5-1.5 1.5zm-12.2-3h10.7v-3.9h-10.7v3.9zM907.1 426.1a6.7 6.7 0 110-13.4 6.7 6.7 0 010 13.4zm0-10.3c-2 0-3.7 1.6-3.7 3.7s1.6 3.7 3.7 3.7 3.7-1.6 3.7-3.7-1.7-3.7-3.7-3.7zM886.3 426.1a6.7 6.7 0 110-13.4 6.7 6.7 0 010 13.4zm0-10.3c-2 0-3.7 1.6-3.7 3.7s1.6 3.7 3.7 3.7 3.7-1.6 3.7-3.7-1.6-3.7-3.7-3.7zM865.7 426.1a6.7 6.7 0 110-13.4 6.7 6.7 0 010 13.4zm0-10.3c-2 0-3.7 1.6-3.7 3.7s1.6 3.7 3.7 3.7 3.7-1.6 3.7-3.7-1.6-3.7-3.7-3.7z"/></g><g><path class="st1" d="M688.2 95.6c-.1 0-.1 0 0 0-.8 0-1.4-.6-1.5-1.3l-9.3-58.8-8.4 28c-.2.6-.8 1.1-1.4 1.1H647c-.8 0-1.5-.7-1.5-1.5s.7-1.5 1.5-1.5h19.5l10-33.3c.2-.7.9-1.1 1.5-1.1.7 0 1.3.6 1.4 1.3l9 57.3 8.6-40.2c.1-.6.7-1.1 1.3-1.2.7 0 1.3.3 1.5.9l6.5 16.2h19.6c.8 0 1.5.7 1.5 1.5s-.7 1.5-1.5 1.5h-20.6c-.6 0-1.2-.4-1.4-.9l-5-12.6-9.3 43.3c-.1.8-.7 1.3-1.4 1.3z"/></g><g><path class="st1" d="M782.2 602.5a6.7 6.7 0 110-13.4 6.7 6.7 0 010 13.4zm0-10.3c-2 0-3.7 1.6-3.7 3.7s1.6 3.7 3.7 3.7 3.7-1.6 3.7-3.7-1.6-3.7-3.7-3.7z"/><path class="st1" d="M785.9 593.7c-.4 0-.8-.1-1.1-.4-.6-.6-.6-1.5 0-2.1l17-17c.6-.6 1.5-.6 2.1 0s.6 1.5 0 2.1l-17 17c-.3.3-.6.4-1 .4zM756.5 599.1h-6.9c-.8 0-1.5-.7-1.5-1.5s.7-1.5 1.5-1.5h6.9c.8 0 1.5.7 1.5 1.5s-.7 1.5-1.5 1.5zM814.9 599.1H808c-.8 0-1.5-.7-1.5-1.5s.7-1.5 1.5-1.5h6.9c.8 0 1.5.7 1.5 1.5s-.7 1.5-1.5 1.5zM806 587.5c-.6 0-1.1-.3-1.4-.9-.3-.8 0-1.6.8-2l6.3-2.6c.8-.3 1.6 0 2 .8.3.8 0 1.6-.8 2l-6.3 2.6c-.2.1-.4.1-.6.1zM792.1 573.6c-.2 0-.4 0-.6-.1-.8-.3-1.1-1.2-.8-2l2.6-6.3c.3-.8 1.2-1.1 2-.8.8.3 1.1 1.2.8 2l-2.6 6.3c-.3.5-.8.9-1.4.9zM782.2 571.6c-.8 0-1.5-.7-1.5-1.5v-6.9c0-.8.7-1.5 1.5-1.5s1.5.7 1.5 1.5v6.9c0 .8-.6 1.5-1.5 1.5zM772.4 573.6c-.6 0-1.1-.3-1.4-.9l-2.6-6.3c-.3-.8 0-1.6.8-2 .8-.3 1.6 0 2 .8l2.6 6.3c.3.8 0 1.6-.8 2-.2 0-.4.1-.6.1zM764 579.1c-.4 0-.8-.1-1.1-.4l-4.8-4.9c-.6-.6-.6-1.5 0-2.1.6-.6 1.5-.6 2.1 0l4.8 4.9c.6.6.6 1.5 0 2.1-.2.3-.6.4-1 .4zM758.4 587.5c-.2 0-.4 0-.6-.1l-6.3-2.6c-.8-.3-1.1-1.2-.8-2 .3-.8 1.2-1.1 2-.8l6.3 2.6c.8.3 1.1 1.2.8 2-.2.6-.8.9-1.4.9z"/><path class="st1" d="M821.7 612.8h-79c-.8 0-1.5-.7-1.5-1.5v-15.5c0-22.6 18.4-41 41-41s41 18.4 41 41v15.5c0 .8-.6 1.5-1.5 1.5zm-77.5-3h76v-14c0-21-17-38-38-38s-38 17-38 38v14z"/></g><g><path class="st1" d="M188.5 531.8c-5.6 0-10.1-4.5-10.1-10.1s4.5-10.1 10.1-10.1 10.1 4.5 10.1 10.1-4.5 10.1-10.1 10.1zm0-17.2c-3.9 0-7.1 3.2-7.1 7.1s3.2 7.1 7.1 7.1 7.1-3.2 7.1-7.1-3.2-7.1-7.1-7.1zM188.5 562.7c-5.6 0-10.1-4.5-10.1-10.1s4.5-10.1 10.1-10.1 10.1 4.5 10.1 10.1-4.5 10.1-10.1 10.1zm0-17.2c-3.9 0-7.1 3.2-7.1 7.1s3.2 7.1 7.1 7.1 7.1-3.2 7.1-7.1-3.2-7.1-7.1-7.1zM188.5 593.6c-5.6 0-10.1-4.5-10.1-10.1s4.5-10.1 10.1-10.1 10.1 4.5 10.1 10.1-4.5 10.1-10.1 10.1zm0-17.1c-3.9 0-7.1 3.2-7.1 7.1s3.2 7.1 7.1 7.1 7.1-3.2 7.1-7.1-3.2-7.1-7.1-7.1z"/></g><g><path class="st1" d="M683.8 213.9c-.3 0-.6-.1-.8-.2-6.9-4.4-11-11.9-11-20.1 0-13.1 10.7-23.8 23.8-23.8 13.1 0 23.8 10.7 23.8 23.8 0 8.1-4.1 15.6-11 20.1-.7.4-1.6.2-2.1-.5-.4-.7-.2-1.6.5-2.1 6-3.9 9.6-10.4 9.6-17.5 0-11.5-9.3-20.8-20.8-20.8s-20.8 9.3-20.8 20.8c0 7.1 3.6 13.7 9.6 17.5.7.4.9 1.4.5 2.1-.4.5-.8.7-1.3.7z"/><path class="st1" d="M716 251.8h-27.4c-.5 0-1-.2-1.2-.7l-13.8-20.6c-1.2-1.8-1.8-4.9-.6-7.1.7-1.4 2.1-2.1 3.7-2.1 3.7 0 7.2 1.6 12.5 8.7v-33c0-3.6 3-6.6 6.7-6.6s6.7 3 6.7 6.7v19.5l14.2 4.8c4.3 1.4 5.3 6.3 4.3 10.3l-3.5 18.8c-.2.8-.8 1.3-1.6 1.3zm-26.6-3h25.4l3.3-17.7c.6-2.8.2-6.1-2.3-6.9l-15.3-5.2c-.6-.2-1-.8-1-1.4V197c0-2-1.6-3.7-3.7-3.7s-3.7 1.6-3.7 3.6v37.8c0 .7-.4 1.2-1.1 1.4-.6.2-1.3-.1-1.7-.6-6.8-10.5-10.1-11.3-12.7-11.3-.7 0-.9.3-1.1.6-.5.9-.3 2.8.5 4l13.4 20z"/></g><g><path class="st1" d="M1106.6 712.4h-34.3c-.5 0-1-.3-1.3-.7-.3-.4-.3-1-.1-1.5l17.2-34.3c.3-.5.8-.8 1.3-.8s1.1.3 1.3.8l17.2 34.3c.2.5.2 1-.1 1.5-.2.4-.7.7-1.2.7zm-31.9-3h29.5l-14.7-29.5-14.8 29.5z"/><path class="st1" d="M1117.9 700.2c-.4 0-.7-.1-1-.4-.6-.6-.6-1.5 0-2.1 6.8-7.1 10.6-16.4 10.6-26.3 0-21-17-38-38-38s-38 17-38 38c0 9.8 3.7 19.2 10.6 26.3.6.6.6 1.5 0 2.1-.6.6-1.5.6-2.1 0-7.3-7.7-11.4-17.7-11.4-28.3 0-22.6 18.4-41 41-41s41 18.4 41 41c0 10.6-4 20.7-11.4 28.3-.5.3-.9.4-1.3.4z"/><path class="st1" d="M1110.3 687.9c-.3 0-.6-.1-.9-.3-.7-.5-.8-1.4-.3-2.1 3-4.2 4.6-9 4.6-14.1 0-13.4-10.9-24.3-24.3-24.3s-24.3 10.9-24.3 24.3c0 5.1 1.6 10 4.6 14.1.5.7.3 1.6-.3 2.1-.7.5-1.6.3-2.1-.3-3.3-4.7-5.1-10.2-5.1-15.9 0-15 12.2-27.3 27.3-27.3 15 0 27.3 12.2 27.3 27.3 0 5.7-1.8 11.2-5.1 15.9-.4.4-.9.6-1.4.6z"/><path class="st1" d="M1101.4 673.4c-.9 0-1.5-.7-1.5-1.6v-.3-.2c0-5.8-4.7-10.5-10.5-10.5s-10.5 4.7-10.5 10.5v.5c0 .8-.6 1.5-1.4 1.6-.8 0-1.5-.6-1.6-1.4v-.2-.4c0-7.5 6.1-13.5 13.5-13.5 7.5 0 13.5 6.1 13.5 13.5V672c0 .8-.7 1.4-1.5 1.4z"/><path class="st1" d="M1089.4 678.1c-.8 0-1.5-.7-1.5-1.5v-6.9c0-.8.7-1.5 1.5-1.5s1.5.7 1.5 1.5v6.9c0 .8-.7 1.5-1.5 1.5z"/><path transform="rotate(-33.774 1085.144 702.335)" class="st1" d="M1069.7 700.8h30.9v3h-30.9z"/><path transform="rotate(-56.308 1093.777 702.353)" class="st1" d="M1092.2 686.8h3v31h-3z"/><path class="st1" d="M1083.5 687.1h11.9v3h-11.9z"/></g><g><path class="st1" d="M530 197.9h-34.3c-.5 0-1-.2-1.2-.6-.3-.4-.3-.9-.2-1.4l17.2-46.4c.2-.6.8-1 1.4-1s1.2.4 1.4 1l17.2 46.4c.2.5.1 1-.2 1.4-.4.4-.9.6-1.3.6zm-32.2-3h30l-15-40.5-15 40.5z"/><path class="st1" d="M512.8 151.5c-.8 0-1.5-.7-1.5-1.5v-8.6c0-.8.7-1.5 1.5-1.5s1.5.7 1.5 1.5v8.6c0 .9-.7 1.5-1.5 1.5zM507.1 164h11.5v3h-11.5zM512.8 125.8c-.8 0-1.5-.7-1.5-1.5v-6.9c0-.8.7-1.5 1.5-1.5s1.5.7 1.5 1.5v6.9c0 .8-.7 1.5-1.5 1.5zM500.8 130.9c-.4 0-.8-.1-1.1-.4l-5.2-5.2c-.6-.6-.6-1.5 0-2.1.6-.6 1.5-.6 2.1 0l5.2 5.2c.6.6.6 1.5 0 2.1-.3.3-.7.4-1 .4zM495.6 142.9h-6.9c-.8 0-1.5-.7-1.5-1.5s.7-1.5 1.5-1.5h6.9c.8 0 1.5.7 1.5 1.5s-.7 1.5-1.5 1.5zM495.6 160.1c-.4 0-.8-.1-1.1-.4-.6-.6-.6-1.5 0-2.1l5.2-5.2c.6-.6 1.5-.6 2.1 0 .6.6.6 1.5 0 2.1l-5.2 5.2c-.2.3-.6.4-1 .4zM530 160.1c-.4 0-.8-.1-1.1-.4l-5.2-5.2c-.6-.6-.6-1.5 0-2.1.6-.6 1.5-.6 2.1 0l5.2 5.2c.6.6.6 1.5 0 2.1-.3.3-.7.4-1 .4zM524.8 130.9c-.4 0-.8-.1-1.1-.4-.6-.6-.6-1.5 0-2.1l5.2-5.2c.6-.6 1.5-.6 2.1 0 .6.6.6 1.5 0 2.1l-5.2 5.2c-.2.3-.6.4-1 .4zM536.8 142.9H530c-.8 0-1.5-.7-1.5-1.5s.7-1.5 1.5-1.5h6.9c.8 0 1.5.7 1.5 1.5s-.7 1.5-1.6 1.5z"/><path transform="rotate(-47.273 517.156 184.573)" class="st1" d="M515.7 167.2h3V202h-3z"/><path transform="rotate(-42.718 508.398 184.569)" class="st1" d="M491 183.1h34.8v3H491z"/></g><g><path class="st1" d="M759.1 484.6h-79c-.8 0-1.5-.7-1.5-1.5v-5.2c0-6.3 4-12.1 9.9-14.3h.1l21.8-6c.8-.2 1.6.2 1.8 1 .2.8-.2 1.6-1 1.8l-21.7 6c-4.7 1.8-7.9 6.4-7.9 11.4v3.7h76v-3.7c0-5.1-3.2-9.6-7.9-11.4l-21.6-6c-.8-.2-1.3-1-1-1.8s1-1.3 1.8-1l21.7 6h.1c5.9 2.2 9.9 8 9.9 14.3v5.2c0 .8-.6 1.5-1.5 1.5zM716.2 443.3c-.8 0-1.5-.7-1.5-1.5v-.2c-.3-.1-1-.1-1.5-.1h-1c-.5 0-1.2 0-1.5.1v.2c0 .8-.7 1.5-1.5 1.5s-1.5-.7-1.5-1.5c0-1 .3-1.7.8-2.3 1-.9 2.3-.9 3.6-.9h.8c1.3 0 2.7 0 3.6.9.6.6.8 1.3.8 2.3.4.9-.3 1.5-1.1 1.5zM729.9 443.3c-.8 0-1.5-.7-1.5-1.5v-.2c-.3-.1-1-.1-1.5-.1h-1c-.5 0-1.2 0-1.5.1v.2c0 .8-.7 1.5-1.5 1.5s-1.5-.7-1.5-1.5c0-1 .3-1.7.8-2.3 1-.9 2.3-.9 3.6-.9h.8c1.3 0 2.7 0 3.6.9.6.6.8 1.3.8 2.3.4.9-.2 1.5-1.1 1.5z"/><path class="st1" d="M719.6 464c-5.3 0-17.7-6.7-18.6-17.5-2.6-.8-3.9-3.6-3.9-6.4 0-2.8 1.3-5.6 3.9-6.4V430c0-.8.7-1.5 1.5-1.5s1.5.7 1.5 1.5v5c0 .8-.7 1.5-1.5 1.5-1.9 0-2.4 2.4-2.4 3.7s.5 3.7 2.4 3.7c.8 0 1.5.7 1.5 1.5 0 9.1 11 15.8 15.7 15.8s15.7-6.7 15.7-15.8c0-.8.7-1.5 1.5-1.5 1.9 0 2.4-2.4 2.4-3.7s-.5-3.7-2.4-3.7c-.8 0-1.5-.7-1.5-1.5v-5c0-.8.7-1.5 1.5-1.5s1.5.7 1.5 1.5v3.7c2.5.8 3.9 3.6 3.9 6.4 0 2.8-1.3 5.7-3.9 6.4-1.1 10.8-13.4 17.5-18.8 17.5z"/><path class="st1" d="M728.2 474.2H711c-4.6 0-8.4-3.8-8.4-8.4v-5c0-.8.7-1.5 1.5-1.5s1.5.7 1.5 1.5v5c0 3 2.4 5.4 5.4 5.4h17.2c3 0 5.4-2.4 5.4-5.4v-5c0-.8.7-1.5 1.5-1.5s1.5.7 1.5 1.5v5c0 4.7-3.8 8.4-8.4 8.4zM693.9 484.6c-.8 0-1.5-.7-1.5-1.5v-19.4c0-.8.7-1.5 1.5-1.5s1.5.7 1.5 1.5v19.4c0 .8-.7 1.5-1.5 1.5zM745.4 484.6c-.8 0-1.5-.7-1.5-1.5v-19.4c0-.8.7-1.5 1.5-1.5s1.5.7 1.5 1.5v19.4c0 .8-.7 1.5-1.5 1.5zM719.6 434.8c-21.6 0-23.7-9.4-23.8-9.8-.1-.6.2-1.3.7-1.6l4.4-2.6c.4-7.3 5.3-13.1 13.3-15.6.8-.3 1.6.2 1.9 1 .2.8-.2 1.6-1 1.9-7 2.2-11.2 7.3-11.2 13.6 0 .5-.3 1-.7 1.3l-4 2.3c1.2 2 5.7 6.5 20.4 6.5 14.8 0 19.2-4.5 20.4-6.5l-4-2.3c-.5-.3-.7-.8-.7-1.3 0-6.3-4.2-11.4-11.2-13.6-.8-.2-1.2-1.1-1-1.9.2-.8 1.1-1.2 1.9-1 8 2.5 12.9 8.3 13.3 15.6l4.4 2.6c.6.3.8 1 .7 1.6 0 .4-2.2 9.8-23.8 9.8z"/><path class="st1" d="M722.9 426.1h-.1c-.8-.1-1.4-.8-1.4-1.6l1.8-18.9h-7l1.8 18.9c.1.8-.5 1.6-1.4 1.6-.8.1-1.6-.5-1.6-1.4l-1.9-20.5c0-.4.1-.8.4-1.1s.7-.5 1.1-.5h10.3c.4 0 .8.2 1.1.5s.4.7.4 1.1l-1.9 20.5c-.2.8-.9 1.4-1.6 1.4z"/><path class="st1" d="M719.6 426.2c-6.6 0-13.1-1.1-17.8-3.1-.8-.3-1.1-1.2-.8-2 .3-.8 1.2-1.1 2-.8 4.3 1.8 10.3 2.9 16.6 2.9 6.2 0 12.3-1.1 16.6-2.9.8-.3 1.6 0 2 .8.3.8 0 1.6-.8 2-4.6 1.9-11.1 3.1-17.8 3.1z"/></g><g><path class="st1" d="M863.9 914.3h-79c-.8 0-1.5-.7-1.5-1.5v-20.6c0-.8.7-1.5 1.5-1.5h79c.8 0 1.5.7 1.5 1.5v20.6c0 .9-.6 1.5-1.5 1.5zm-77.4-3h76v-17.6h-76v17.6z"/><path class="st1" d="M863.9 893.7c-.3 0-.7-.1-1-.3l-20.2-16.8H806l-20.2 16.8c-.6.5-1.6.4-2.1-.2-.5-.6-.4-1.6.2-2.1l20.6-17.2c.3-.2.6-.3 1-.3h37.8c.4 0 .7.1 1 .3l20.6 17.2c.6.5.7 1.5.2 2.1-.3.3-.7.5-1.2.5zM831.3 905.7c-1.8 0-3.2-1.4-3.2-3.2 0-1.8 1.4-3.2 3.2-3.2 1.8 0 3.2 1.4 3.2 3.2 0 1.8-1.4 3.2-3.2 3.2zm0-3.4c-.1 0-.2.1-.2.2 0 .2.4.2.4 0 0-.1-.1-.2-.2-.2zM841.6 905.7c-1.8 0-3.2-1.4-3.2-3.2 0-1.8 1.4-3.2 3.2-3.2 1.8 0 3.2 1.4 3.2 3.2 0 1.8-1.4 3.2-3.2 3.2zm0-3.4c-.1 0-.2.1-.2.2 0 .2.4.2.4 0 0-.1-.1-.2-.2-.2zM851.9 905.7c-1.8 0-3.2-1.4-3.2-3.2 0-1.8 1.4-3.2 3.2-3.2 1.8 0 3.2 1.4 3.2 3.2 0 1.8-1.4 3.2-3.2 3.2zm0-3.4c-.1 0-.2.1-.2.2 0 .2.4.2.4 0 0-.1-.1-.2-.2-.2zM795.3 907.5c-2.7 0-4.9-2.2-4.9-4.9s2.2-4.9 4.9-4.9 4.9 2.2 4.9 4.9-2.2 4.9-4.9 4.9zm0-6.9c-1.1 0-1.9.9-1.9 1.9s.9 1.9 1.9 1.9 1.9-.9 1.9-1.9-.9-1.9-1.9-1.9zM863.9 934.9h-79c-.8 0-1.5-.7-1.5-1.5v-20.6c0-.8.7-1.5 1.5-1.5s1.5.7 1.5 1.5v19.1h76v-19.1c0-.8.7-1.5 1.5-1.5s1.5.7 1.5 1.5v20.6c0 .9-.6 1.5-1.5 1.5z"/><path class="st1" d="M831.3 926.3c-1.8 0-3.2-1.4-3.2-3.2 0-1.8 1.4-3.2 3.2-3.2 1.8 0 3.2 1.4 3.2 3.2 0 1.8-1.4 3.2-3.2 3.2zm0-3.4c-.1 0-.2.1-.2.2 0 .2.4.2.4 0 0-.1-.1-.2-.2-.2zM841.6 926.3c-1.8 0-3.2-1.4-3.2-3.2 0-1.8 1.4-3.2 3.2-3.2 1.8 0 3.2 1.4 3.2 3.2 0 1.8-1.4 3.2-3.2 3.2zm0-3.4c-.1 0-.2.1-.2.2 0 .2.4.2.4 0 0-.1-.1-.2-.2-.2zM851.9 926.3c-1.8 0-3.2-1.4-3.2-3.2 0-1.8 1.4-3.2 3.2-3.2 1.8 0 3.2 1.4 3.2 3.2 0 1.8-1.4 3.2-3.2 3.2zm0-3.4c-.1 0-.2.1-.2.2 0 .2.4.2.4 0 0-.1-.1-.2-.2-.2zM795.3 928.1c-2.7 0-4.9-2.2-4.9-4.9s2.2-4.9 4.9-4.9 4.9 2.2 4.9 4.9-2.2 4.9-4.9 4.9zm0-6.9c-1.1 0-1.9.9-1.9 1.9s.9 1.9 1.9 1.9 1.9-.9 1.9-1.9-.9-1.9-1.9-1.9zM857.1 955.5h-65.3c-4.6 0-8.4-3.8-8.4-8.4v-13.7c0-.8.7-1.5 1.5-1.5s1.5.7 1.5 1.5v13.7c0 3 2.4 5.4 5.4 5.4h65.3c3 0 5.4-2.4 5.4-5.4v-13.7c0-.8.7-1.5 1.5-1.5s1.5.7 1.5 1.5v13.7c-.1 4.7-3.8 8.4-8.4 8.4z"/><path class="st1" d="M831.3 947c-1.8 0-3.2-1.4-3.2-3.2 0-1.8 1.4-3.2 3.2-3.2 1.8 0 3.2 1.4 3.2 3.2 0 1.7-1.4 3.2-3.2 3.2zm0-3.5c-.1 0-.2.1-.2.2 0 .2.4.2.4 0 0-.1-.1-.2-.2-.2zM841.6 947c-1.8 0-3.2-1.4-3.2-3.2 0-1.8 1.4-3.2 3.2-3.2 1.8 0 3.2 1.4 3.2 3.2 0 1.7-1.4 3.2-3.2 3.2zm0-3.5c-.1 0-.2.1-.2.2 0 .2.4.2.4 0 0-.1-.1-.2-.2-.2zM851.9 947c-1.8 0-3.2-1.4-3.2-3.2 0-1.8 1.4-3.2 3.2-3.2 1.8 0 3.2 1.4 3.2 3.2 0 1.7-1.4 3.2-3.2 3.2zm0-3.5c-.1 0-.2.1-.2.2 0 .2.4.2.4 0 0-.1-.1-.2-.2-.2zM795.3 948.7c-2.7 0-4.9-2.2-4.9-4.9s2.2-4.9 4.9-4.9 4.9 2.2 4.9 4.9-2.2 4.9-4.9 4.9zm0-6.9c-1.1 0-1.9.9-1.9 1.9s.9 1.9 1.9 1.9 1.9-.9 1.9-1.9-.9-1.9-1.9-1.9z"/></g><g><path class="st1" d="M116.3 384.5H51c-4.6 0-8.4-3.8-8.4-8.4v-34.3c0-4.6 3.8-8.4 8.4-8.4h65.3c4.6 0 8.4 3.8 8.4 8.4v34.3c-.1 4.7-3.8 8.4-8.4 8.4zm-65.3-48c-3 0-5.4 2.4-5.4 5.4v34.3c0 3 2.4 5.4 5.4 5.4h65.3c3 0 5.4-2.4 5.4-5.4v-34.3c0-3-2.4-5.4-5.4-5.4H51z"/><path class="st1" d="M111.1 363.9h-55c-3.7 0-6.7-3-6.7-6.7V347c0-3.7 3-6.7 6.7-6.7h55c3.7 0 6.7 3 6.7 6.7v10.3c0 3.6-3 6.6-6.7 6.6zm-54.9-20.6c-2 0-3.7 1.6-3.7 3.7v10.3c0 2 1.6 3.7 3.7 3.7h55c2 0 3.7-1.6 3.7-3.7V347c0-2-1.6-3.7-3.7-3.7h-55zM57.9 377.7c-2.7 0-4.9-2.2-4.9-4.9s2.2-4.9 4.9-4.9 4.9 2.2 4.9 4.9-2.2 4.9-4.9 4.9zm0-6.9c-1.1 0-1.9.9-1.9 1.9s.9 1.9 1.9 1.9 1.9-.9 1.9-1.9-.9-1.9-1.9-1.9zM109.4 377.7c-2.7 0-4.9-2.2-4.9-4.9s2.2-4.9 4.9-4.9 4.9 2.2 4.9 4.9-2.2 4.9-4.9 4.9zm0-6.9c-1.1 0-1.9.9-1.9 1.9s.9 1.9 1.9 1.9 1.9-.9 1.9-1.9-.8-1.9-1.9-1.9zM95.7 377.7h-24c-2.7 0-4.9-2.2-4.9-4.9s2.2-4.9 4.9-4.9h24c2.7 0 4.9 2.2 4.9 4.9s-2.2 4.9-4.9 4.9zm-24.1-6.9c-1.1 0-1.9.9-1.9 1.9s.9 1.9 1.9 1.9h24c1.1 0 1.9-.9 1.9-1.9s-.9-1.9-1.9-1.9h-24z"/><path class="st1" d="M116.3 350.2H51c-.8 0-1.5-.7-1.5-1.5s.7-1.5 1.5-1.5h65.3c.8 0 1.5.7 1.5 1.5s-.7 1.5-1.5 1.5zM116.3 357.1H51c-.8 0-1.5-.7-1.5-1.5s.7-1.5 1.5-1.5h65.3c.8 0 1.5.7 1.5 1.5s-.7 1.5-1.5 1.5zM88.8 377.7c-.8 0-1.5-.7-1.5-1.5v-6.9c0-.8.7-1.5 1.5-1.5s1.5.7 1.5 1.5v6.9c0 .8-.7 1.5-1.5 1.5zM51 336.5c-.6 0-1.1-.3-1.3-.8-.4-.7-.1-1.6.7-2l55-27.5c.7-.4 1.6-.1 2 .7.4.7.1 1.6-.7 2l-55 27.5c-.2 0-.5.1-.7.1zM61.3 388c-.8 0-1.5-.7-1.5-1.5V383c0-.8.7-1.5 1.5-1.5s1.5.7 1.5 1.5v3.4c0 .9-.7 1.6-1.5 1.6zM106 388c-.8 0-1.5-.7-1.5-1.5V383c0-.8.7-1.5 1.5-1.5s1.5.7 1.5 1.5v3.4c0 .9-.7 1.6-1.5 1.6z"/></g><g><path class="st1" d="M450.6 794.7c-.4 0-.8-.2-1.1-.4l-23.6-23.6h-11.4c-3.7 0-6.7-3-6.7-6.7v-10.3c0-3.7 3-6.7 6.7-6.7h11.4l23.6-23.6c.4-.4 1.1-.6 1.6-.3.6.2.9.8.9 1.4v68.7c0 .6-.4 1.2-.9 1.4-.1.1-.3.1-.5.1zm-36.1-44.6c-2 0-3.7 1.6-3.7 3.7V764c0 2 1.6 3.7 3.7 3.7h12c.4 0 .8.2 1.1.4l21.5 21.5v-61.5l-21.5 21.5c-.3.3-.7.4-1.1.4h-12zM476.4 787.9c-.4 0-.8-.2-1.1-.5-.5-.6-.5-1.6.1-2.1 7.3-6.4 11.5-16 11.5-26.4 0-10.3-4.2-19.9-11.5-26.3-.6-.5-.7-1.5-.1-2.1.5-.6 1.5-.7 2.1-.1 8 7 12.5 17.4 12.5 28.6 0 11.2-4.6 21.6-12.5 28.6-.3.1-.7.3-1 .3z"/><path class="st1" d="M467.8 781c-.4 0-.9-.2-1.2-.5-.5-.6-.4-1.6.2-2.1 6.2-5.2 9.7-12.1 9.7-19.5s-3.4-14.3-9.7-19.4c-.6-.5-.7-1.5-.2-2.1.5-.6 1.5-.7 2.1-.2 6.9 5.7 10.8 13.5 10.8 21.7 0 8.3-3.8 16-10.8 21.8-.3.2-.6.3-.9.3z"/><path class="st1" d="M460.9 772.4c-.5 0-.9-.2-1.2-.6-.5-.7-.3-1.6.3-2.1 4-2.9 6.3-6.8 6.3-10.8 0-4-2.2-7.9-6.3-10.8-.7-.5-.8-1.4-.3-2.1.5-.7 1.4-.8 2.1-.3 4.8 3.5 7.5 8.2 7.5 13.2s-2.7 9.7-7.5 13.2c-.3.2-.6.3-.9.3z"/></g><g><path class="st1" d="M1018.5 285.8h-58.4c-4.6 0-8.4-3.8-8.4-8.4v-30.9c0-4.6 3.8-8.4 8.4-8.4h58.4c4.6 0 8.4 3.8 8.4 8.4v30.9c0 4.7-3.7 8.4-8.4 8.4zm-58.3-44.6c-3 0-5.4 2.4-5.4 5.4v30.9c0 3 2.4 5.4 5.4 5.4h58.4c3 0 5.4-2.4 5.4-5.4v-30.9c0-3-2.4-5.4-5.4-5.4h-58.4z"/><path class="st1" d="M980.8 241.2h-24c-.8 0-1.5-.7-1.5-1.5v-30.9c0-.8.7-1.5 1.5-1.5h24c.8 0 1.5.7 1.5 1.5v30.9c0 .8-.7 1.5-1.5 1.5zm-22.6-3h21v-27.9h-21v27.9z"/><path class="st1" d="M968.7 236c-4.6 0-8.4-3.8-8.4-8.4s3.8-8.4 8.4-8.4 8.4 3.8 8.4 8.4-3.7 8.4-8.4 8.4zm0-13.7c-3 0-5.4 2.4-5.4 5.4s2.4 5.4 5.4 5.4 5.4-2.4 5.4-5.4-2.4-5.4-5.4-5.4zM1022 241.2h-24c-.8 0-1.5-.7-1.5-1.5v-30.9c0-.8.7-1.5 1.5-1.5h24c.8 0 1.5.7 1.5 1.5v30.9c0 .8-.7 1.5-1.5 1.5zm-22.6-3h21v-27.9h-21v27.9z"/><path class="st1" d="M1010 236c-4.6 0-8.4-3.8-8.4-8.4s3.8-8.4 8.4-8.4 8.4 3.8 8.4 8.4-3.8 8.4-8.4 8.4zm0-13.7c-3 0-5.4 2.4-5.4 5.4s2.4 5.4 5.4 5.4 5.4-2.4 5.4-5.4-2.5-5.4-5.4-5.4zM965.3 214.1h6.9v3h-6.9zM1006.5 214.1h6.9v3h-6.9zM1018.5 265.2h-58.4c-.8 0-1.5-.7-1.5-1.5v-17.2c0-.8.7-1.5 1.5-1.5h58.4c.8 0 1.5.7 1.5 1.5v17.2c0 .9-.6 1.5-1.5 1.5zm-56.8-3h55.4V248h-55.4v14.2zM968.7 279c-2.7 0-4.9-2.2-4.9-4.9s2.2-4.9 4.9-4.9 4.9 2.2 4.9 4.9-2.1 4.9-4.9 4.9zm0-6.9c-1.1 0-1.9.9-1.9 1.9s.9 1.9 1.9 1.9 1.9-.9 1.9-1.9-.8-1.9-1.9-1.9zM985.9 279c-2.7 0-4.9-2.2-4.9-4.9s2.2-4.9 4.9-4.9 4.9 2.2 4.9 4.9-2.2 4.9-4.9 4.9zm0-6.9c-1.1 0-1.9.9-1.9 1.9s.9 1.9 1.9 1.9 1.9-.9 1.9-1.9-.8-1.9-1.9-1.9zM1018.4 272.1h-13.6c-.8 0-1.5-.7-1.5-1.5s.7-1.5 1.5-1.5h13.6c.8 0 1.5.7 1.5 1.5s-.6 1.5-1.5 1.5zM1018.4 279h-13.6c-.8 0-1.5-.7-1.5-1.5s.7-1.5 1.5-1.5h13.6c.8 0 1.5.7 1.5 1.5s-.6 1.5-1.5 1.5z"/><path class="st1" d="M965.5 255.1h3v8.6h-3zM972.4 251.7h3v12h-3zM979.3 255.1h3v8.6h-3zM986.1 255.1h3v8.6h-3zM993 251.7h3v12h-3zM999.9 255.1h3v8.6h-3z"/></g><g><path class="st1" d="M1191.5 896.3c-9.3 0-17-7.6-17-17 0-6.8-2.9-10-6.2-13.6-3.5-3.9-7.5-8.2-7.5-17.3 0-13.1 10.7-23.8 23.8-23.8 13.1 0 23.8 10.7 23.8 23.8 0 .8-.7 1.5-1.5 1.5s-1.5-.7-1.5-1.5c0-11.5-9.3-20.8-20.8-20.8s-20.8 9.3-20.8 20.8c0 7.9 3.3 11.5 6.7 15.3 3.5 3.8 7 7.7 7 15.7 0 7.7 6.3 14 14 14s14-6.3 14-14c0-.8.7-1.5 1.5-1.5s1.5.7 1.5 1.5c0 9.3-7.6 16.9-17 16.9zM1146.4 881.3c-.4 0-.8-.1-1.1-.4-7.7-7.7-12-18-12-29s4.3-21.2 12-29c.6-.6 1.5-.6 2.1 0s.6 1.5 0 2.1c-7.2 7.2-11.1 16.7-11.1 26.9s4 19.7 11.1 26.9c.6.6.6 1.5 0 2.1-.2.2-.6.4-1 .4z"/><path class="st1" d="M1156.2 871.5c-.4 0-.8-.1-1.1-.4-5.2-5.1-8-12-8-19.3s2.8-14.1 8-19.3c.6-.6 1.5-.6 2.1 0 .6.6.6 1.5 0 2.1-4.6 4.6-7.1 10.7-7.1 17.2s2.5 12.6 7.1 17.2c.6.6.6 1.5 0 2.1-.3.3-.7.4-1 .4zM1188.1 870.5c-4.6 0-8.4-3.8-8.4-8.4 0-2.3-1.1-3.3-2.6-4.8-1.9-1.8-4.2-4-4.2-9 0-6.5 5.3-11.8 11.8-11.8s11.8 5.3 11.8 11.8c0 .8-.7 1.5-1.5 1.5s-1.5-.7-1.5-1.5c0-4.9-3.9-8.8-8.8-8.8s-8.8 3.9-8.8 8.8c0 3.7 1.5 5.1 3.3 6.8 1.7 1.6 3.6 3.4 3.6 6.9 0 3 2.4 5.4 5.4 5.4s5.4-2.4 5.4-5.4c0-.8.7-1.5 1.5-1.5s1.5.7 1.5 1.5c-.1 4.7-3.9 8.5-8.5 8.5z"/></g><g><path class="st1" d="M236.4 869.7h-65.3c-4.6 0-8.4-3.8-8.4-8.4v-17.2c0-4.6 3.8-8.4 8.4-8.4h65.3c4.6 0 8.4 3.8 8.4 8.4v17.2c0 4.6-3.8 8.4-8.4 8.4zm-65.2-30.9c-3 0-5.4 2.4-5.4 5.4v17.2c0 3 2.4 5.4 5.4 5.4h65.3c3 0 5.4-2.4 5.4-5.4v-17.2c0-3-2.4-5.4-5.4-5.4h-65.3zM207.2 828.5h-10.3c-6 0-10.1-4.7-10.1-11.8v-17.2c0-7.1 4.1-11.8 10.1-11.8h10.3c6 0 10.1 4.7 10.1 11.8v17.2c0 7-4.1 11.8-10.1 11.8zm-10.3-37.8c-5.2 0-7.1 4.5-7.1 8.8v17.2c0 4.3 1.9 8.8 7.1 8.8h10.3c5.2 0 7.1-4.5 7.1-8.8v-17.2c0-4.3-1.9-8.8-7.1-8.8h-10.3z"/><path class="st1" d="M202.1 838.8c-.8 0-1.5-.7-1.5-1.5v-18.9c0-.8.7-1.5 1.5-1.5s1.5.7 1.5 1.5v18.9c0 .8-.7 1.5-1.5 1.5zM198.6 804.4h-10.3c-.8 0-1.5-.7-1.5-1.5s.7-1.5 1.5-1.5h10.3c.8 0 1.5.7 1.5 1.5s-.6 1.5-1.5 1.5zM198.6 811.3h-10.3c-.8 0-1.5-.7-1.5-1.5s.7-1.5 1.5-1.5h10.3c.8 0 1.5.7 1.5 1.5s-.6 1.5-1.5 1.5zM215.8 804.4h-6.9c-.8 0-1.5-.7-1.5-1.5s.7-1.5 1.5-1.5h6.9c.8 0 1.5.7 1.5 1.5s-.7 1.5-1.5 1.5zM215.8 811.3h-6.9c-.8 0-1.5-.7-1.5-1.5s.7-1.5 1.5-1.5h6.9c.8 0 1.5.7 1.5 1.5s-.7 1.5-1.5 1.5zM195.2 859.4c-.5 0-1-.2-1.2-.7l-4.1-6.2v5.3c0 .8-.7 1.5-1.5 1.5s-1.5-.7-1.5-1.5v-10.3c0-.7.4-1.2 1.1-1.4.6-.2 1.3.1 1.7.6l4.1 6.2v-5.3c0-.8.7-1.5 1.5-1.5s1.5.7 1.5 1.5v10.3c0 .7-.4 1.2-1.1 1.4-.2.1-.4.1-.5.1zM178 859.4c-4.9 0-4.9-3.4-4.9-6.7s0-6.7 4.9-6.7 4.9 3.4 4.9 6.7.1 6.7-4.9 6.7zm0-10.3c-1.8 0-1.9 0-1.9 3.7s.1 3.7 1.9 3.7 1.9 0 1.9-3.7c.1-3.7-.1-3.7-1.9-3.7zM219.2 859.4c-.8 0-1.5-.7-1.5-1.5v-10.3c0-.8.7-1.5 1.5-1.5s1.5.7 1.5 1.5v10.3c0 .8-.6 1.5-1.5 1.5zM213 859.4c-.6 0-1.2-.4-1.4-1l-2.4-6.4-2.4 6.4c-.3.8-1.1 1.2-1.9.9-.8-.3-1.2-1.1-.9-1.9l3.8-10.3c.2-.6.8-1 1.4-1 .6 0 1.2.4 1.4 1l3.8 10.3c.3.8-.1 1.6-.9 1.9-.1.1-.3.1-.5.1z"/><path class="st1" d="M212.4 857.7h-6.3c-.8 0-1.5-.7-1.5-1.5s.7-1.5 1.5-1.5h6.3c.8 0 1.5.7 1.5 1.5s-.7 1.5-1.5 1.5z"/><g><path class="st1" d="M226.1 859.4c-.8 0-1.5-.7-1.5-1.5v-10.3c0-.8.7-1.5 1.5-1.5h2.7c1.6 0 2.5 0 3.3.4 1.4.7 1.4 2.2 1.4 2.9 0 3.2-1.6 4.8-4.7 4.8h-1.2v3.7c0 .8-.7 1.5-1.5 1.5zm1.5-8.2h1.2c1.5 0 1.7-.4 1.7-1.8v-.3H227.6v2.1z"/><path class="st1" d="M232 859.4c-.5 0-1-.3-1.3-.7l-3.2-5.2c-.4-.7-.2-1.6.5-2.1.7-.4 1.6-.2 2.1.5l3.2 5.2c.4.7.2 1.6-.5 2.1-.2.1-.5.2-.8.2z"/></g></g><g><path class="st1" d="M604.5 885.1c-22.6 0-41-18.4-41-41s18.4-41 41-41 41 18.4 41 41-18.4 41-41 41zm0-79c-21 0-38 17-38 38s17 38 38 38 38-17 38-38-17-38-38-38z"/><path class="st1" d="M592.5 861c-.3 0-.5-.1-.8-.2-.4-.3-.7-.8-.7-1.3v-30.9c0-.5.3-1 .7-1.3.4-.3 1-.3 1.5-.1l30.9 15.5c.5.3.8.8.8 1.3s-.3 1.1-.8 1.3l-30.9 15.5c-.2.2-.5.2-.7.2zm1.5-29.9v26.1l26.1-13-26.1-13.1z"/></g><g><path class="st1" d="M998 1063.6h-17.2c-.8 0-1.5-.7-1.5-1.5s.7-1.5 1.5-1.5H998c.8 0 1.5.7 1.5 1.5s-.6 1.5-1.5 1.5zM998 1056.8h-17.2c-.8 0-1.5-.7-1.5-1.5s.7-1.5 1.5-1.5H998c.8 0 1.5.7 1.5 1.5s-.6 1.5-1.5 1.5zM998 1049.9h-17.2c-.8 0-1.5-.7-1.5-1.5s.7-1.5 1.5-1.5H998c.8 0 1.5.7 1.5 1.5s-.6 1.5-1.5 1.5zM998 1043h-17.2c-.8 0-1.5-.7-1.5-1.5s.7-1.5 1.5-1.5H998c.8 0 1.5.7 1.5 1.5s-.6 1.5-1.5 1.5zM998 1036.2h-17.2c-.8 0-1.5-.7-1.5-1.5s.7-1.5 1.5-1.5H998c.8 0 1.5.7 1.5 1.5s-.6 1.5-1.5 1.5zM1022.1 1063.6h-17.2c-.8 0-1.5-.7-1.5-1.5s.7-1.5 1.5-1.5h17.2c.8 0 1.5.7 1.5 1.5s-.7 1.5-1.5 1.5zM1022.1 1056.8h-17.2c-.8 0-1.5-.7-1.5-1.5s.7-1.5 1.5-1.5h17.2c.8 0 1.5.7 1.5 1.5s-.7 1.5-1.5 1.5zM1022.1 1049.9h-17.2c-.8 0-1.5-.7-1.5-1.5s.7-1.5 1.5-1.5h17.2c.8 0 1.5.7 1.5 1.5s-.7 1.5-1.5 1.5zM1022.1 1043h-17.2c-.8 0-1.5-.7-1.5-1.5s.7-1.5 1.5-1.5h17.2c.8 0 1.5.7 1.5 1.5s-.7 1.5-1.5 1.5zM1022.1 1036.2h-17.2c-.8 0-1.5-.7-1.5-1.5s.7-1.5 1.5-1.5h17.2c.8 0 1.5.7 1.5 1.5s-.7 1.5-1.5 1.5zM1022.1 1029.3h-17.2c-.8 0-1.5-.7-1.5-1.5s.7-1.5 1.5-1.5h17.2c.8 0 1.5.7 1.5 1.5s-.7 1.5-1.5 1.5zM1022.1 1022.4h-17.2c-.8 0-1.5-.7-1.5-1.5s.7-1.5 1.5-1.5h17.2c.8 0 1.5.7 1.5 1.5s-.7 1.5-1.5 1.5zM1022.1 1015.5h-17.2c-.8 0-1.5-.7-1.5-1.5s.7-1.5 1.5-1.5h17.2c.8 0 1.5.7 1.5 1.5s-.7 1.5-1.5 1.5zM1022.1 1008.7h-17.2c-.8 0-1.5-.7-1.5-1.5s.7-1.5 1.5-1.5h17.2c.8 0 1.5.7 1.5 1.5s-.7 1.5-1.5 1.5zM1022.1 1001.8h-17.2c-.8 0-1.5-.7-1.5-1.5s.7-1.5 1.5-1.5h17.2c.8 0 1.5.7 1.5 1.5s-.7 1.5-1.5 1.5zM1046.1 1063.6H1029c-.8 0-1.5-.7-1.5-1.5s.7-1.5 1.5-1.5h17.2c.8 0 1.5.7 1.5 1.5s-.7 1.5-1.6 1.5zM1046.1 1056.8H1029c-.8 0-1.5-.7-1.5-1.5s.7-1.5 1.5-1.5h17.2c.8 0 1.5.7 1.5 1.5s-.7 1.5-1.6 1.5zM1046.1 1049.9H1029c-.8 0-1.5-.7-1.5-1.5s.7-1.5 1.5-1.5h17.2c.8 0 1.5.7 1.5 1.5s-.7 1.5-1.6 1.5z"/></g><g><path class="st1" d="M533.6 1220.3c-.8 0-1.5-.7-1.5-1.5V1157c0-.8.7-1.5 1.5-1.5s1.5.7 1.5 1.5v61.8c0 .9-.6 1.5-1.5 1.5zM543.9 1223.8c-.8 0-1.5-.7-1.5-1.5v-75.6c0-.8.7-1.5 1.5-1.5s1.5.7 1.5 1.5v75.6c0 .8-.6 1.5-1.5 1.5zM554.2 1216.9c-.8 0-1.5-.7-1.5-1.5v-61.8c0-.8.7-1.5 1.5-1.5s1.5.7 1.5 1.5v61.8c0 .8-.6 1.5-1.5 1.5zM564.5 1206.6c-.8 0-1.5-.7-1.5-1.5v-34.3c0-.8.7-1.5 1.5-1.5s1.5.7 1.5 1.5v34.3c0 .8-.6 1.5-1.5 1.5zM523.3 1206.6c-.8 0-1.5-.7-1.5-1.5v-34.3c0-.8.7-1.5 1.5-1.5s1.5.7 1.5 1.5v34.3c0 .8-.7 1.5-1.5 1.5zM574.8 1203.2c-.8 0-1.5-.7-1.5-1.5v-27.5c0-.8.7-1.5 1.5-1.5s1.5.7 1.5 1.5v27.5c0 .8-.6 1.5-1.5 1.5zM513 1203.2c-.8 0-1.5-.7-1.5-1.5v-27.5c0-.8.7-1.5 1.5-1.5s1.5.7 1.5 1.5v27.5c0 .8-.7 1.5-1.5 1.5zM506.1 1192.9c-.8 0-1.5-.7-1.5-1.5v-6.9c0-.8.7-1.5 1.5-1.5s1.5.7 1.5 1.5v6.9c0 .8-.6 1.5-1.5 1.5zM581.7 1192.9c-.8 0-1.5-.7-1.5-1.5v-6.9c0-.8.7-1.5 1.5-1.5s1.5.7 1.5 1.5v6.9c0 .8-.7 1.5-1.5 1.5z"/></g><g><path class="st1" d="M457.1 946.1c-.4 0-.8-.2-1.1-.4l-9.7-9.7c-.6-.6-.6-1.5 0-2.1l14.6-14.6c.6-.6 1.6-.6 2.1 0l9.7 9.7c.6.6.6 1.5 0 2.1l-14.6 14.6c-.2.2-.6.4-1 .4zm-7.5-11.3l7.6 7.6 12.4-12.5-7.6-7.6-12.4 12.5zM411 992.2c-.4 0-.8-.2-1.1-.4l-9.7-9.7c-.3-.3-.4-.7-.4-1.1 0-.4.2-.8.4-1.1l14.6-14.6c.6-.6 1.5-.6 2.1 0l9.7 9.7c.3.3.4.7.4 1.1 0 .4-.2.8-.4 1.1L412 991.8c-.2.2-.6.4-1 .4zm-7.6-11.2l7.6 7.6 12.5-12.5-7.6-7.6-12.5 12.5zM428 970.3c-.4 0-.8-.1-1.1-.4-6.6-6.6-6.6-17.4 0-24 6.6-6.6 17.4-6.6 24 0 .3.3.4.7.4 1.1 0 .4-.2.8-.4 1.1L429 970c-.2.2-.6.3-1 .3zm1.1-22.3c-5.1 5.1-5.4 13.1-1 18.6l19.6-19.6c-5.5-4.4-13.6-4-18.6 1z"/><path class="st1" d="M439.3 966.4c-2.2 0-4.5-.9-6.2-2.6-.6-.6-.6-1.5 0-2.1s1.5-.6 2.1 0c2.2 2.2 5.7 2.3 7.8.2 2-2.1 2-5.7-.2-7.9-.6-.6-.6-1.5 0-2.1.6-.6 1.5-.6 2.1 0 3.3 3.3 3.4 8.9.2 12.1-1.6 1.6-3.7 2.4-5.8 2.4zM439.2 976.8c-.9 0-1.8-.1-2.7-.2-.8-.1-1.4-.9-1.3-1.7s.9-1.4 1.7-1.3c5 .7 9.8-.9 13.3-4.5 3.5-3.5 5.1-8.4 4.4-13.4-.1-.8.4-1.6 1.3-1.7.8-.1 1.6.4 1.7 1.3.9 5.9-1 11.7-5.2 15.9-3.6 3.7-8.3 5.6-13.2 5.6z"/><path class="st1" d="M439.2 987.1c-1.1 0-2.2-.1-3.3-.2-.8-.1-1.4-.8-1.3-1.7.1-.8.8-1.4 1.7-1.3 7.9.9 15.7-1.8 21.3-7.5 5.6-5.6 8.3-13.4 7.4-21.2-.1-.8.5-1.6 1.3-1.7.8-.1 1.6.5 1.7 1.3 1 8.8-2.1 17.4-8.3 23.7-5.6 5.6-12.9 8.6-20.5 8.6z"/><path class="st1" d="M439.3 997.4c-2.2 0-4.4-.2-6.7-.6-.8-.1-1.4-.9-1.2-1.7.1-.8.9-1.4 1.7-1.2 11.8 2 23.4-1.8 31.8-10.2 8.4-8.5 12-20.1 10-31.9-.1-.8.4-1.6 1.2-1.7.8-.1 1.6.4 1.7 1.2 2.2 12.7-1.7 25.3-10.8 34.5-7.5 7.5-17.3 11.6-27.7 11.6z"/></g><g><path class="st1" d="M119.6 978.5c-.8 0-1.5-.7-1.5-1.5v-79c0-.8.7-1.5 1.5-1.5s1.5.7 1.5 1.5v79c0 .8-.6 1.5-1.5 1.5zM47.5 971.6c-.8 0-1.5-.7-1.5-1.5v-65.3c0-.8.7-1.5 1.5-1.5s1.5.7 1.5 1.5v65.3c0 .9-.7 1.5-1.5 1.5zM57.8 959.6c-.8 0-1.5-.7-1.5-1.5v-41.2c0-.8.7-1.5 1.5-1.5s1.5.7 1.5 1.5v41.2c0 .8-.7 1.5-1.5 1.5zM68.1 968.2c-.8 0-1.5-.7-1.5-1.5v-58.4c0-.8.7-1.5 1.5-1.5s1.5.7 1.5 1.5v58.4c0 .8-.7 1.5-1.5 1.5zM78.4 978.5c-.8 0-1.5-.7-1.5-1.5v-79c0-.8.7-1.5 1.5-1.5s1.5.7 1.5 1.5v79c0 .8-.7 1.5-1.5 1.5zM88.7 964.8c-.8 0-1.5-.7-1.5-1.5v-51.5c0-.8.7-1.5 1.5-1.5s1.5.7 1.5 1.5v51.5c0 .8-.7 1.5-1.5 1.5zM99 956.2c-.8 0-1.5-.7-1.5-1.5v-34.3c0-.8.7-1.5 1.5-1.5s1.5.7 1.5 1.5v34.3c0 .8-.7 1.5-1.5 1.5zM109.3 964.8c-.8 0-1.5-.7-1.5-1.5v-51.5c0-.8.7-1.5 1.5-1.5s1.5.7 1.5 1.5v51.5c0 .8-.6 1.5-1.5 1.5z"/></g><g><path class="st1" d="M263.3 1097.7c-1.8 0-3.5-.7-4.7-2-1.3-1.3-1.9-2.9-1.9-4.7 0-1.8.7-3.4 1.9-4.7l22.6-22.6c.6-.6 1.6-.6 2.1 0l7.3 7.3c.6.6.6 1.5 0 2.1l-22.6 22.6c-1.3 1.3-2.9 2-4.7 2zm18.9-30.8l-21.5 21.5c-.7.7-1.1 1.6-1.1 2.6s.4 1.9 1.1 2.6c.7.7 1.6 1.1 2.6 1.1s1.9-.4 2.6-1.1l21.5-21.5-5.2-5.2z"/><path class="st1" d="M293.1 1077.2c-.4 0-.8-.1-1.1-.4l-14.6-14.6c-.6-.6-.6-1.5 0-2.1.6-.6 1.5-.6 2.1 0l14.6 14.6c.6.6.6 1.5 0 2.1-.2.3-.6.4-1 .4z"/><path transform="rotate(-45.001 304.158 1050.14)" class="st1" d="M278.2 1048.6h51.9v3h-51.9z"/><path class="st1" d="M326.6 1037.3c-.4 0-.8-.2-1.1-.4l-8.5-8.5c-.3-.3-.5-.8-.4-1.2 0-.4.3-.8.6-1.1l12.2-8.4c.6-.4 1.4-.3 1.9.2l5.2 5.2c.5.5.6 1.4.1 2l-8.8 11.8c-.3.3-.7.6-1.1.6 0-.2-.1-.2-.1-.2zm-6.2-9.7l6 6 7-9.4-3.3-3.3-9.7 6.7zM287.2 1059.3l-12.2-12.1c-5.5 1.9-11.6.6-15.8-3.6-4.4-4.4-5.7-10.9-3.3-16.6.2-.5.6-.8 1.1-.9.5-.1 1 0 1.3.4l6.7 6.4h5.3v-5l-6.5-6.8c-.3-.4-.5-.9-.4-1.3s.4-.9.9-1.1c5.7-2.4 12-1.2 16.5 3.3 4.2 4.2 5.5 10.3 3.6 15.8l12.2 12.2-2.1 2.1-12.9-12.9c-.4-.4-.6-1.1-.3-1.6 2-4.6.9-9.9-2.6-13.4-3-3-7.1-4.2-11-3.3l5.3 5.5c.3.3.4.7.4 1v7.1c0 .8-.7 1.5-1.5 1.5h-7.4c-.4 0-.8-.1-1-.4l-5.4-5.1c-.9 4 .3 8.2 3.3 11.1 3.5 3.5 8.8 4.5 13.4 2.5.6-.2 1.2-.1 1.6.3l12.9 12.8-2.1 2.1zM321 1098.9c-4 0-7.8-1.5-10.7-4.5-4.2-4.2-5.5-10.3-3.6-15.8l-12.2-12.2 2.1-2.1 12.9 12.9c.4.4.6 1.1.3 1.6-2 4.6-.9 9.9 2.6 13.4 3 3 7.2 4.2 11.3 3.3l-5.3-5.5c-.3-.3-.4-.7-.4-1v-6.9c0-.8.7-1.5 1.5-1.5h6.9c.4 0 .7.1 1 .4l5.7 5.2c.9-4-.3-8.3-3.3-11.3-3.5-3.5-8.8-4.6-13.4-2.6-.6.2-1.2.1-1.6-.3l-12.9-12.9 2.1-2.1 12.2 12.2c5.5-1.9 11.6-.5 15.8 3.6 4.4 4.4 5.7 11 3.3 16.7-.2.4-.6.8-1.1.9-.5.1-1 0-1.3-.4l-7-6.4h-4.8v4.8l6.6 6.8c.3.4.5.9.4 1.3-.1.5-.4.9-.9 1.1-2.1.9-4.2 1.3-6.2 1.3z"/></g><g><path class="st1" d="M944.4 858.5c-2.2 0-4.3-.9-5.9-2.5-1.6-1.6-2.4-3.7-2.4-5.9s.9-4.3 2.5-5.9l33-33c-4.1-9-2.2-19.6 4.9-26.7 7.2-7.2 18.7-9 27.8-4.4.4.2.7.6.8 1.1.1.5-.1.9-.4 1.3l-10.7 11v7.5h7l10.9-10.9c.3-.3.8-.5 1.3-.4.5.1.9.4 1.1.8 4.7 9.2 3 20.4-4.4 27.7-7.1 7.1-17.7 8.9-26.7 4.8l-33 33c-1.4 1.6-3.5 2.5-5.8 2.5zm49-77.9c-5.5 0-10.9 2.1-14.9 6.1-6.4 6.4-8 16.2-3.9 24.2.3.6.2 1.3-.3 1.7l-33.8 33.7c-1 1-1.6 2.4-1.6 3.8s.6 2.8 1.6 3.8 2.4 1.6 3.8 1.6 2.8-.6 3.8-1.6l33.7-33.7c.5-.5 1.2-.6 1.7-.3 8.1 4.1 17.8 2.6 24.2-3.8 5.9-5.9 7.7-14.7 4.7-22.3l-9.8 9.8c-.3.3-.7.4-1.1.4h-9.2c-.8 0-1.5-.7-1.5-1.5v-9.6c0-.4.2-.8.4-1l9.6-9.8c-2.2-1.1-4.8-1.5-7.4-1.5z"/></g><g><path class="st1" d="M343.7 62.4c-4.6 0-8.4-3.8-8.4-8.4V26.5c0-4.6 3.8-8.4 8.4-8.4s8.4 3.8 8.4 8.4V54c0 4.6-3.8 8.4-8.4 8.4zm0-41.2c-3 0-5.4 2.4-5.4 5.4V54c0 3 2.4 5.4 5.4 5.4s5.4-2.4 5.4-5.4V26.5c0-2.9-2.5-5.3-5.4-5.3zM398.6 41.8h-41.2c-.8 0-1.5-.7-1.5-1.5s.7-1.5 1.5-1.5h41.2c.8 0 1.5.7 1.5 1.5s-.6 1.5-1.5 1.5zM329.9 41.8h-10.3c-.8 0-1.5-.7-1.5-1.5s.7-1.5 1.5-1.5h10.3c.8 0 1.5.7 1.5 1.5s-.6 1.5-1.5 1.5z"/></g><g><path class="st1" d="M626.5 689.3H599c-4.6 0-8.4-3.8-8.4-8.4s3.8-8.4 8.4-8.4h27.5c4.6 0 8.4 3.8 8.4 8.4s-3.8 8.4-8.4 8.4zM599 675.6c-3 0-5.4 2.4-5.4 5.4s2.4 5.4 5.4 5.4h27.5c3 0 5.4-2.4 5.4-5.4s-2.4-5.4-5.4-5.4H599zM612.7 668.8c-.8 0-1.5-.7-1.5-1.5v-41.2c0-.8.7-1.5 1.5-1.5s1.5.7 1.5 1.5v41.2c0 .8-.7 1.5-1.5 1.5zM612.7 706.6c-.8 0-1.5-.7-1.5-1.5v-10.3c0-.8.7-1.5 1.5-1.5s1.5.7 1.5 1.5v10.3c0 .8-.7 1.5-1.5 1.5z"/></g><g><path class="st1" d="M518.4 554.5c-2.2 0-4.3-.9-5.9-2.5-1.6-1.6-2.4-3.7-2.4-5.9s.9-4.3 2.5-5.9l33-33c-4.1-9-2.2-19.6 4.9-26.7 7.2-7.2 18.7-9 27.8-4.4.4.2.7.6.8 1.1.1.5-.1.9-.4 1.3l-10.7 11v7.5h7l10.9-10.9c.3-.3.8-.5 1.3-.4.5.1.9.4 1.1.8 4.7 9.2 3 20.4-4.4 27.7-7.1 7.1-17.7 8.9-26.7 4.8l-33 33c-1.4 1.6-3.5 2.5-5.8 2.5zm49-77.9c-5.5 0-10.9 2.1-14.9 6.1-6.4 6.4-8 16.2-3.9 24.2.3.6.2 1.3-.3 1.7l-33.8 33.7c-1 1-1.6 2.4-1.6 3.8s.6 2.8 1.6 3.8 2.4 1.6 3.8 1.6 2.8-.6 3.8-1.6l33.7-33.7c.5-.5 1.2-.6 1.7-.3 8.1 4.1 17.8 2.6 24.2-3.8 5.9-5.9 7.7-14.7 4.7-22.3l-9.8 9.8c-.3.3-.7.4-1.1.4h-9.1c-.8 0-1.5-.7-1.5-1.5v-9.6c0-.4.2-.8.4-1l9.6-9.8c-2.3-1.1-4.9-1.5-7.5-1.5z"/></g><g><path class="st1" d="M1198.3 1126h-75.6c-.8 0-1.5-.7-1.5-1.5v-79c0-.8.7-1.5 1.5-1.5h75.6c.8 0 1.5.7 1.5 1.5v79c0 .8-.6 1.5-1.5 1.5zm-74-3h72.6v-76h-72.6v76z"/><path class="st1" d="M1160.6 1095.1c-.8 0-1.5-.7-1.5-1.5v-24c0-.8.7-1.5 1.5-1.5s1.5.7 1.5 1.5v24c0 .8-.7 1.5-1.5 1.5zM1181.3 1095.1c-.8 0-1.5-.7-1.5-1.5v-6.9c0-.8.7-1.5 1.5-1.5s1.5.7 1.5 1.5v6.9c0 .8-.7 1.5-1.5 1.5zM1140 1074.5c-.8 0-1.5-.7-1.5-1.5v-17.2c0-.8.7-1.5 1.5-1.5s1.5.7 1.5 1.5v17.2c0 .8-.7 1.5-1.5 1.5zM1140 1095.1c-.8 0-1.5-.7-1.5-1.5v-13.7c0-.8.7-1.5 1.5-1.5s1.5.7 1.5 1.5v13.7c0 .8-.7 1.5-1.5 1.5zM1181.3 1081.3c-.8 0-1.5-.7-1.5-1.5v-24c0-.8.7-1.5 1.5-1.5s1.5.7 1.5 1.5v24c0 .9-.7 1.5-1.5 1.5zM1160.6 1064.2c-.8 0-1.5-.7-1.5-1.5v-6.9c0-.8.7-1.5 1.5-1.5s1.5.7 1.5 1.5v6.9c0 .8-.7 1.5-1.5 1.5z"/><path class="st1" d="M1188.1 1088.2h-13.7c-.8 0-1.5-.7-1.5-1.5v-6.9c0-.8.7-1.5 1.5-1.5h13.7c.8 0 1.5.7 1.5 1.5v6.9c0 .8-.6 1.5-1.5 1.5zm-12.2-3h10.7v-3.9h-10.7v3.9zM1167.4 1071h-13.7c-.8 0-1.5-.7-1.5-1.5v-6.9c0-.8.7-1.5 1.5-1.5h13.7c.8 0 1.5.7 1.5 1.5v6.9c0 .8-.6 1.5-1.5 1.5zm-12.2-3h10.7v-3.9h-10.7v3.9zM1146.8 1081.3h-13.7c-.8 0-1.5-.7-1.5-1.5v-6.9c0-.8.7-1.5 1.5-1.5h13.7c.8 0 1.5.7 1.5 1.5v6.9c0 .9-.6 1.5-1.5 1.5zm-12.2-3h10.7v-3.9h-10.7v3.9zM1181.3 1115.7a6.7 6.7 0 110-13.4 6.7 6.7 0 010 13.4zm0-10.3c-2 0-3.7 1.6-3.7 3.7s1.6 3.7 3.7 3.7 3.7-1.6 3.7-3.7-1.7-3.7-3.7-3.7zM1160.6 1115.7a6.7 6.7 0 116.7-6.7c0 3.7-3.1 6.7-6.7 6.7zm0-10.3c-2 0-3.7 1.6-3.7 3.7s1.6 3.7 3.7 3.7 3.7-1.6 3.7-3.7-1.7-3.7-3.7-3.7zM1140 1115.7a6.7 6.7 0 116.7-6.7c0 3.7-3.1 6.7-6.7 6.7zm0-10.3c-2 0-3.7 1.6-3.7 3.7s1.6 3.7 3.7 3.7 3.7-1.6 3.7-3.7-1.7-3.7-3.7-3.7z"/></g><g><path class="st1" d="M813.4 1124.1s-.1 0 0 0c-.8 0-1.4-.6-1.5-1.3l-9.3-58.8-8.4 28c-.2.6-.8 1.1-1.4 1.1h-20.6c-.8 0-1.5-.7-1.5-1.5s.7-1.5 1.5-1.5h19.5l10-33.3c.2-.7.9-1.1 1.5-1.1.7 0 1.3.6 1.4 1.3l9 57.3 8.6-40.2c.1-.6.7-1.1 1.3-1.2.7-.1 1.3.3 1.5.9l6.5 16.2h19.6c.8 0 1.5.7 1.5 1.5s-.7 1.5-1.5 1.5h-20.6c-.6 0-1.2-.4-1.4-.9l-5-12.6-9.3 43.3c-.1.8-.7 1.3-1.4 1.3z"/></g><g><path class="st1" d="M260.5 195.1a6.7 6.7 0 116.7-6.7c0 3.7-3.1 6.7-6.7 6.7zm0-10.3c-2 0-3.7 1.6-3.7 3.7s1.6 3.7 3.7 3.7 3.7-1.6 3.7-3.7-1.7-3.7-3.7-3.7z"/><path class="st1" d="M264.1 186.3c-.4 0-.8-.1-1.1-.4-.6-.6-.6-1.5 0-2.1l17-17c.6-.6 1.5-.6 2.1 0 .6.6.6 1.5 0 2.1l-17 17c-.2.2-.6.4-1 .4zM234.7 191.6h-6.9c-.8 0-1.5-.7-1.5-1.5s.7-1.5 1.5-1.5h6.9c.8 0 1.5.7 1.5 1.5s-.7 1.5-1.5 1.5zM293.1 191.6h-6.9c-.8 0-1.5-.7-1.5-1.5s.7-1.5 1.5-1.5h6.9c.8 0 1.5.7 1.5 1.5s-.7 1.5-1.5 1.5zM284.3 180.1c-.6 0-1.1-.3-1.4-.9-.3-.8 0-1.6.8-2l6.3-2.6c.8-.3 1.6 0 2 .8.3.8 0 1.6-.8 2l-6.3 2.6c-.3 0-.5.1-.6.1zM270.3 166.1c-.2 0-.4 0-.6-.1-.8-.3-1.1-1.2-.8-2l2.6-6.3c.3-.8 1.2-1.1 2-.8.8.3 1.1 1.2.8 2l-2.6 6.3c-.2.6-.8.9-1.4.9zM260.5 164.2c-.8 0-1.5-.7-1.5-1.5v-6.9c0-.8.7-1.5 1.5-1.5s1.5.7 1.5 1.5v6.9c0 .8-.7 1.5-1.5 1.5zM250.6 166.1c-.6 0-1.1-.3-1.4-.9l-2.6-6.3c-.3-.8 0-1.6.8-2 .8-.3 1.6 0 2 .8l2.6 6.3c.3.8 0 1.6-.8 2-.2.1-.4.1-.6.1zM242.2 171.7c-.4 0-.8-.1-1.1-.4l-4.9-4.9c-.6-.6-.6-1.5 0-2.1.6-.6 1.5-.6 2.1 0l4.9 4.9c.6.6.6 1.5 0 2.1-.2.3-.6.4-1 .4zM236.7 180.1c-.2 0-.4 0-.6-.1l-6.3-2.6c-.8-.3-1.1-1.2-.8-2 .3-.8 1.2-1.1 2-.8l6.3 2.6c.8.3 1.1 1.2.8 2-.3.5-.9.9-1.4.9z"/><path class="st1" d="M300 205.4h-79c-.8 0-1.5-.7-1.5-1.5v-15.5c0-22.6 18.4-41 41-41s41 18.4 41 41v15.5c0 .8-.7 1.5-1.5 1.5zm-77.5-3h76v-14c0-21-17-38-38-38s-38 17-38 38v14z"/></g><g><path class="st1" d="M231.7 1186.4c-5.6 0-10.1-4.5-10.1-10.1s4.5-10.1 10.1-10.1 10.1 4.5 10.1 10.1-4.5 10.1-10.1 10.1zm0-17.2c-3.9 0-7.1 3.2-7.1 7.1s3.2 7.1 7.1 7.1 7.1-3.2 7.1-7.1-3.2-7.1-7.1-7.1zM231.7 1217.3c-5.6 0-10.1-4.5-10.1-10.1s4.5-10.1 10.1-10.1 10.1 4.5 10.1 10.1-4.5 10.1-10.1 10.1zm0-17.2c-3.9 0-7.1 3.2-7.1 7.1 0 3.9 3.2 7.1 7.1 7.1s7.1-3.2 7.1-7.1c0-3.9-3.2-7.1-7.1-7.1zM231.7 1248.2c-5.6 0-10.1-4.5-10.1-10.1s4.5-10.1 10.1-10.1 10.1 4.5 10.1 10.1-4.5 10.1-10.1 10.1zm0-17.2c-3.9 0-7.1 3.2-7.1 7.1 0 3.9 3.2 7.1 7.1 7.1s7.1-3.2 7.1-7.1c0-3.9-3.2-7.1-7.1-7.1z"/></g><g><path class="st1" d="M2058 242.5c-.5 0-1-.2-1.3-.7-.4-.7-.2-1.6.5-2.1 6-3.9 9.6-10.4 9.6-17.5 0-11.5-9.3-20.8-20.8-20.8s-20.8 9.3-20.8 20.8c0 7.1 3.6 13.7 9.6 17.5.7.4.9 1.4.5 2.1-.4.7-1.4.9-2.1.5-6.9-4.4-11-11.9-11-20.1 0-13.1 10.7-23.8 23.8-23.8 13.1 0 23.8 10.7 23.8 23.8 0 8.1-4.1 15.6-11 20.1-.2.1-.5.2-.8.2z"/><path class="st1" d="M2066.2 280.3h-27.4c-.5 0-1-.2-1.2-.7l-13.8-20.6c-1.2-1.8-1.8-4.9-.6-7.1.7-1.4 2.1-2.1 3.7-2.1 3.7 0 7.2 1.6 12.5 8.7v-33c0-3.6 3-6.6 6.7-6.6s6.7 3 6.7 6.7v19.5l14.2 4.8c4.3 1.4 5.3 6.3 4.3 10.3l-3.5 18.8c-.2.8-.8 1.3-1.6 1.3zm-26.6-3h25.4l3.3-17.7c.6-2.8.2-6.1-2.3-6.9l-15.3-5.2c-.6-.2-1-.8-1-1.4v-20.6c0-2-1.6-3.7-3.7-3.7s-3.7 1.6-3.7 3.6v37.8c0 .7-.4 1.2-1.1 1.4-.6.2-1.3-.1-1.7-.6-6.8-10.5-10.1-11.3-12.7-11.3-.7 0-.9.3-1.1.6-.5.9-.3 2.8.5 4l13.4 20z"/></g><g><path class="st1" d="M431.8 566h-34.3c-.5 0-1-.3-1.3-.7s-.3-1-.1-1.5l17.2-34.3c.3-.5.8-.8 1.3-.8s1.1.3 1.3.8l17.2 34.3c.2.5.2 1-.1 1.5s-.7.7-1.2.7zm-31.9-3h29.5l-14.7-29.5-14.8 29.5z"/><path class="st1" d="M443.2 553.8c-.4 0-.7-.1-1-.4-.6-.6-.6-1.5 0-2.1 6.8-7.1 10.6-16.4 10.6-26.3 0-21-17-38-38-38s-38 17-38 38c0 9.8 3.7 19.2 10.6 26.3.6.6.6 1.5 0 2.1-.6.6-1.5.6-2.1 0-7.3-7.7-11.4-17.7-11.4-28.3 0-22.6 18.4-41 41-41s41 18.4 41 41c0 10.6-4 20.7-11.4 28.3-.6.2-.9.4-1.3.4z"/><path class="st1" d="M435.5 541.5c-.3 0-.6-.1-.9-.3-.7-.5-.8-1.4-.3-2.1 3-4.2 4.6-9 4.6-14.1 0-13.4-10.9-24.3-24.3-24.3s-24.3 10.9-24.3 24.3c0 5.1 1.6 10 4.6 14.1.5.7.3 1.6-.3 2.1-.7.5-1.6.3-2.1-.3-3.3-4.7-5.1-10.2-5.1-15.9 0-15 12.2-27.3 27.3-27.3 15 0 27.3 12.2 27.3 27.3 0 5.7-1.8 11.2-5.1 15.9-.4.3-.9.6-1.4.6z"/><path class="st1" d="M426.6 527c-.9 0-1.5-.7-1.5-1.6v-.3-.2c0-5.8-4.7-10.5-10.5-10.5s-10.5 4.7-10.5 10.5v.5c0 .8-.6 1.5-1.4 1.6-.8 0-1.5-.6-1.6-1.4v-.2-.4c0-7.5 6.1-13.5 13.5-13.5s13.5 6.1 13.5 13.5V525.6c0 .8-.7 1.4-1.5 1.4z"/><path class="st1" d="M414.6 531.6c-.8 0-1.5-.7-1.5-1.5v-6.9c0-.8.7-1.5 1.5-1.5s1.5.7 1.5 1.5v6.9c0 .8-.6 1.5-1.5 1.5z"/><path transform="rotate(-33.757 410.36 555.85)" class="st1" d="M394.9 554.4h30.9v3h-30.9z"/><path transform="rotate(-56.312 418.89 555.849)" class="st1" d="M417.4 540.4h3v31h-3z"/><path class="st1" d="M408.7 540.6h11.9v3h-11.9z"/></g><g><path class="st1" d="M800.2 773.4h-34.3c-.5 0-1-.2-1.2-.6-.3-.4-.3-.9-.2-1.4l17.2-46.4c.2-.6.8-1 1.4-1s1.2.4 1.4 1l17.2 46.4c.2.5.1 1-.2 1.4-.4.4-.8.6-1.3.6zm-32.2-3h30l-15-40.5-15 40.5z"/><path class="st1" d="M783 727.1c-.8 0-1.5-.7-1.5-1.5V717c0-.8.7-1.5 1.5-1.5s1.5.7 1.5 1.5v8.6c0 .8-.7 1.5-1.5 1.5zM777.3 739.5h11.5v3h-11.5zM783 701.3c-.8 0-1.5-.7-1.5-1.5V693c0-.8.7-1.5 1.5-1.5s1.5.7 1.5 1.5v6.9c0 .7-.7 1.4-1.5 1.4zM771 706.5c-.4 0-.8-.1-1.1-.4l-5.2-5.2c-.6-.6-.6-1.5 0-2.1s1.5-.6 2.1 0l5.2 5.2c.6.6.6 1.5 0 2.1-.3.2-.6.4-1 .4zM765.8 718.5H759c-.8 0-1.5-.7-1.5-1.5s.7-1.5 1.5-1.5h6.9c.8 0 1.5.7 1.5 1.5s-.7 1.5-1.6 1.5zM765.8 735.7c-.4 0-.8-.1-1.1-.4-.6-.6-.6-1.5 0-2.1l5.2-5.2c.6-.6 1.5-.6 2.1 0s.6 1.5 0 2.1l-5.2 5.2c-.2.2-.6.4-1 .4zM800.2 735.7c-.4 0-.8-.1-1.1-.4l-5.2-5.2c-.6-.6-.6-1.5 0-2.1s1.5-.6 2.1 0l5.2 5.2c.6.6.6 1.5 0 2.1-.3.2-.6.4-1 .4zM795 706.5c-.4 0-.8-.1-1.1-.4-.6-.6-.6-1.5 0-2.1l5.2-5.2c.6-.6 1.5-.6 2.1 0s.6 1.5 0 2.1l-5.2 5.2c-.2.2-.6.4-1 .4zM807 718.5h-6.9c-.8 0-1.5-.7-1.5-1.5s.7-1.5 1.5-1.5h6.9c.8 0 1.5.7 1.5 1.5s-.6 1.5-1.5 1.5z"/><path transform="rotate(-47.273 787.367 760.125)" class="st1" d="M785.9 742.7h3v34.8h-3z"/><path transform="rotate(-42.731 778.561 760.073)" class="st1" d="M761.2 758.6H796v3h-34.8z"/></g><g><path class="st1" d="M126.4 1206.1h-79c-.8 0-1.5-.7-1.5-1.5v-5.2c0-6.3 4-12.1 9.9-14.3h.1l21.8-6c.8-.2 1.6.2 1.8 1 .2.8-.2 1.6-1 1.8l-21.7 6c-4.7 1.8-7.9 6.4-7.9 11.4v3.7h76v-3.7c0-5.1-3.2-9.6-7.9-11.4l-21.6-6c-.8-.2-1.3-1-1-1.8.2-.8 1-1.3 1.8-1l21.7 6h.1c5.9 2.2 9.9 8 9.9 14.3v5.2c0 .8-.7 1.5-1.5 1.5zM83.4 1164.9c-.8 0-1.5-.7-1.5-1.5v-.2c-.3-.1-1-.1-1.5-.1h-1c-.5 0-1.2 0-1.5.1v.2c0 .8-.7 1.5-1.5 1.5s-1.5-.7-1.5-1.5c0-1 .3-1.7.8-2.3 1-.9 2.3-.9 3.6-.9h.8c1.3 0 2.7 0 3.6.9.6.6.8 1.3.8 2.3.4.8-.3 1.5-1.1 1.5zM97.2 1164.9c-.8 0-1.5-.7-1.5-1.5v-.2c-.3-.1-1-.1-1.5-.1h-1c-.5 0-1.2 0-1.5.1v.2c0 .8-.7 1.5-1.5 1.5s-1.5-.7-1.5-1.5c0-1 .3-1.7.8-2.3 1-.9 2.3-.9 3.6-.9h.8c1.3 0 2.7 0 3.6.9.6.6.8 1.3.8 2.3.4.8-.3 1.5-1.1 1.5z"/><path class="st1" d="M86.9 1185.6c-5.3 0-17.7-6.7-18.6-17.5-2.6-.8-3.9-3.6-3.9-6.4 0-2.8 1.3-5.6 3.9-6.4v-3.7c0-.8.7-1.5 1.5-1.5s1.5.7 1.5 1.5v5c0 .8-.7 1.5-1.5 1.5-1.9 0-2.4 2.4-2.4 3.7 0 1.3.5 3.7 2.4 3.7.8 0 1.5.7 1.5 1.5 0 9.1 11 15.8 15.7 15.8s15.7-6.7 15.7-15.8c0-.8.7-1.5 1.5-1.5 1.9 0 2.4-2.4 2.4-3.7 0-1.3-.5-3.7-2.4-3.7-.8 0-1.5-.7-1.5-1.5v-5c0-.8.7-1.5 1.5-1.5s1.5.7 1.5 1.5v3.7c2.5.8 3.9 3.6 3.9 6.4 0 2.8-1.3 5.7-3.9 6.4-1.2 10.8-13.5 17.5-18.8 17.5z"/><path class="st1" d="M95.4 1195.8H78.3c-4.6 0-8.4-3.8-8.4-8.4v-5c0-.8.7-1.5 1.5-1.5s1.5.7 1.5 1.5v5c0 3 2.4 5.4 5.4 5.4h17.2c3 0 5.4-2.4 5.4-5.4v-5c0-.8.7-1.5 1.5-1.5s1.5.7 1.5 1.5v5c-.1 4.7-3.8 8.4-8.5 8.4zM61.1 1206.1c-.8 0-1.5-.7-1.5-1.5v-19.4c0-.8.7-1.5 1.5-1.5s1.5.7 1.5 1.5v19.4c0 .8-.7 1.5-1.5 1.5zM112.6 1206.1c-.8 0-1.5-.7-1.5-1.5v-19.4c0-.8.7-1.5 1.5-1.5s1.5.7 1.5 1.5v19.4c0 .8-.7 1.5-1.5 1.5zM86.9 1156.3c-21.6 0-23.7-9.4-23.8-9.8-.1-.6.2-1.3.7-1.6l4.4-2.6c.4-7.3 5.3-13.1 13.3-15.6.8-.3 1.6.2 1.9 1 .3.8-.2 1.6-1 1.9-7 2.2-11.2 7.3-11.2 13.6 0 .5-.3 1-.7 1.3l-4 2.3c1.2 2 5.7 6.5 20.4 6.5s19.2-4.5 20.4-6.5l-4-2.3c-.5-.3-.7-.8-.7-1.3 0-6.3-4.2-11.4-11.2-13.6-.8-.2-1.2-1.1-1-1.9.2-.8 1.1-1.2 1.9-1 8 2.5 12.9 8.3 13.3 15.6l4.4 2.6c.6.3.8 1 .7 1.6-.1.4-2.3 9.8-23.8 9.8z"/><path class="st1" d="M90.1 1147.6H90c-.8-.1-1.4-.8-1.4-1.6l1.8-18.9h-7l1.8 18.9c.1.8-.5 1.6-1.4 1.6-.8.1-1.6-.5-1.6-1.4l-1.9-20.5c0-.4.1-.8.4-1.1.3-.3.7-.5 1.1-.5H92c.4 0 .8.2 1.1.5.3.3.4.7.4 1.2l-1.9 20.5c-.1.7-.7 1.3-1.5 1.3z"/><path class="st1" d="M86.9 1147.7c-6.6 0-13.1-1.1-17.8-3.1-.8-.3-1.1-1.2-.8-2 .3-.8 1.2-1.1 2-.8 4.3 1.8 10.3 2.9 16.6 2.9 6.2 0 12.3-1.1 16.6-2.9.8-.3 1.6 0 2 .8.3.8 0 1.6-.8 2-4.7 2-11.2 3.1-17.8 3.1z"/></g><g><path class="st1" d="M280.2 381.9h-79c-.8 0-1.5-.7-1.5-1.5v-20.6c0-.8.7-1.5 1.5-1.5h79c.8 0 1.5.7 1.5 1.5v20.6c0 .8-.7 1.5-1.5 1.5zm-77.5-3h76v-17.6h-76v17.6z"/><path class="st1" d="M280.2 361.3c-.3 0-.7-.1-1-.3L259 344.1h-36.7l-20.2 16.8c-.6.5-1.6.4-2.1-.2-.5-.6-.4-1.6.2-2.1l20.6-17.2c.3-.2.6-.3 1-.3h37.8c.4 0 .7.1 1 .3l20.6 17.2c.6.5.7 1.5.2 2.1-.4.4-.8.6-1.2.6zM247.5 373.3c-1.8 0-3.2-1.4-3.2-3.2s1.4-3.2 3.2-3.2 3.2 1.4 3.2 3.2-1.4 3.2-3.2 3.2zm0-3.4c-.1 0-.2.1-.2.2 0 .2.4.2.4 0 0-.1 0-.2-.2-.2zM257.8 373.3c-1.8 0-3.2-1.4-3.2-3.2s1.4-3.2 3.2-3.2 3.2 1.4 3.2 3.2-1.4 3.2-3.2 3.2zm0-3.4c-.1 0-.2.1-.2.2 0 .2.4.2.4 0 .1-.1 0-.2-.2-.2zM268.1 373.3c-1.8 0-3.2-1.4-3.2-3.2s1.4-3.2 3.2-3.2 3.2 1.4 3.2 3.2-1.4 3.2-3.2 3.2zm0-3.4c-.1 0-.2.1-.2.2 0 .2.4.2.4 0 .1-.1 0-.2-.2-.2zM211.5 375c-2.7 0-4.9-2.2-4.9-4.9s2.2-4.9 4.9-4.9 4.9 2.2 4.9 4.9-2.2 4.9-4.9 4.9zm0-6.9c-1.1 0-1.9.9-1.9 1.9s.9 1.9 1.9 1.9 1.9-.9 1.9-1.9-.9-1.9-1.9-1.9zM280.2 402.5h-79c-.8 0-1.5-.7-1.5-1.5v-20.6c0-.8.7-1.5 1.5-1.5s1.5.7 1.5 1.5v19.1h76v-19.1c0-.8.7-1.5 1.5-1.5s1.5.7 1.5 1.5V401c0 .8-.7 1.5-1.5 1.5z"/><path class="st1" d="M247.5 393.9c-1.8 0-3.2-1.4-3.2-3.2s1.4-3.2 3.2-3.2 3.2 1.4 3.2 3.2-1.4 3.2-3.2 3.2zm0-3.4c-.1 0-.2.1-.2.2 0 .2.4.2.4 0 0-.1 0-.2-.2-.2zM257.8 393.9c-1.8 0-3.2-1.4-3.2-3.2s1.4-3.2 3.2-3.2 3.2 1.4 3.2 3.2-1.4 3.2-3.2 3.2zm0-3.4c-.1 0-.2.1-.2.2 0 .2.4.2.4 0 .1-.1 0-.2-.2-.2zM268.1 393.9c-1.8 0-3.2-1.4-3.2-3.2s1.4-3.2 3.2-3.2 3.2 1.4 3.2 3.2-1.4 3.2-3.2 3.2zm0-3.4c-.1 0-.2.1-.2.2 0 .2.4.2.4 0 .1-.1 0-.2-.2-.2zM211.5 395.6c-2.7 0-4.9-2.2-4.9-4.9s2.2-4.9 4.9-4.9 4.9 2.2 4.9 4.9-2.2 4.9-4.9 4.9zm0-6.8c-1.1 0-1.9.9-1.9 1.9s.9 1.9 1.9 1.9 1.9-.9 1.9-1.9-.9-1.9-1.9-1.9zM273.3 423.1H208c-4.6 0-8.4-3.8-8.4-8.4V401c0-.8.7-1.5 1.5-1.5s1.5.7 1.5 1.5v13.7c0 3 2.4 5.4 5.4 5.4h65.3c3 0 5.4-2.4 5.4-5.4V401c0-.8.7-1.5 1.5-1.5s1.5.7 1.5 1.5v13.7c0 4.6-3.8 8.4-8.4 8.4z"/><path class="st1" d="M247.5 414.5c-1.8 0-3.2-1.4-3.2-3.2s1.4-3.2 3.2-3.2 3.2 1.4 3.2 3.2-1.4 3.2-3.2 3.2zm0-3.4c-.1 0-.2.1-.2.2 0 .2.4.2.4 0 0-.1 0-.2-.2-.2zM257.8 414.5c-1.8 0-3.2-1.4-3.2-3.2s1.4-3.2 3.2-3.2 3.2 1.4 3.2 3.2-1.4 3.2-3.2 3.2zm0-3.4c-.1 0-.2.1-.2.2 0 .2.4.2.4 0 .1-.1 0-.2-.2-.2zM268.1 414.5c-1.8 0-3.2-1.4-3.2-3.2s1.4-3.2 3.2-3.2 3.2 1.4 3.2 3.2-1.4 3.2-3.2 3.2zm0-3.4c-.1 0-.2.1-.2.2 0 .2.4.2.4 0 .1-.1 0-.2-.2-.2zM211.5 416.2c-2.7 0-4.9-2.2-4.9-4.9s2.2-4.9 4.9-4.9 4.9 2.2 4.9 4.9-2.2 4.9-4.9 4.9zm0-6.8c-1.1 0-1.9.9-1.9 1.9s.9 1.9 1.9 1.9 1.9-.9 1.9-1.9-.9-1.9-1.9-1.9z"/></g><g><path class="st1" d="M930.5 1211.1h-65.3c-4.6 0-8.4-3.8-8.4-8.4v-34.3c0-4.6 3.8-8.4 8.4-8.4h65.3c4.6 0 8.4 3.8 8.4 8.4v34.3c0 4.6-3.8 8.4-8.4 8.4zm-65.3-48.1c-3 0-5.4 2.4-5.4 5.4v34.3c0 3 2.4 5.4 5.4 5.4h65.3c3 0 5.4-2.4 5.4-5.4v-34.3c0-3-2.4-5.4-5.4-5.4h-65.3z"/><path class="st1" d="M925.3 1190.5h-55c-3.7 0-6.7-3-6.7-6.7v-10.3c0-3.7 3-6.7 6.7-6.7h55c3.7 0 6.7 3 6.7 6.7v10.3c0 3.7-3 6.7-6.7 6.7zm-54.9-20.6c-2 0-3.7 1.6-3.7 3.7v10.3c0 2 1.6 3.7 3.7 3.7h55c2 0 3.7-1.6 3.7-3.7v-10.3c0-2-1.6-3.7-3.7-3.7h-55zM872.1 1204.2c-2.7 0-4.9-2.2-4.9-4.9s2.2-4.9 4.9-4.9 4.9 2.2 4.9 4.9-2.2 4.9-4.9 4.9zm0-6.8c-1.1 0-1.9.9-1.9 1.9s.9 1.9 1.9 1.9 1.9-.9 1.9-1.9-.8-1.9-1.9-1.9zM923.6 1204.2c-2.7 0-4.9-2.2-4.9-4.9s2.2-4.9 4.9-4.9 4.9 2.2 4.9 4.9-2.2 4.9-4.9 4.9zm0-6.8c-1.1 0-1.9.9-1.9 1.9s.9 1.9 1.9 1.9 1.9-.9 1.9-1.9-.8-1.9-1.9-1.9zM909.9 1204.2h-24c-2.7 0-4.9-2.2-4.9-4.9s2.2-4.9 4.9-4.9h24c2.7 0 4.9 2.2 4.9 4.9s-2.2 4.9-4.9 4.9zm-24.1-6.8c-1.1 0-1.9.9-1.9 1.9s.9 1.9 1.9 1.9h24c1.1 0 1.9-.9 1.9-1.9s-.9-1.9-1.9-1.9h-24z"/><path class="st1" d="M930.5 1176.7h-65.3c-.8 0-1.5-.7-1.5-1.5s.7-1.5 1.5-1.5h65.3c.8 0 1.5.7 1.5 1.5s-.7 1.5-1.5 1.5zM930.5 1183.6h-65.3c-.8 0-1.5-.7-1.5-1.5s.7-1.5 1.5-1.5h65.3c.8 0 1.5.7 1.5 1.5s-.7 1.5-1.5 1.5zM903 1204.2c-.8 0-1.5-.7-1.5-1.5v-6.9c0-.8.7-1.5 1.5-1.5s1.5.7 1.5 1.5v6.9c0 .9-.7 1.5-1.5 1.5zM865.2 1163c-.5 0-1.1-.3-1.3-.8-.4-.7-.1-1.6.7-2l55-27.5c.7-.4 1.6-.1 2 .7.4.7.1 1.6-.7 2l-55 27.5c-.2.1-.4.1-.7.1zM875.5 1214.5c-.8 0-1.5-.7-1.5-1.5v-3.4c0-.8.7-1.5 1.5-1.5s1.5.7 1.5 1.5v3.4c0 .9-.6 1.5-1.5 1.5zM920.2 1214.5c-.8 0-1.5-.7-1.5-1.5v-3.4c0-.8.7-1.5 1.5-1.5s1.5.7 1.5 1.5v3.4c0 .9-.7 1.5-1.5 1.5z"/></g><g><path class="st1" d="M953.8 619.3c-.4 0-.8-.2-1.1-.4l-23.6-23.6h-11.4c-3.7 0-6.7-3-6.7-6.7v-10.3c0-3.7 3-6.7 6.7-6.7h11.4l23.6-23.6c.4-.4 1.1-.6 1.6-.3.6.2.9.8.9 1.4v68.7c0 .6-.4 1.2-.9 1.4-.1 0-.3.1-.5.1zm-36.1-44.7c-2 0-3.7 1.6-3.7 3.7v10.3c0 2 1.6 3.7 3.7 3.7h12c.4 0 .8.2 1.1.4l21.5 21.5v-61.4l-21.5 21.5c-.3.3-.7.4-1.1.4h-12zM979.6 612.4c-.4 0-.8-.2-1.1-.5-.5-.6-.5-1.6.1-2.1 7.3-6.4 11.5-16 11.5-26.4 0-10.3-4.2-19.9-11.5-26.3-.6-.5-.7-1.5-.1-2.1.5-.6 1.5-.7 2.1-.1 8 7 12.5 17.4 12.5 28.6 0 11.2-4.6 21.6-12.5 28.6-.3.2-.7.3-1 .3z"/><path class="st1" d="M971 605.5c-.4 0-.9-.2-1.2-.5-.5-.6-.4-1.6.2-2.1 6.2-5.2 9.7-12.1 9.7-19.5s-3.4-14.3-9.7-19.4c-.6-.5-.7-1.5-.2-2.1.5-.6 1.5-.7 2.1-.2 6.9 5.7 10.8 13.5 10.8 21.7 0 8.3-3.8 16-10.8 21.8-.2.2-.6.3-.9.3z"/><path class="st1" d="M964.1 597c-.5 0-.9-.2-1.2-.6-.5-.7-.3-1.6.3-2.1 4-2.9 6.3-6.8 6.3-10.8 0-4-2.2-7.9-6.3-10.8-.7-.5-.8-1.4-.3-2.1.5-.7 1.4-.8 2.1-.3 4.8 3.5 7.5 8.2 7.5 13.2s-2.7 9.7-7.5 13.2c-.3.2-.6.3-.9.3z"/></g><g><path class="st1" d="M669.8 1077.4h-58.4c-4.6 0-8.4-3.8-8.4-8.4v-30.9c0-4.6 3.8-8.4 8.4-8.4h58.4c4.6 0 8.4 3.8 8.4 8.4v30.9c-.1 4.6-3.8 8.4-8.4 8.4zm-58.4-44.7c-3 0-5.4 2.4-5.4 5.4v30.9c0 3 2.4 5.4 5.4 5.4h58.4c3 0 5.4-2.4 5.4-5.4v-30.9c0-3-2.4-5.4-5.4-5.4h-58.4z"/><path class="st1" d="M632 1032.7h-24c-.8 0-1.5-.7-1.5-1.5v-30.9c0-.8.7-1.5 1.5-1.5h24c.8 0 1.5.7 1.5 1.5v30.9c0 .9-.7 1.5-1.5 1.5zm-22.6-3h21v-27.9h-21v27.9z"/><path class="st1" d="M620 1027.6c-4.6 0-8.4-3.8-8.4-8.4s3.8-8.4 8.4-8.4 8.4 3.8 8.4 8.4-3.8 8.4-8.4 8.4zm0-13.8c-3 0-5.4 2.4-5.4 5.4s2.4 5.4 5.4 5.4 5.4-2.4 5.4-5.4-2.5-5.4-5.4-5.4zM673.2 1032.7h-24c-.8 0-1.5-.7-1.5-1.5v-30.9c0-.8.7-1.5 1.5-1.5h24c.8 0 1.5.7 1.5 1.5v30.9c0 .9-.7 1.5-1.5 1.5zm-22.6-3h21v-27.9h-21v27.9z"/><path class="st1" d="M661.2 1027.6c-4.6 0-8.4-3.8-8.4-8.4s3.8-8.4 8.4-8.4 8.4 3.8 8.4 8.4-3.8 8.4-8.4 8.4zm0-13.8c-3 0-5.4 2.4-5.4 5.4s2.4 5.4 5.4 5.4 5.4-2.4 5.4-5.4-2.5-5.4-5.4-5.4zM616.5 1005.7h6.9v3h-6.9zM657.7 1005.7h6.9v3h-6.9zM669.8 1056.8h-58.4c-.8 0-1.5-.7-1.5-1.5v-17.2c0-.8.7-1.5 1.5-1.5h58.4c.8 0 1.5.7 1.5 1.5v17.2c0 .8-.7 1.5-1.5 1.5zm-56.9-3h55.4v-14.2h-55.4v14.2zM620 1070.5c-2.7 0-4.9-2.2-4.9-4.9s2.2-4.9 4.9-4.9 4.9 2.2 4.9 4.9-2.2 4.9-4.9 4.9zm0-6.9c-1.1 0-1.9.9-1.9 1.9s.9 1.9 1.9 1.9 1.9-.9 1.9-1.9-.9-1.9-1.9-1.9zM637.1 1070.5c-2.7 0-4.9-2.2-4.9-4.9s2.2-4.9 4.9-4.9 4.9 2.2 4.9 4.9-2.2 4.9-4.9 4.9zm0-6.9c-1.1 0-1.9.9-1.9 1.9s.9 1.9 1.9 1.9c1.1 0 1.9-.9 1.9-1.9s-.8-1.9-1.9-1.9zM669.6 1063.6H656c-.8 0-1.5-.7-1.5-1.5s.7-1.5 1.5-1.5h13.6c.8 0 1.5.7 1.5 1.5s-.6 1.5-1.5 1.5zM669.6 1070.5H656c-.8 0-1.5-.7-1.5-1.5s.7-1.5 1.5-1.5h13.6c.8 0 1.5.7 1.5 1.5s-.6 1.5-1.5 1.5z"/><path class="st1" d="M616.7 1046.7h3v8.6h-3zM623.6 1043.3h3v12h-3zM630.5 1046.7h3v8.6h-3zM637.3 1046.7h3v8.6h-3zM644.2 1043.3h3v12h-3zM651.1 1046.7h3v8.6h-3z"/></g><g><path class="st1" d="M2563.8 894.8c-9.3 0-17-7.6-17-17 0-6.8-2.9-10-6.2-13.6-3.5-3.9-7.5-8.2-7.5-17.3 0-13.1 10.7-23.8 23.8-23.8 13.1 0 23.8 10.7 23.8 23.8 0 .8-.7 1.5-1.5 1.5s-1.5-.7-1.5-1.5c0-11.5-9.3-20.8-20.8-20.8s-20.8 9.3-20.8 20.8c0 7.9 3.3 11.5 6.7 15.3 3.5 3.8 7 7.7 7 15.7 0 7.7 6.3 14 14 14s14-6.3 14-14c0-.8.7-1.5 1.5-1.5s1.5.7 1.5 1.5c-.1 9.3-7.7 16.9-17 16.9zM2518.7 879.8c-.4 0-.8-.1-1.1-.4-7.7-7.7-12-18-12-29s4.3-21.2 12-29c.6-.6 1.5-.6 2.1 0s.6 1.5 0 2.1c-7.2 7.2-11.1 16.7-11.1 26.9s4 19.7 11.1 26.9c.6.6.6 1.5 0 2.1-.3.3-.7.4-1 .4z"/><path class="st1" d="M2528.4 870.1c-.4 0-.8-.1-1.1-.4-5.1-5.1-8-12-8-19.3s2.8-14.1 8-19.3c.6-.6 1.5-.6 2.1 0 .6.6.6 1.5 0 2.1-4.6 4.6-7.1 10.7-7.1 17.2s2.5 12.6 7.1 17.2c.6.6.6 1.5 0 2.1-.3.2-.6.4-1 .4zM2560.3 869.1c-4.6 0-8.4-3.8-8.4-8.4 0-2.3-1.1-3.3-2.6-4.8-1.9-1.8-4.2-4-4.2-9 0-6.5 5.3-11.8 11.8-11.8s11.8 5.3 11.8 11.8c0 .8-.7 1.5-1.5 1.5s-1.5-.7-1.5-1.5c0-4.9-3.9-8.8-8.8-8.8s-8.8 3.9-8.8 8.8c0 3.7 1.5 5.1 3.3 6.8 1.7 1.6 3.6 3.4 3.6 6.9 0 3 2.4 5.4 5.4 5.4s5.4-2.4 5.4-5.4c0-.8.7-1.5 1.5-1.5s1.5.7 1.5 1.5c-.1 4.7-3.9 8.5-8.5 8.5z"/></g><g><path class="st1" d="M1161.6 97.2h-65.3c-4.6 0-8.4-3.8-8.4-8.4V71.7c0-4.6 3.8-8.4 8.4-8.4h65.3c4.6 0 8.4 3.8 8.4 8.4v17.2c0 4.6-3.8 8.3-8.4 8.3zm-65.2-30.9c-3 0-5.4 2.4-5.4 5.4v17.2c0 3 2.4 5.4 5.4 5.4h65.3c3 0 5.4-2.4 5.4-5.4V71.7c0-3-2.4-5.4-5.4-5.4h-65.3zM1132.4 56h-10.3c-6 0-10.1-4.7-10.1-11.8V27.1c0-7.1 4.1-11.8 10.1-11.8h10.3c6 0 10.1 4.7 10.1 11.8v17.2c0 7-4 11.7-10.1 11.7zm-10.3-37.7c-5.2 0-7.1 4.5-7.1 8.8v17.2c0 4.3 1.9 8.8 7.1 8.8h10.3c5.2 0 7.1-4.5 7.1-8.8V27.1c0-4.3-1.9-8.8-7.1-8.8h-10.3z"/><path class="st1" d="M1127.3 66.3c-.8 0-1.5-.7-1.5-1.5V45.9c0-.8.7-1.5 1.5-1.5s1.5.7 1.5 1.5v18.9c0 .9-.7 1.5-1.5 1.5zM1123.8 32h-10.3c-.8 0-1.5-.7-1.5-1.5s.7-1.5 1.5-1.5h10.3c.8 0 1.5.7 1.5 1.5s-.6 1.5-1.5 1.5zM1123.8 38.9h-10.3c-.8 0-1.5-.7-1.5-1.5s.7-1.5 1.5-1.5h10.3c.8 0 1.5.7 1.5 1.5s-.6 1.5-1.5 1.5zM1141 32h-6.9c-.8 0-1.5-.7-1.5-1.5s.7-1.5 1.5-1.5h6.9c.8 0 1.5.7 1.5 1.5s-.7 1.5-1.5 1.5zM1141 38.9h-6.9c-.8 0-1.5-.7-1.5-1.5s.7-1.5 1.5-1.5h6.9c.8 0 1.5.7 1.5 1.5s-.7 1.5-1.5 1.5zM1120.4 86.9c-.5 0-1-.2-1.2-.7l-4.1-6.2v5.3c0 .8-.7 1.5-1.5 1.5s-1.5-.7-1.5-1.5V75.1c0-.7.4-1.2 1.1-1.4.6-.2 1.3.1 1.7.6l4.1 6.2v-5.3c0-.8.7-1.5 1.5-1.5s1.5.7 1.5 1.5v10.3c0 .7-.4 1.2-1.1 1.4h-.5zM1103.2 86.9c-4.9 0-4.9-3.4-4.9-6.7s0-6.7 4.9-6.7 4.9 3.4 4.9 6.7.1 6.7-4.9 6.7zm0-10.3c-1.8 0-1.9 0-1.9 3.7s.1 3.7 1.9 3.7 1.9 0 1.9-3.7-.1-3.7-1.9-3.7zM1144.5 86.9c-.8 0-1.5-.7-1.5-1.5V75.1c0-.8.7-1.5 1.5-1.5s1.5.7 1.5 1.5v10.3c0 .9-.7 1.5-1.5 1.5zM1138.2 86.9c-.6 0-1.2-.4-1.4-1l-2.4-6.4-2.4 6.4c-.3.8-1.1 1.2-1.9.9-.8-.3-1.2-1.1-.9-1.9l3.8-10.3c.2-.6.8-1 1.4-1s1.2.4 1.4 1l3.8 10.3c.3.8-.1 1.6-.9 1.9-.1.1-.3.1-.5.1z"/><path class="st1" d="M1137.6 85.2h-6.3c-.8 0-1.5-.7-1.5-1.5s.7-1.5 1.5-1.5h6.3c.8 0 1.5.7 1.5 1.5s-.7 1.5-1.5 1.5z"/><g><path class="st1" d="M1151.3 86.9c-.8 0-1.5-.7-1.5-1.5V75.1c0-.8.7-1.5 1.5-1.5h2.7c1.6 0 2.5 0 3.3.4 1.4.7 1.4 2.2 1.4 2.9 0 3.2-1.6 4.8-4.7 4.8h-1.2v3.7c0 .9-.7 1.5-1.5 1.5zm1.5-8.1h1.2c1.5 0 1.7-.4 1.7-1.8v-.3H1152.8v2.1z"/><path class="st1" d="M1157.2 86.9c-.5 0-1-.3-1.3-.7l-3.2-5.2c-.4-.7-.2-1.6.5-2.1.7-.4 1.6-.2 2.1.5l3.2 5.2c.4.7.2 1.6-.5 2.1-.2.2-.5.2-.8.2z"/></g></g><g><path class="st1" d="M1070.5 444.6c-22.6 0-41-18.4-41-41s18.4-41 41-41 41 18.4 41 41-18.4 41-41 41zm0-79c-21 0-38 17-38 38s17 38 38 38 38-17 38-38-17-38-38-38z"/><path class="st1" d="M1058.5 420.6c-.3 0-.5-.1-.8-.2-.4-.3-.7-.8-.7-1.3v-30.9c0-.5.3-1 .7-1.3.4-.3 1-.3 1.5-.1l30.9 15.5c.5.3.8.8.8 1.3s-.3 1.1-.8 1.3l-30.9 15.5c-.2.1-.5.2-.7.2zm1.5-30v26.1l26.1-13-26.1-13.1z"/></g><g><path class="st1" d="M856.3 156.2h-17.2c-.8 0-1.5-.7-1.5-1.5s.7-1.5 1.5-1.5h17.2c.8 0 1.5.7 1.5 1.5s-.7 1.5-1.5 1.5zM856.3 149.3h-17.2c-.8 0-1.5-.7-1.5-1.5s.7-1.5 1.5-1.5h17.2c.8 0 1.5.7 1.5 1.5s-.7 1.5-1.5 1.5zM856.3 142.4h-17.2c-.8 0-1.5-.7-1.5-1.5s.7-1.5 1.5-1.5h17.2c.8 0 1.5.7 1.5 1.5s-.7 1.5-1.5 1.5zM856.3 135.6h-17.2c-.8 0-1.5-.7-1.5-1.5s.7-1.5 1.5-1.5h17.2c.8 0 1.5.7 1.5 1.5s-.7 1.5-1.5 1.5zM856.3 128.7h-17.2c-.8 0-1.5-.7-1.5-1.5s.7-1.5 1.5-1.5h17.2c.8 0 1.5.7 1.5 1.5s-.7 1.5-1.5 1.5zM880.3 156.2h-17.2c-.8 0-1.5-.7-1.5-1.5s.7-1.5 1.5-1.5h17.2c.8 0 1.5.7 1.5 1.5s-.7 1.5-1.5 1.5zM880.3 149.3h-17.2c-.8 0-1.5-.7-1.5-1.5s.7-1.5 1.5-1.5h17.2c.8 0 1.5.7 1.5 1.5s-.7 1.5-1.5 1.5zM880.3 142.4h-17.2c-.8 0-1.5-.7-1.5-1.5s.7-1.5 1.5-1.5h17.2c.8 0 1.5.7 1.5 1.5s-.7 1.5-1.5 1.5zM880.3 135.6h-17.2c-.8 0-1.5-.7-1.5-1.5s.7-1.5 1.5-1.5h17.2c.8 0 1.5.7 1.5 1.5s-.7 1.5-1.5 1.5zM880.3 128.7h-17.2c-.8 0-1.5-.7-1.5-1.5s.7-1.5 1.5-1.5h17.2c.8 0 1.5.7 1.5 1.5s-.7 1.5-1.5 1.5zM880.3 121.8h-17.2c-.8 0-1.5-.7-1.5-1.5s.7-1.5 1.5-1.5h17.2c.8 0 1.5.7 1.5 1.5s-.7 1.5-1.5 1.5zM880.3 115h-17.2c-.8 0-1.5-.7-1.5-1.5s.7-1.5 1.5-1.5h17.2c.8 0 1.5.7 1.5 1.5s-.7 1.5-1.5 1.5zM880.3 108.1h-17.2c-.8 0-1.5-.7-1.5-1.5s.7-1.5 1.5-1.5h17.2c.8 0 1.5.7 1.5 1.5s-.7 1.5-1.5 1.5zM880.3 101.2h-17.2c-.8 0-1.5-.7-1.5-1.5s.7-1.5 1.5-1.5h17.2c.8 0 1.5.7 1.5 1.5s-.7 1.5-1.5 1.5zM880.3 94.4h-17.2c-.8 0-1.5-.7-1.5-1.5s.7-1.5 1.5-1.5h17.2c.8 0 1.5.7 1.5 1.5s-.7 1.5-1.5 1.5zM904.3 156.2h-17.2c-.8 0-1.5-.7-1.5-1.5s.7-1.5 1.5-1.5h17.2c.8 0 1.5.7 1.5 1.5s-.6 1.5-1.5 1.5zM904.3 149.3h-17.2c-.8 0-1.5-.7-1.5-1.5s.7-1.5 1.5-1.5h17.2c.8 0 1.5.7 1.5 1.5s-.6 1.5-1.5 1.5zM904.3 142.4h-17.2c-.8 0-1.5-.7-1.5-1.5s.7-1.5 1.5-1.5h17.2c.8 0 1.5.7 1.5 1.5s-.6 1.5-1.5 1.5z"/></g><g><path class="st1" d="M285.8 677.9c-.8 0-1.5-.7-1.5-1.5v-61.8c0-.8.7-1.5 1.5-1.5s1.5.7 1.5 1.5v61.8c0 .8-.6 1.5-1.5 1.5zM296.1 681.3c-.8 0-1.5-.7-1.5-1.5v-75.6c0-.8.7-1.5 1.5-1.5s1.5.7 1.5 1.5v75.6c0 .9-.6 1.5-1.5 1.5zM306.4 674.5c-.8 0-1.5-.7-1.5-1.5v-61.8c0-.8.7-1.5 1.5-1.5s1.5.7 1.5 1.5V673c0 .8-.6 1.5-1.5 1.5zM316.8 664.2c-.8 0-1.5-.7-1.5-1.5v-34.3c0-.8.7-1.5 1.5-1.5s1.5.7 1.5 1.5v34.3c0 .8-.7 1.5-1.5 1.5zM275.5 664.2c-.8 0-1.5-.7-1.5-1.5v-34.3c0-.8.7-1.5 1.5-1.5s1.5.7 1.5 1.5v34.3c0 .8-.6 1.5-1.5 1.5zM327.1 660.7c-.8 0-1.5-.7-1.5-1.5v-27.5c0-.8.7-1.5 1.5-1.5s1.5.7 1.5 1.5v27.5c0 .9-.7 1.5-1.5 1.5zM265.2 660.7c-.8 0-1.5-.7-1.5-1.5v-27.5c0-.8.7-1.5 1.5-1.5s1.5.7 1.5 1.5v27.5c0 .9-.6 1.5-1.5 1.5zM258.4 650.4c-.8 0-1.5-.7-1.5-1.5V642c0-.8.7-1.5 1.5-1.5s1.5.7 1.5 1.5v6.9c0 .9-.7 1.5-1.5 1.5zM333.9 650.4c-.8 0-1.5-.7-1.5-1.5V642c0-.8.7-1.5 1.5-1.5s1.5.7 1.5 1.5v6.9c0 .9-.6 1.5-1.5 1.5z"/></g><g><path class="st1" d="M576.4 304.6c-.4 0-.8-.2-1.1-.4l-9.7-9.7c-.6-.6-.6-1.5 0-2.1l14.6-14.6c.6-.6 1.6-.6 2.1 0l9.7 9.7c.6.6.6 1.5 0 2.1l-14.6 14.6c-.3.3-.6.4-1 .4zm-7.6-11.2l7.6 7.6 12.4-12.5-7.6-7.6-12.4 12.5zM530.2 350.8c-.4 0-.8-.2-1.1-.4l-9.7-9.7c-.3-.3-.4-.7-.4-1.1 0-.4.2-.8.4-1.1l14.6-14.6c.6-.6 1.5-.6 2.1 0l9.7 9.7c.3.3.4.7.4 1.1s-.2.8-.4 1.1l-14.6 14.6c-.2.2-.6.4-1 .4zm-7.6-11.3l7.6 7.6 12.5-12.5-7.6-7.6-12.5 12.5zM547.2 328.9c-.4 0-.8-.2-1.1-.4-6.6-6.6-6.6-17.4 0-24 6.6-6.6 17.4-6.6 24 0 .3.3.4.7.4 1.1 0 .4-.2.8-.4 1.1l-21.9 21.9c-.2.1-.6.3-1 .3zm1.1-22.3c-5.1 5.1-5.4 13.1-1 18.6l19.6-19.6c-5.5-4.4-13.5-4.1-18.6 1z"/><path class="st1" d="M558.5 324.9c-2.2 0-4.5-.9-6.2-2.6-.6-.6-.6-1.5 0-2.1.6-.6 1.5-.6 2.1 0 2.2 2.2 5.7 2.3 7.8.2 2-2.1 2-5.7-.2-7.9-.6-.6-.6-1.5 0-2.1.6-.6 1.5-.6 2.1 0 3.3 3.3 3.4 8.9.2 12.1-1.6 1.7-3.7 2.4-5.8 2.4zM558.4 335.4c-.9 0-1.8-.1-2.7-.2-.8-.1-1.4-.9-1.3-1.7.1-.8.9-1.4 1.7-1.3 5 .7 9.8-.9 13.3-4.5 3.5-3.5 5.1-8.4 4.4-13.4-.1-.8.4-1.6 1.3-1.7.8-.1 1.6.4 1.7 1.3.9 5.9-1 11.7-5.2 15.9-3.6 3.6-8.3 5.6-13.2 5.6z"/><path class="st1" d="M558.4 345.7c-1.1 0-2.2-.1-3.3-.2-.8-.1-1.4-.8-1.3-1.7.1-.8.8-1.4 1.7-1.3 7.9.9 15.7-1.8 21.3-7.5 5.6-5.6 8.3-13.4 7.4-21.2-.1-.8.5-1.6 1.3-1.7.8-.1 1.6.5 1.7 1.3 1 8.8-2.1 17.4-8.3 23.7-5.5 5.6-12.9 8.6-20.5 8.6z"/><path class="st1" d="M558.5 356c-2.2 0-4.4-.2-6.7-.6-.8-.1-1.4-.9-1.2-1.7.1-.8.9-1.4 1.7-1.2 11.8 2 23.4-1.8 31.8-10.2 8.4-8.5 12-20.1 10-31.9-.1-.8.4-1.6 1.2-1.7.8-.1 1.6.4 1.7 1.2 2.2 12.7-1.7 25.3-10.8 34.5-7.5 7.5-17.3 11.6-27.7 11.6z"/></g><g><path class="st1" d="M1212.8 602.1c-.8 0-1.5-.7-1.5-1.5v-79c0-.8.7-1.5 1.5-1.5s1.5.7 1.5 1.5v79c0 .8-.6 1.5-1.5 1.5zM1140.7 595.2c-.8 0-1.5-.7-1.5-1.5v-65.3c0-.8.7-1.5 1.5-1.5s1.5.7 1.5 1.5v65.3c0 .8-.7 1.5-1.5 1.5zM1151 583.2c-.8 0-1.5-.7-1.5-1.5v-41.2c0-.8.7-1.5 1.5-1.5s1.5.7 1.5 1.5v41.2c0 .8-.7 1.5-1.5 1.5zM1161.3 591.8c-.8 0-1.5-.7-1.5-1.5v-58.4c0-.8.7-1.5 1.5-1.5s1.5.7 1.5 1.5v58.4c0 .8-.6 1.5-1.5 1.5zM1171.6 602.1c-.8 0-1.5-.7-1.5-1.5v-79c0-.8.7-1.5 1.5-1.5s1.5.7 1.5 1.5v79c0 .8-.6 1.5-1.5 1.5zM1181.9 588.3c-.8 0-1.5-.7-1.5-1.5v-51.5c0-.8.7-1.5 1.5-1.5s1.5.7 1.5 1.5v51.5c0 .8-.6 1.5-1.5 1.5zM1192.2 579.7c-.8 0-1.5-.7-1.5-1.5v-34.3c0-.8.7-1.5 1.5-1.5s1.5.7 1.5 1.5v34.3c0 .9-.6 1.5-1.5 1.5zM1202.5 588.3c-.8 0-1.5-.7-1.5-1.5v-51.5c0-.8.7-1.5 1.5-1.5s1.5.7 1.5 1.5v51.5c0 .8-.6 1.5-1.5 1.5z"/></g><g><path class="st1" d="M1149.5 271.2c-1.8 0-3.5-.7-4.7-2-1.3-1.3-1.9-2.9-1.9-4.7 0-1.8.7-3.4 1.9-4.7l22.6-22.6c.6-.6 1.6-.6 2.1 0l7.3 7.3c.6.6.6 1.5 0 2.1l-22.6 22.6c-1.3 1.3-2.9 2-4.7 2zm18.9-30.7l-21.5 21.5c-.7.7-1.1 1.6-1.1 2.6s.4 1.9 1.1 2.6c.7.7 1.6 1.1 2.6 1.1s1.9-.4 2.6-1.1l21.5-21.5-5.2-5.2z"/><path class="st1" d="M1179.3 250.8c-.4 0-.8-.1-1.1-.4l-14.6-14.6c-.6-.6-.6-1.5 0-2.1.6-.6 1.5-.6 2.1 0l14.6 14.6c.6.6.6 1.5 0 2.1-.2.2-.6.4-1 .4z"/><path transform="rotate(-45.001 1190.387 223.701)" class="st1" d="M1164.4 222.2h51.9v3h-51.9z"/><path class="st1" d="M1212.8 210.9c-.4 0-.8-.2-1.1-.4l-8.5-8.5c-.3-.3-.5-.8-.4-1.2 0-.4.3-.8.6-1.1l12.2-8.4c.6-.4 1.4-.3 1.9.2l5.2 5.2c.5.5.6 1.4.1 2l-8.8 11.8c-.3.3-.7.6-1.1.6 0-.2-.1-.2-.1-.2zm-6.2-9.8l6 6 7-9.4-3.3-3.3-9.7 6.7zM1173.4 232.8l-12.2-12.1c-5.5 1.9-11.6.6-15.8-3.6-4.4-4.4-5.7-10.9-3.3-16.6.2-.5.6-.8 1.1-.9.5-.1 1 0 1.3.4l6.7 6.4h5.3v-5l-6.5-6.8c-.3-.4-.5-.9-.4-1.3s.4-.9.9-1.1c5.7-2.4 12-1.2 16.5 3.3 4.2 4.2 5.5 10.3 3.6 15.8l12.2 12.2-2.1 2.1-12.9-12.9c-.4-.4-.6-1.1-.3-1.6 2-4.6.9-9.9-2.6-13.4-3-3-7.1-4.2-11-3.3l5.3 5.5c.3.3.4.7.4 1v7.1c0 .8-.7 1.5-1.5 1.5h-7.4c-.4 0-.8-.1-1-.4l-5.4-5.1c-.9 4 .3 8.2 3.3 11.1 3.5 3.5 8.8 4.5 13.4 2.5.6-.2 1.2-.1 1.6.3l12.9 12.8-2.1 2.1zM1207.2 272.5c-4 0-7.8-1.5-10.7-4.5-4.2-4.2-5.5-10.3-3.6-15.8l-12.2-12.2 2.1-2.1 12.9 12.9c.4.4.6 1.1.3 1.6-2 4.6-.9 9.9 2.6 13.4 3 3 7.2 4.2 11.3 3.3l-5.3-5.5c-.3-.3-.4-.7-.4-1v-6.9c0-.8.7-1.5 1.5-1.5h6.9c.4 0 .7.1 1 .4l5.7 5.2c.9-4-.3-8.3-3.3-11.3-3.5-3.5-8.8-4.6-13.4-2.6-.6.2-1.2.1-1.6-.3l-12.9-12.9 2.1-2.1 12.2 12.2c5.5-1.9 11.6-.5 15.8 3.6 4.4 4.4 5.7 11 3.3 16.7-.2.4-.6.8-1.1.9-.5.1-1 0-1.3-.4l-7-6.4h-4.8v4.8l6.6 6.8c.3.4.5.9.4 1.3-.1.5-.4.9-.9 1.1-2.1.9-4.2 1.3-6.2 1.3z"/></g><g><path class="st1" d="M2196.6 880c-2.2 0-4.3-.9-5.9-2.5-1.6-1.6-2.4-3.7-2.4-5.9s.9-4.3 2.5-5.9l33-33c-4.1-9-2.2-19.6 4.9-26.7 7.2-7.2 18.7-9 27.8-4.4.4.2.7.6.8 1.1.1.5-.1.9-.4 1.3l-10.7 10.9v7.5h7l10.9-10.9c.3-.3.8-.5 1.3-.4.5.1.9.4 1.1.8 4.7 9.2 3 20.4-4.4 27.7-7.1 7.1-17.7 8.9-26.7 4.8l-33 33c-1.4 1.7-3.5 2.6-5.8 2.6zm49-77.9c-5.5 0-10.9 2.1-14.9 6.1-6.4 6.4-8 16.2-3.9 24.2.3.6.2 1.3-.3 1.7l-33.8 33.7c-1 1-1.6 2.4-1.6 3.8s.6 2.8 1.6 3.8 2.4 1.6 3.8 1.6 2.8-.6 3.8-1.6l33.7-33.7c.5-.5 1.2-.6 1.7-.3 8.1 4.1 17.8 2.6 24.2-3.8 5.9-5.9 7.7-14.7 4.7-22.3l-9.8 9.8c-.3.3-.7.4-1.1.4h-9.1c-.8 0-1.5-.7-1.5-1.5v-9.6c0-.4.2-.8.4-1l9.6-9.8c-2.3-1-4.9-1.5-7.5-1.5z"/></g></svg>