<svg version="1.1" id="Layer_1" xmlns="http://www.w3.org/2000/svg" x="0" y="0" viewBox="0 0 1280 1280" xml:space="preserve"><style>.st0{fill:#2b7a7b}</style><path class="st0" d="M87.5 755.8c-4.6 0-8.4-3.8-8.4-8.4V720c0-2.2.9-4.3 2.5-5.9 1.6-1.6 3.7-2.4 5.9-2.4 4.6 0 8.4 3.8 8.4 8.4v27.5c-.1 4.5-3.8 8.2-8.4 8.2zm0-41.2c-1.4 0-2.8.6-3.8 1.6s-1.6 2.4-1.6 3.8v27.5c0 3 2.4 5.4 5.4 5.4 1.4 0 2.8-.6 3.8-1.6s1.6-2.4 1.6-3.8V720c-.1-3-2.5-5.4-5.4-5.4zm6.8 32.9zM142.4 735.2h-41.2c-.8 0-1.5-.7-1.5-1.5s.7-1.5 1.5-1.5h41.2c.8 0 1.5.7 1.5 1.5s-.7 1.5-1.5 1.5zM73.7 735.2H63.4c-.8 0-1.5-.7-1.5-1.5s.7-1.5 1.5-1.5h10.3c.8 0 1.5.7 1.5 1.5s-.6 1.5-1.5 1.5zM198.3 355.8h-27.5c-4.6 0-8.4-3.8-8.4-8.4 0-4.6 3.8-8.4 8.4-8.4h27.5c2.2 0 4.3.9 5.9 2.4 1.6 1.6 2.5 3.7 2.5 5.9-.1 4.7-3.8 8.5-8.4 8.5zM170.8 342c-3 0-5.4 2.4-5.4 5.4 0 3 2.4 5.4 5.4 5.4h27.5c3 0 5.4-2.4 5.4-5.4 0-1.4-.6-2.8-1.6-3.8s-2.4-1.6-3.8-1.6h-27.5zM184.5 335.2c-.8 0-1.5-.7-1.5-1.5v-41.2c0-.8.7-1.5 1.5-1.5s1.5.7 1.5 1.5v41.2c0 .9-.7 1.5-1.5 1.5zM184.5 373c-.8 0-1.5-.7-1.5-1.5v-10.3c0-.8.7-1.5 1.5-1.5s1.5.7 1.5 1.5v10.3c0 .8-.7 1.5-1.5 1.5zM45.3 105.6c-2.2 0-4.5-.9-6.1-2.7-1.5-1.6-2.3-3.8-2.2-6 .1-2.2 1-4.3 2.7-5.8l33-32.9c-4.1-9-2.2-19.6 4.9-26.7 7.4-7.3 18.6-9.1 27.8-4.4.4.2.7.6.8 1.1.1.5-.1 1-.4 1.3L95 40.5V48h7l11-10.9c.3-.3.8-.5 1.3-.4.5.1.9.4 1.1.8 4.7 9.2 3 20.4-4.4 27.7-7.1 7.1-17.7 9-26.7 4.8l-33 33c-.1.1-.2.3-.4.4-1.6 1.5-3.6 2.2-5.6 2.2zm49.1-78.1c-5.4 0-10.8 2.1-14.8 6.1-6.4 6.4-8 16.1-3.9 24.2.3.6.2 1.3-.3 1.7L41.6 93.3c-1.1 1-1.7 2.3-1.7 3.8-.1 1.4.5 2.8 1.4 3.8 2 2.2 5.4 2.3 7.6.3l.3-.3L83 67.1c.5-.5 1.2-.6 1.7-.3 8.1 4.1 17.8 2.6 24.2-3.8 5.9-5.9 7.7-14.7 4.7-22.3l-9.8 9.8c-.3.3-.7.4-1.1.4h-9.1c-.8 0-1.5-.7-1.5-1.5v-9.6c0-.4.2-.8.4-1L102 29c-2.5-1-5.1-1.5-7.6-1.5zM1126.1 184.4h-75.6c-.8 0-1.5-.7-1.5-1.5v-79c0-.8.7-1.5 1.5-1.5h75.6c.8 0 1.5.7 1.5 1.5v79c0 .8-.6 1.5-1.5 1.5zm-74-3h72.6v-76h-72.6v76z"/><path class="st0" d="M1088.3 153.5c-.8 0-1.5-.7-1.5-1.5v-24c0-.8.7-1.5 1.5-1.5s1.5.7 1.5 1.5v24c0 .8-.6 1.5-1.5 1.5zM1109.1 153.5c-.8 0-1.5-.7-1.5-1.5v-6.9c0-.8.7-1.5 1.5-1.5s1.5.7 1.5 1.5v6.9c0 .8-.7 1.5-1.5 1.5zM1067.7 132.9c-.8 0-1.5-.7-1.5-1.5v-17.2c0-.8.7-1.5 1.5-1.5s1.5.7 1.5 1.5v17.2c0 .8-.6 1.5-1.5 1.5zM1067.7 153.5c-.8 0-1.5-.7-1.5-1.5v-13.7c0-.8.7-1.5 1.5-1.5s1.5.7 1.5 1.5V152c0 .8-.6 1.5-1.5 1.5zM1109.1 139.8c-.8 0-1.5-.7-1.5-1.5v-24c0-.8.7-1.5 1.5-1.5s1.5.7 1.5 1.5v24c0 .8-.7 1.5-1.5 1.5zM1088.3 122.6c-.8 0-1.5-.7-1.5-1.5v-6.9c0-.8.7-1.5 1.5-1.5s1.5.7 1.5 1.5v6.9c0 .8-.6 1.5-1.5 1.5z"/><path class="st0" d="M1115.9 146.6h-13.7c-.8 0-1.5-.7-1.5-1.5v-6.9c0-.8.7-1.5 1.5-1.5h13.7c.8 0 1.5.7 1.5 1.5v6.9c0 .9-.6 1.5-1.5 1.5zm-12.2-3h10.7v-3.9h-10.7v3.9zM1095.2 129.5h-13.7c-.8 0-1.5-.7-1.5-1.5v-6.9c0-.8.7-1.5 1.5-1.5h13.7c.8 0 1.5.7 1.5 1.5v6.9c0 .8-.7 1.5-1.5 1.5zm-12.2-3h10.7v-3.9H1083v3.9zM1074.6 139.8h-13.7c-.8 0-1.5-.7-1.5-1.5v-6.9c0-.8.7-1.5 1.5-1.5h13.7c.8 0 1.5.7 1.5 1.5v6.9c0 .8-.7 1.5-1.5 1.5zm-12.2-3h10.7v-3.9h-10.7v3.9zM1109.1 174.1c-3.7 0-6.6-3-6.6-6.6s3-6.6 6.6-6.6c3.7 0 6.7 3 6.7 6.6s-3 6.6-6.7 6.6zm0-10.3c-2 0-3.6 1.6-3.6 3.6s1.6 3.6 3.6 3.6 3.7-1.6 3.7-3.6-1.7-3.6-3.7-3.6zM1088.3 174.1c-3.7 0-6.6-3-6.6-6.6s3-6.6 6.6-6.6c3.7 0 6.7 3 6.7 6.6s-3 6.6-6.7 6.6zm0-10.3c-2 0-3.6 1.6-3.6 3.6s1.6 3.6 3.6 3.6 3.7-1.6 3.7-3.6-1.6-3.6-3.7-3.6zM1067.7 174.1c-3.7 0-6.7-3-6.7-6.6s3-6.6 6.7-6.6 6.6 3 6.6 6.6-2.9 6.6-6.6 6.6zm0-10.3c-2 0-3.7 1.6-3.7 3.6s1.6 3.6 3.7 3.6 3.6-1.6 3.6-3.6-1.5-3.6-3.6-3.6zM628.2 109.6c-.1 0-.1 0 0 0-.8 0-1.4-.6-1.5-1.3l-9.3-58.8-8.4 28c-.2.6-.8 1.1-1.4 1.1H587c-.8 0-1.5-.7-1.5-1.5s.7-1.5 1.5-1.5h19.5l10-33.3c.2-.7.8-1.1 1.5-1.1s1.3.6 1.4 1.3l9 57.3 8.6-40.2c.1-.6.7-1.1 1.3-1.2.7-.1 1.3.3 1.5.9l6.5 16.2h19.6c.8 0 1.5.7 1.5 1.5s-.7 1.5-1.5 1.5h-20.6c-.6 0-1.2-.4-1.4-.9l-5-12.6-9.3 43.3c-.1.8-.7 1.3-1.4 1.3zM1156.2 1025.5c-3.7 0-6.7-3-6.7-6.6 0-3.7 3-6.7 6.7-6.7s6.6 3 6.6 6.7c.1 3.6-2.9 6.6-6.6 6.6zm0-10.3c-2 0-3.7 1.6-3.7 3.7s1.6 3.6 3.7 3.6 3.6-1.6 3.6-3.6-1.5-3.7-3.6-3.7z"/><path class="st0" d="M1159.9 1016.7c-.4 0-.8-.1-1.1-.4-.6-.6-.6-1.5 0-2.1l17-17c.6-.6 1.5-.6 2.1 0s.6 1.5 0 2.1l-17 17c-.3.3-.6.4-1 .4zM1130.5 1022.1h-6.9c-.8 0-1.5-.7-1.5-1.5s.7-1.5 1.5-1.5h6.9c.8 0 1.5.7 1.5 1.5s-.7 1.5-1.5 1.5zM1188.9 1022.1h-6.9c-.8 0-1.5-.7-1.5-1.5s.7-1.5 1.5-1.5h6.9c.8 0 1.5.7 1.5 1.5s-.7 1.5-1.5 1.5zM1180 1010.5c-.6 0-1.1-.3-1.4-.9-.3-.8 0-1.6.8-2l6.3-2.6c.8-.3 1.6 0 2 .8.3.8 0 1.6-.8 2l-6.3 2.6c-.2.1-.4.1-.6.1zM1166.1 996.6c-.2 0-.4 0-.6-.1-.8-.3-1.1-1.2-.8-2l2.6-6.3c.3-.8 1.2-1.1 2-.8.8.3 1.1 1.2.8 2l-2.6 6.3c-.3.5-.8.9-1.4.9zM1156.2 994.6c-.8 0-1.5-.7-1.5-1.5v-6.9c0-.8.7-1.5 1.5-1.5s1.5.7 1.5 1.5v6.9c0 .8-.6 1.5-1.5 1.5zM1146.4 996.6c-.6 0-1.1-.3-1.4-.9l-2.6-6.3c-.3-.8 0-1.6.8-2 .8-.3 1.6 0 2 .8l2.6 6.3c.3.8 0 1.6-.8 2-.2 0-.4.1-.6.1zM1138 1002.2c-.4 0-.8-.1-1.1-.4l-4.8-4.9c-.6-.6-.6-1.5 0-2.1.6-.6 1.5-.6 2.1 0l4.8 4.9c.6.6.6 1.5 0 2.1-.2.2-.6.4-1 .4zM1132.4 1010.5c-.2 0-.4 0-.6-.1l-6.3-2.6c-.8-.3-1.1-1.2-.8-2 .3-.8 1.2-1.1 2-.8l6.3 2.6c.8.3 1.1 1.2.8 2-.2.6-.8.9-1.4.9z"/><path class="st0" d="M1195.7 1035.8h-79c-.8 0-1.5-.7-1.5-1.5v-15.5c0-22.6 18.4-41 41-41s41 18.4 41 41v15.5c0 .8-.6 1.5-1.5 1.5zm-77.5-3h76v-14c0-20.9-17.1-38-38-38-21 0-38 17-38 38v14zM188.5 531.8c-5.6 0-10.1-4.5-10.1-10.1s4.5-10.1 10.1-10.1 10.1 4.5 10.1 10.1-4.5 10.1-10.1 10.1zm0-17.2c-3.9 0-7.1 3.2-7.1 7.1 0 3.9 3.2 7.1 7.1 7.1 3.9 0 7.1-3.2 7.1-7.1 0-3.9-3.2-7.1-7.1-7.1zM188.5 562.7c-5.6 0-10.1-4.5-10.1-10.1s4.5-10.1 10.1-10.1 10.1 4.5 10.1 10.1-4.5 10.1-10.1 10.1zm0-17.2c-3.9 0-7.1 3.2-7.1 7.1 0 3.9 3.2 7.1 7.1 7.1 3.9 0 7.1-3.2 7.1-7.1 0-3.9-3.2-7.1-7.1-7.1zM188.5 593.6c-5.6 0-10.1-4.5-10.1-10.1s4.5-10.1 10.1-10.1 10.1 4.5 10.1 10.1-4.5 10.1-10.1 10.1zm0-17.1c-3.9 0-7.1 3.2-7.1 7.1s3.2 7.1 7.1 7.1c3.9 0 7.1-3.2 7.1-7.1s-3.2-7.1-7.1-7.1zM683.8 213.9c-.3 0-.6-.1-.8-.2-2.9-1.9-5.4-4.4-7.3-7.3-3.4-5.4-4.5-11.7-3.2-18 1.4-6.2 5.1-11.5 10.5-14.9 11.1-7.1 25.8-3.8 32.9 7.3s3.8 25.8-7.3 32.9c-.7.4-1.6.2-2.1-.5s-.2-1.6.5-2.1c9.7-6.2 12.5-19.1 6.4-28.7-6.2-9.7-19.1-12.5-28.7-6.4-4.7 3-7.9 7.6-9.1 13.1-1.2 5.4-.2 11 2.8 15.7 1.6 2.5 3.8 4.7 6.4 6.4.7.4.9 1.4.5 2.1-.5.4-1 .6-1.5.6z"/><path class="st0" d="M716 251.8h-27.4c-.5 0-1-.2-1.2-.7l-13.8-20.6c-1.2-1.8-1.8-4.9-.6-7.1.7-1.4 2.1-2.1 3.7-2.1 3.7 0 7.2 1.6 12.5 8.7v-33-.1c.2-3.7 3.3-6.5 7-6.3 3.5.2 6.2 2.9 6.3 6.4v19.6l14.2 4.8c4.3 1.4 5.3 6.3 4.3 10.4l-3.5 18.8c-.2.7-.8 1.2-1.5 1.2zm-26.6-3h25.3l3.3-17.7c.6-2.8.2-6.1-2.3-6.9l-15.3-5.2c-.6-.2-1-.8-1-1.4V197c-.1-1.9-1.6-3.4-3.5-3.5-2-.1-3.7 1.4-3.8 3.4v37.8c0 .7-.4 1.2-1.1 1.4-.6.2-1.3-.1-1.7-.6-6.8-10.4-10.2-11.3-12.7-11.3-.7 0-.9.3-1.1.6-.5.9-.3 2.8.5 4l13.4 20zM1048.6 814.4h-34.3c-.5 0-1-.3-1.3-.7-.3-.4-.3-1-.1-1.5l17.2-34.4c.3-.5.8-.8 1.3-.8s1.1.3 1.3.8l17.2 34.4c.2.5.2 1-.1 1.5-.2.4-.7.7-1.2.7zm-31.9-3h29.5l-14.8-29.5-14.7 29.5z"/><path class="st0" d="M1059.9 802.2c-.4 0-.7-.1-1-.4-.6-.6-.6-1.5 0-2.1 14.5-15.1 14-39.2-1.2-53.7-15.1-14.5-39.2-14-53.7 1.2-14.1 14.7-14.1 37.8 0 52.6.6.6.6 1.5 0 2.1-.6.6-1.5.6-2.1 0-15.2-15.9-15.2-40.8 0-56.7 15.6-16.3 41.6-16.9 58-1.3 16.3 15.6 16.9 41.6 1.3 58-.5.2-.9.3-1.3.3z"/><path class="st0" d="M1052.3 789.9c-.3 0-.6-.1-.9-.3-.7-.5-.8-1.4-.3-2.1 6.1-8.5 6.1-19.8 0-28.3-3.8-5.3-9.4-8.7-15.8-9.8-6.4-1-12.8.5-18.1 4.2-5.3 3.8-8.7 9.4-9.8 15.8-1 6.4.5 12.8 4.2 18.1.5.7.3 1.6-.3 2.1-.7.5-1.6.3-2.1-.3-4.2-5.9-5.9-13.1-4.8-20.3 1.2-7.2 5.1-13.5 11-17.7 5.9-4.2 13.1-5.9 20.3-4.8 7.2 1.2 13.5 5.1 17.7 11 6.8 9.5 6.8 22.3 0 31.8-.1.4-.6.6-1.1.6z"/><path class="st0" d="M1043.4 775.4c-.8 0-1.5-.7-1.5-1.5v-.5c0-5.8-4.7-10.5-10.5-10.5s-10.5 4.7-10.5 10.5v.5c0 .8-.7 1.5-1.5 1.5s-1.5-.7-1.5-1.5v-.5c0-7.4 6-13.5 13.5-13.5 7.4 0 13.5 6 13.5 13.5v.6c0 .8-.7 1.4-1.5 1.4z"/><path class="st0" d="M1031.4 780.1c-.8 0-1.5-.7-1.5-1.5v-6.9c0-.8.7-1.5 1.5-1.5s1.5.7 1.5 1.5v6.9c0 .8-.7 1.5-1.5 1.5z"/><path transform="rotate(-33.757 1027.127 804.28)" class="st0" d="M1011.7 802.8h30.9v3h-30.9z"/><path transform="rotate(-56.317 1035.675 804.34)" class="st0" d="M1034.2 788.8h3v31h-3z"/><path class="st0" d="M1025.5 789.1h11.9v3h-11.9zM449 212.9h-34.4c-.5 0-1-.2-1.2-.6-.3-.4-.3-.9-.2-1.4l17.2-46.4c.2-.6.8-1 1.4-1s1.2.4 1.4 1l17.2 46.4c.2.5.1 1-.2 1.4-.3.3-.7.6-1.2.6zm-32.2-3h30l-15-40.6-15 40.6z"/><path class="st0" d="M431.8 166.5c-.8 0-1.5-.7-1.5-1.5v-8.6c0-.8.7-1.5 1.5-1.5s1.5.7 1.5 1.5v8.6c0 .8-.7 1.5-1.5 1.5zM426.1 179h11.4v3h-11.4zM431.8 140.8c-.8 0-1.5-.7-1.5-1.5v-6.9c0-.8.7-1.5 1.5-1.5s1.5.7 1.5 1.5v6.9c0 .8-.7 1.5-1.5 1.5zM419.8 145.9c-.4 0-.8-.1-1.1-.4l-5.1-5.1c-.6-.6-.6-1.5 0-2.1.6-.6 1.5-.6 2.1 0l5.1 5.1c.6.6.6 1.5 0 2.1-.3.3-.7.4-1 .4zM414.6 157.9h-6.9c-.8 0-1.5-.7-1.5-1.5s.7-1.5 1.5-1.5h6.9c.8 0 1.5.7 1.5 1.5s-.7 1.5-1.5 1.5zM414.6 175.1c-.4 0-.8-.1-1.1-.4-.6-.6-.6-1.5 0-2.1l5.1-5.1c.6-.6 1.5-.6 2.1 0 .6.6.6 1.5 0 2.1l-5.1 5.1c-.2.3-.6.4-1 .4zM449 175.1c-.4 0-.8-.1-1.1-.4l-5.2-5.1c-.6-.6-.6-1.5 0-2.1.6-.6 1.5-.6 2.1 0l5.2 5.1c.6.6.6 1.5 0 2.1-.3.3-.7.4-1 .4zM443.8 145.9c-.4 0-.8-.1-1.1-.4-.6-.6-.6-1.5 0-2.1l5.2-5.1c.6-.6 1.5-.6 2.1 0s.6 1.5 0 2.1l-5.2 5.1c-.2.3-.6.4-1 .4zM455.8 157.9H449c-.8 0-1.5-.7-1.5-1.5s.7-1.5 1.5-1.5h6.9c.8 0 1.5.7 1.5 1.5s-.7 1.5-1.6 1.5z"/><path transform="rotate(-47.281 436.138 199.567)" class="st0" d="M434.7 182.1h3v34.8h-3z"/><path transform="rotate(-42.735 427.37 199.572)" class="st0" d="M410 198.1h34.8v3H410z"/><path class="st0" d="M789.1 446.5h-79c-.8 0-1.5-.7-1.5-1.5v-5.1c0-6.3 4-12 9.9-14.3h.1l21.8-6c.8-.2 1.6.2 1.8 1 .2.8-.2 1.6-1 1.8l-21.7 6c-4.7 1.8-7.9 6.4-7.9 11.4v3.6h76v-3.6c0-5.1-3.1-9.7-7.9-11.5l-21.6-6c-.8-.2-1.3-1-1-1.8.2-.8 1-1.3 1.8-1l21.7 6h.1c5.9 2.2 9.9 8 9.9 14.3v5.1c0 .9-.6 1.6-1.5 1.6zM746.2 405.3c-.8 0-1.5-.7-1.5-1.5v-.2c-.3-.1-1-.1-1.5-.1h-1c-.5 0-1.2 0-1.5.1v.2c0 .8-.7 1.5-1.5 1.5s-1.5-.7-1.5-1.5c0-1 .3-1.7.8-2.3 1-.9 2.3-.9 3.6-.9h.8c1.3 0 2.7 0 3.7.9.6.6.8 1.3.8 2.3.3.9-.4 1.5-1.2 1.5zM759.9 405.3c-.8 0-1.5-.7-1.5-1.5v-.2c-.3-.1-1-.1-1.5-.1h-1c-.5 0-1.2 0-1.5.1v.2c0 .8-.7 1.5-1.5 1.5s-1.5-.7-1.5-1.5c0-1 .3-1.7.8-2.3 1-.9 2.3-.9 3.6-.9h.8c1.3 0 2.7 0 3.6.9.6.6.8 1.3.8 2.3.4.9-.2 1.5-1.1 1.5z"/><path class="st0" d="M749.6 426.1c-5.3 0-17.7-6.7-18.6-17.5-2.6-.8-3.9-3.6-3.9-6.4 0-2.8 1.3-5.6 3.9-6.4V392c0-.8.7-1.5 1.5-1.5s1.5.7 1.5 1.5v5c0 .8-.7 1.5-1.5 1.5-1.9 0-2.4 2.4-2.4 3.6s.5 3.6 2.4 3.6c.8 0 1.5.7 1.5 1.5 0 9.1 11 15.8 15.7 15.8s15.7-6.7 15.7-15.8c0-.8.7-1.5 1.5-1.5 1.9 0 2.4-2.4 2.4-3.6s-.5-3.6-2.4-3.6c-.8 0-1.5-.7-1.5-1.5v-5c0-.8.7-1.5 1.5-1.5s1.5.7 1.5 1.5v3.7c2.5.8 3.9 3.6 3.9 6.4 0 2.8-1.3 5.7-3.9 6.4-1.1 10.3-12.6 17.6-18.8 17.6z"/><path class="st0" d="M758.2 436.2H741c-4.6 0-8.4-3.8-8.4-8.4v-5c0-.8.7-1.5 1.5-1.5s1.5.7 1.5 1.5v5c0 3 2.4 5.4 5.4 5.4h17.2c3 0 5.4-2.4 5.4-5.4v-5c0-.8.7-1.5 1.5-1.5s1.5.7 1.5 1.5v5c0 4.7-3.8 8.4-8.4 8.4zM723.9 446.5c-.8 0-1.5-.7-1.5-1.5v-19.3c0-.8.7-1.5 1.5-1.5s1.5.7 1.5 1.5V445c0 .9-.7 1.5-1.5 1.5zM775.4 446.5c-.8 0-1.5-.7-1.5-1.5v-19.3c0-.8.7-1.5 1.5-1.5s1.5.7 1.5 1.5V445c0 .9-.7 1.5-1.5 1.5zM749.6 396.7c-21.6 0-23.7-9.4-23.8-9.8-.1-.6.2-1.3.7-1.6l4.4-2.6c.4-7.3 5.3-13.1 13.3-15.6.8-.2 1.6.2 1.9 1 .2.8-.2 1.6-1 1.9-7 2.2-11.2 7.3-11.2 13.6 0 .5-.3 1-.7 1.3l-4 2.3c1.2 2 5.7 6.5 20.4 6.5s19.2-4.5 20.4-6.5l-4-2.3c-.5-.3-.7-.8-.7-1.3 0-6.4-4.1-11.4-11.2-13.6-.8-.2-1.2-1.1-1-1.9.2-.8 1.1-1.2 1.9-1 8 2.5 12.9 8.3 13.3 15.6l4.4 2.6c.6.3.8 1 .7 1.6 0 .4-2.2 9.8-23.8 9.8z"/><path class="st0" d="M752.9 388.1h-.1c-.8-.1-1.4-.8-1.4-1.6l1.8-18.9h-7l1.8 18.9c.1.8-.5 1.6-1.4 1.6-.8.1-1.6-.5-1.6-1.4l-1.9-20.5c0-.4.1-.8.4-1.1s.7-.5 1.1-.5h10.3c.4 0 .8.2 1.1.5s.4.7.4 1.1l-1.9 20.5c-.2.8-.9 1.4-1.6 1.4z"/><path class="st0" d="M749.6 388.2c-6 0-12-1-17.7-3.1-.8-.3-1.2-1.1-.9-1.9.3-.8 1.1-1.2 1.9-.9 10.7 3.9 22.6 3.9 33.3 0 .8-.3 1.6.1 1.9.9.3.8-.1 1.6-.9 1.9-5.6 2-11.6 3.1-17.6 3.1zM961 949.3h-79c-.8 0-1.5-.7-1.5-1.5v-20.6c0-.8.7-1.5 1.5-1.5h79c.8 0 1.5.7 1.5 1.5v20.6c0 .9-.7 1.5-1.5 1.5zm-77.5-3h76v-17.6h-76v17.6z"/><path class="st0" d="M882 928.7c-.4 0-.9-.2-1.2-.5-.5-.6-.4-1.6.2-2.1l20.6-17.2c.3-.2.6-.3 1-.3h37.8c.4 0 .7.1 1 .3l20.6 17.2c.6.5.7 1.5.2 2.1-.5.6-1.5.7-2.1.2l-20.2-16.8h-36.7L883 928.4c-.4.2-.7.3-1 .3zM928.3 940.7c-1.8 0-3.2-1.4-3.2-3.2 0-1.8 1.4-3.2 3.2-3.2 1.8 0 3.2 1.4 3.2 3.2 0 1.8-1.4 3.2-3.2 3.2zm0-3.4c-.1 0-.2.1-.2.2 0 .2.4.2.4 0 0-.1-.1-.2-.2-.2zM938.6 940.7c-1.8 0-3.2-1.4-3.2-3.2 0-1.8 1.4-3.2 3.2-3.2s3.2 1.4 3.2 3.2c0 1.8-1.4 3.2-3.2 3.2zm0-3.4c-.1 0-.2.1-.2.2 0 .2.4.2.4 0 0-.1-.1-.2-.2-.2zM948.9 940.7c-1.8 0-3.2-1.4-3.2-3.2 0-1.8 1.4-3.2 3.2-3.2s3.2 1.4 3.2 3.2c0 1.8-1.4 3.2-3.2 3.2zm0-3.4c-.1 0-.2.1-.2.2 0 .2.4.2.4 0 0-.1-.1-.2-.2-.2zM892.2 942.5c-2.7 0-4.9-2.2-4.9-4.9s2.2-4.9 4.9-4.9 4.9 2.2 4.9 4.9c.1 2.6-2.1 4.9-4.9 4.9zm0-6.9c-1.1 0-1.9.9-1.9 1.9s.9 1.9 1.9 1.9 1.9-.9 1.9-1.9-.8-1.9-1.9-1.9zM961 969.9h-79c-.8 0-1.5-.7-1.5-1.5v-20.6c0-.8.7-1.5 1.5-1.5s1.5.7 1.5 1.5v19.1h76v-19.1c0-.8.7-1.5 1.5-1.5s1.5.7 1.5 1.5v20.6c0 .9-.7 1.5-1.5 1.5z"/><path class="st0" d="M928.3 961.3c-1.8 0-3.2-1.4-3.2-3.2s1.4-3.2 3.2-3.2c1.8 0 3.2 1.4 3.2 3.2s-1.4 3.2-3.2 3.2zm0-3.4c-.1 0-.2.1-.2.2 0 .2.4.2.4 0 0-.1-.1-.2-.2-.2zM938.6 961.3c-1.8 0-3.2-1.4-3.2-3.2s1.4-3.2 3.2-3.2 3.2 1.4 3.2 3.2-1.4 3.2-3.2 3.2zm0-3.4c-.1 0-.2.1-.2.2 0 .2.4.2.4 0 0-.1-.1-.2-.2-.2zM948.9 961.3c-1.8 0-3.2-1.4-3.2-3.2s1.4-3.2 3.2-3.2 3.2 1.4 3.2 3.2-1.4 3.2-3.2 3.2zm0-3.4c-.1 0-.2.1-.2.2 0 .2.4.2.4 0 0-.1-.1-.2-.2-.2zM892.2 963.1c-2.7 0-4.9-2.2-4.9-4.9s2.2-4.9 4.9-4.9 4.9 2.2 4.9 4.9-2.1 4.9-4.9 4.9zm0-6.9c-1.1 0-1.9.9-1.9 1.9s.9 1.9 1.9 1.9 1.9-.9 1.9-1.9-.8-1.9-1.9-1.9zM954.1 990.5h-65.3c-4.6 0-8.4-3.8-8.4-8.4v-13.7c0-.8.7-1.5 1.5-1.5s1.5.7 1.5 1.5v13.7c0 3 2.4 5.4 5.4 5.4h65.3c3 0 5.4-2.4 5.4-5.4v-13.7c0-.8.7-1.5 1.5-1.5s1.5.7 1.5 1.5v13.7c0 4.7-3.8 8.4-8.4 8.4z"/><path class="st0" d="M928.3 982c-1.8 0-3.2-1.4-3.2-3.2 0-1.8 1.4-3.2 3.2-3.2 1.8 0 3.2 1.4 3.2 3.2 0 1.7-1.4 3.2-3.2 3.2zm0-3.5c-.1 0-.2.1-.2.2 0 .2.4.2.4 0 0-.1-.1-.2-.2-.2zM938.6 982c-1.8 0-3.2-1.4-3.2-3.2 0-1.8 1.4-3.2 3.2-3.2s3.2 1.4 3.2 3.2c0 1.7-1.4 3.2-3.2 3.2zm0-3.5c-.1 0-.2.1-.2.2 0 .2.4.2.4 0 0-.1-.1-.2-.2-.2zM948.9 982c-1.8 0-3.2-1.4-3.2-3.2 0-1.8 1.4-3.2 3.2-3.2s3.2 1.4 3.2 3.2c0 1.7-1.4 3.2-3.2 3.2zm0-3.5c-.1 0-.2.1-.2.2 0 .2.4.2.4 0 0-.1-.1-.2-.2-.2zM892.2 983.7c-2.7 0-4.9-2.2-4.9-4.9s2.2-4.9 4.9-4.9 4.9 2.2 4.9 4.9c.1 2.7-2.1 4.9-4.9 4.9zm0-6.9c-1.1 0-1.9.9-1.9 1.9s.9 1.9 1.9 1.9 1.9-.9 1.9-1.9-.8-1.9-1.9-1.9zM132.3 521.5H67c-4.6 0-8.4-3.8-8.4-8.4v-34.3c0-4.6 3.8-8.4 8.4-8.4h65.3c4.6 0 8.4 3.8 8.4 8.4v34.3c-.1 4.7-3.8 8.4-8.4 8.4zm-65.3-48c-3 0-5.4 2.4-5.4 5.4v34.3c0 3 2.4 5.4 5.4 5.4h65.3c3 0 5.4-2.4 5.4-5.4v-34.3c0-3-2.4-5.4-5.4-5.4H67z"/><path class="st0" d="M127.1 500.9h-55c-3.7 0-6.7-3-6.7-6.7V484c0-3.7 3-6.7 6.7-6.7h55c3.7 0 6.6 3 6.6 6.7v10.3c.1 3.6-2.9 6.6-6.6 6.6zm-54.9-20.6c-2 0-3.7 1.6-3.7 3.7v10.3c0 2 1.6 3.7 3.7 3.7h55c2 0 3.6-1.6 3.6-3.7V484c0-2-1.6-3.7-3.6-3.7h-55zM73.9 514.7c-2.7 0-4.9-2.2-4.9-4.9s2.2-4.9 4.9-4.9 4.9 2.2 4.9 4.9-2.2 4.9-4.9 4.9zm0-6.9c-1.1 0-1.9.9-1.9 1.9s.9 1.9 1.9 1.9c1.1 0 1.9-.9 1.9-1.9s-.9-1.9-1.9-1.9zM125.4 514.7c-2.7 0-4.9-2.2-4.9-4.9s2.2-4.9 4.9-4.9 4.9 2.2 4.9 4.9-2.2 4.9-4.9 4.9zm0-6.9c-1.1 0-1.9.9-1.9 1.9s.9 1.9 1.9 1.9c1.1 0 1.9-.9 1.9-1.9s-.8-1.9-1.9-1.9zM87.4 514.7c-2.5 0-4.7-2-4.9-4.7-.1-1.3.4-2.6 1.3-3.6s2.1-1.6 3.4-1.6h24.4c2.7 0 4.9 2.2 4.9 4.9s-2.2 4.9-4.9 4.9h-24c0 .1-.1.1-.2.1zm.1-6.9h-.1c-1.1.1-1.9 1-1.8 2 .1 1.1 1 1.9 2 1.8h24.1c1.1 0 1.9-.9 1.9-1.9 0-1.1-.9-1.9-1.9-1.9H87.5z"/><path class="st0" d="M132.3 487.2H67c-.8 0-1.5-.7-1.5-1.5s.7-1.5 1.5-1.5h65.3c.8 0 1.5.7 1.5 1.5s-.7 1.5-1.5 1.5zM132.3 494.1H67c-.8 0-1.5-.7-1.5-1.5s.7-1.5 1.5-1.5h65.3c.8 0 1.5.7 1.5 1.5s-.7 1.5-1.5 1.5zM104.8 514.7c-.8 0-1.5-.7-1.5-1.5v-6.9c0-.8.7-1.5 1.5-1.5s1.5.7 1.5 1.5v6.9c0 .8-.7 1.5-1.5 1.5zM67 473.5c-.6 0-1.1-.3-1.3-.8-.4-.7-.1-1.6.7-2l55-27.5c.7-.4 1.6-.1 2 .7s.1 1.6-.7 2l-55 27.5c-.2 0-.5.1-.7.1zM77.3 525c-.8 0-1.5-.7-1.5-1.5V520c0-.8.7-1.5 1.5-1.5s1.5.7 1.5 1.5v3.4c0 .9-.7 1.6-1.5 1.6zM122 525c-.8 0-1.5-.7-1.5-1.5V520c0-.8.7-1.5 1.5-1.5s1.5.7 1.5 1.5v3.4c0 .9-.7 1.6-1.5 1.6zM488.6 825.7c-.4 0-.8-.2-1.1-.4l-23.6-23.6h-11.4c-3.7 0-6.6-3-6.6-6.6v-10.3c0-3.7 3-6.6 6.6-6.7h11.4l23.6-23.6c.4-.4 1.1-.6 1.6-.3.6.2.9.8.9 1.4v68.6c0 .6-.4 1.2-.9 1.4-.2 0-.4.1-.5.1zm-36.1-44.6c-2 0-3.6 1.6-3.6 3.7V795c0 2 1.6 3.6 3.7 3.7h12c.4 0 .8.2 1.1.4l21.4 21.4v-61.4l-21.4 21.5c-.3.3-.7.4-1.1.4h-12.1zM514.4 818.9c-.4 0-.8-.2-1.1-.5-.5-.6-.5-1.6.1-2.1 7.3-6.4 11.5-16 11.5-26.4s-4.2-20-11.5-26.4c-.6-.5-.7-1.5-.1-2.1.5-.6 1.5-.7 2.1-.1 8 7 12.5 17.4 12.5 28.6s-4.6 21.7-12.5 28.6c-.3.3-.7.4-1 .4z"/><path class="st0" d="M505.8 812c-.4 0-.9-.2-1.2-.5-.5-.6-.4-1.6.2-2.1 6.2-5.2 9.7-12.1 9.7-19.5s-3.4-14.3-9.7-19.4c-.6-.5-.7-1.5-.2-2.1.5-.6 1.5-.7 2.1-.2 6.9 5.7 10.8 13.5 10.8 21.7 0 8.3-3.8 16-10.8 21.8-.3.2-.6.3-.9.3z"/><path class="st0" d="M498.9 803.4c-.5 0-.9-.2-1.2-.6-.5-.7-.3-1.6.3-2.1 4-2.9 6.3-6.7 6.3-10.8 0-4-2.2-7.9-6.3-10.8-.7-.5-.8-1.4-.3-2.1.5-.7 1.4-.8 2.1-.3 4.8 3.5 7.5 8.2 7.5 13.3 0 5-2.7 9.7-7.5 13.2-.3.1-.6.2-.9.2zM1056.5 331.8h-58.4c-4.6 0-8.4-3.8-8.4-8.4v-30.9c0-4.6 3.8-8.4 8.4-8.4h58.4c4.6 0 8.4 3.8 8.4 8.4v30.9c0 4.7-3.7 8.4-8.4 8.4zm-58.3-44.6c-3 0-5.4 2.4-5.4 5.4v30.9c0 3 2.4 5.4 5.4 5.4h58.4c3 0 5.4-2.4 5.4-5.4v-30.9c0-3-2.4-5.4-5.4-5.4h-58.4z"/><path class="st0" d="M1018.8 287.2h-24c-.8 0-1.5-.7-1.5-1.5v-30.9c0-.8.7-1.5 1.5-1.5h24c.8 0 1.5.7 1.5 1.5v30.9c0 .8-.7 1.5-1.5 1.5zm-22.6-3h21v-27.9h-21v27.9z"/><path class="st0" d="M1006.7 282c-4.6 0-8.4-3.8-8.4-8.4s3.8-8.4 8.4-8.4 8.4 3.8 8.4 8.4-3.7 8.4-8.4 8.4zm0-13.7c-3 0-5.4 2.4-5.4 5.4s2.4 5.4 5.4 5.4 5.4-2.4 5.4-5.4-2.4-5.4-5.4-5.4zM1060 287.2h-24c-.8 0-1.5-.7-1.5-1.5v-30.9c0-.8.7-1.5 1.5-1.5h24c.8 0 1.5.7 1.5 1.5v30.9c0 .8-.7 1.5-1.5 1.5zm-22.6-3h21v-27.9h-21v27.9z"/><path class="st0" d="M1048 282c-4.6 0-8.4-3.8-8.4-8.4s3.8-8.4 8.4-8.4 8.4 3.8 8.4 8.4-3.8 8.4-8.4 8.4zm0-13.7c-3 0-5.4 2.4-5.4 5.4s2.4 5.4 5.4 5.4 5.4-2.4 5.4-5.4-2.5-5.4-5.4-5.4zM1003.3 260.1h6.9v3h-6.9zM1044.5 260.1h6.9v3h-6.9zM1056.5 311.2h-58.4c-.8 0-1.5-.7-1.5-1.5v-17.2c0-.8.7-1.5 1.5-1.5h58.4c.8 0 1.5.7 1.5 1.5v17.2c0 .8-.6 1.5-1.5 1.5zm-56.8-3h55.4V294h-55.4v14.2zM1006.7 325c-2.7 0-4.9-2.2-4.9-4.9s2.2-4.9 4.9-4.9 4.9 2.2 4.9 4.9c.1 2.6-2.1 4.9-4.9 4.9zm0-6.9c-1.1 0-1.9.9-1.9 1.9 0 1.1.9 1.9 1.9 1.9s1.9-.9 1.9-1.9c.1-1-.8-1.9-1.9-1.9zM1023.9 325c-2.7 0-4.9-2.2-4.9-4.9s2.2-4.9 4.9-4.9 4.9 2.2 4.9 4.9c0 2.6-2.2 4.9-4.9 4.9zm0-6.9c-1.1 0-1.9.9-1.9 1.9 0 1.1.9 1.9 1.9 1.9s1.9-.9 1.9-1.9c0-1-.8-1.9-1.9-1.9zM1056.4 318.1h-13.6c-.8 0-1.5-.7-1.5-1.5s.7-1.5 1.5-1.5h13.6c.8 0 1.5.7 1.5 1.5s-.6 1.5-1.5 1.5zM1056.4 325h-13.6c-.8 0-1.5-.7-1.5-1.5s.7-1.5 1.5-1.5h13.6c.8 0 1.5.7 1.5 1.5s-.6 1.5-1.5 1.5z"/><path class="st0" d="M1003.5 301.1h3v8.6h-3zM1010.4 297.7h3v12h-3zM1017.3 301.1h3v8.6h-3zM1024.1 301.1h3v8.6h-3zM1031 297.7h3v12h-3zM1037.9 301.1h3v8.6h-3zM1213.6 866.7h-.4c-9.3-.2-16.8-8-16.5-17.4 0-6.7-2.9-9.9-6.2-13.6-3.5-3.9-7.5-8.2-7.5-17.3.3-12.8 10.5-23.1 23.3-23.4h.5c12.9 0 23.5 10.4 23.8 23.3 0 .8-.6 1.5-1.5 1.5s-1.5-.6-1.5-1.5c-.2-11.3-9.5-20.4-20.8-20.4h-.4c-11.2.2-20.1 9.2-20.4 20.4 0 7.9 3.3 11.4 6.7 15.2 3.5 3.8 7 7.7 7 15.7-.2 7.7 5.9 14.2 13.6 14.3h.4c7.5 0 13.8-6 14-13.6v-.7c0-.8.6-1.5 1.5-1.5.8 0 1.5.6 1.5 1.5v.9c-.4 9.2-8 16.6-17.1 16.6zM1168.4 851.2c-.4 0-.8-.2-1.1-.5-16-16-16-42 0-58 .6-.6 1.5-.6 2.1 0s.6 1.5 0 2.1c-14.8 14.8-14.8 38.9 0 53.7l.1.1c.5.6.4 1.6-.2 2.1-.2.4-.5.5-.9.5z"/><path class="st0" d="M1178.2 841.5c-.4 0-.8-.1-1.1-.4-5.2-5.2-8-12-8-19.3s2.8-14.1 8-19.3c.6-.6 1.5-.6 2.1 0 .6.6.6 1.5 0 2.1-4.6 4.6-7.1 10.7-7.1 17.1 0 6.5 2.5 12.6 7.1 17.2.6.6.6 1.5 0 2.1-.3.4-.7.5-1 .5zM1210.1 840.5c-4.6 0-8.4-3.7-8.4-8.4 0-2.3-1.1-3.3-2.6-4.8-1.9-1.8-4.2-4-4.2-9 .2-6.3 5.2-11.3 11.4-11.5 3.2-.1 6.2 1 8.5 3.2s3.6 5.1 3.7 8.2c0 .8-.6 1.5-1.5 1.5-.8.1-1.5-.6-1.5-1.5-.2-4.9-4.2-8.7-9.1-8.5-4.6.1-8.4 3.9-8.5 8.5 0 3.6 1.5 5.1 3.3 6.7 1.7 1.6 3.6 3.4 3.6 6.9 0 3 2.4 5.4 5.4 5.4 3 0 5.4-2.4 5.4-5.4 0-.8.7-1.5 1.5-1.5s1.5.7 1.5 1.5c-.1 4.9-3.9 8.7-8.5 8.7zM236.4 869.7h-65.3c-4.6 0-8.4-3.8-8.4-8.4v-17.2c0-4.6 3.8-8.4 8.4-8.4h65.3c4.6 0 8.4 3.8 8.4 8.4v17.2c0 4.6-3.8 8.4-8.4 8.4zm-65.3-30.9c-3 0-5.4 2.4-5.4 5.4v17.2c0 3 2.4 5.4 5.4 5.4h65.3c3 0 5.4-2.4 5.4-5.4v-17.2c0-3-2.4-5.4-5.4-5.4h-65.3zM207.2 828.5h-10.3c-6 0-10.1-4.7-10.1-11.8v-17.2c0-7.1 4.1-11.8 10.1-11.8h10.3c6 0 10.1 4.7 10.1 11.8v17.2c0 7-4.1 11.8-10.1 11.8zm-10.3-37.8c-5.2 0-7.1 4.5-7.1 8.8v17.2c0 4.3 1.9 8.8 7.1 8.8h10.3c5.2 0 7.1-4.6 7.1-8.8v-17.2c0-4.3-1.9-8.8-7.1-8.8h-10.3z"/><path class="st0" d="M202.1 838.8c-.8 0-1.5-.7-1.5-1.5v-18.9c0-.8.7-1.5 1.5-1.5s1.5.7 1.5 1.5v18.9c0 .8-.7 1.5-1.5 1.5zM198.6 804.4h-10.3c-.8 0-1.5-.7-1.5-1.5s.7-1.5 1.5-1.5h10.3c.8 0 1.5.7 1.5 1.5s-.6 1.5-1.5 1.5zM198.6 811.3h-10.3c-.8 0-1.5-.7-1.5-1.5s.7-1.5 1.5-1.5h10.3c.8 0 1.5.7 1.5 1.5s-.6 1.5-1.5 1.5zM215.8 804.4h-6.9c-.8 0-1.5-.7-1.5-1.5s.7-1.5 1.5-1.5h6.9c.8 0 1.5.7 1.5 1.5s-.7 1.5-1.5 1.5zM215.8 811.3h-6.9c-.8 0-1.5-.7-1.5-1.5s.7-1.5 1.5-1.5h6.9c.8 0 1.5.7 1.5 1.5s-.7 1.5-1.5 1.5zM195.2 859.4c-.5 0-1-.2-1.2-.7l-4.1-6.2v5.3c0 .8-.7 1.5-1.5 1.5s-1.5-.7-1.5-1.5v-10.3c0-.7.4-1.2 1.1-1.4.6-.2 1.3.1 1.7.6l4.1 6.2v-5.3c0-.8.7-1.5 1.5-1.5s1.5.7 1.5 1.5v10.3c0 .7-.4 1.2-1.1 1.4-.2.1-.4.1-.5.1zM178 859.4c-2.8 0-4.9-2.9-4.9-6.6 0-3.7 2.2-6.7 4.9-6.7s4.9 2.9 4.9 6.7c.1 3.7-2.1 6.6-4.9 6.6zm0-10.3c-.9 0-1.9 1.6-1.9 3.7s1 3.6 1.9 3.6 1.9-1.6 1.9-3.6-1-3.7-1.9-3.7zM219.2 859.4c-.8 0-1.5-.7-1.5-1.5v-10.3c0-.8.7-1.5 1.5-1.5s1.5.7 1.5 1.5v10.3c0 .8-.6 1.5-1.5 1.5zM205.5 859.4c-.2 0-.3 0-.5-.1-.8-.3-1.2-1.1-.9-1.9l3.8-10.3c.2-.6.8-1 1.4-1s1.2.4 1.4 1l3.8 10.3c.3.8-.1 1.6-.9 1.9-.8.3-1.6-.1-1.9-.9l-2.4-6.4-2.4 6.4c-.2.6-.8 1-1.4 1z"/><path class="st0" d="M212.4 857.7h-6.3c-.8 0-1.5-.7-1.5-1.5s.7-1.5 1.5-1.5h6.3c.8 0 1.5.7 1.5 1.5s-.7 1.5-1.5 1.5zM226.1 859.4c-.8 0-1.5-.7-1.5-1.5v-10.3c0-.8.7-1.5 1.5-1.5h2.7c2.6 0 4.7 0 4.7 3.3 0 3.2-1.6 4.8-4.7 4.8h-1.2v3.6c0 .9-.7 1.6-1.5 1.6zm1.5-8.2h1.2c1.5 0 1.7-.4 1.7-1.8v-.3h-2.9v2.1z"/><path class="st0" d="M232 859.4c-.5 0-1-.3-1.3-.7l-3.2-5.1c-.4-.7-.2-1.6.5-2.1.7-.4 1.6-.2 2.1.5l3.2 5.1c.4.7.2 1.6-.5 2.1-.2.1-.5.2-.8.2zM696.6 928.1c-22.6 0-41-18.4-41-41s18.4-41 41-41 41 18.4 41 41-18.4 41-41 41zm0-79c-21 0-38 17-38 38s17 38 38 38 38-17 38-38-17-38-38-38z"/><path class="st0" d="M684.6 904c-.3 0-.5-.1-.8-.2-.4-.3-.7-.8-.7-1.3v-30.9c0-.5.3-1 .7-1.3.4-.3 1-.3 1.5-.1l30.9 15.5c.5.3.8.8.8 1.3s-.3 1.1-.8 1.3l-30.9 15.5c-.2.2-.5.2-.7.2zm1.5-29.9v26.1l26.1-13-26.1-13.1zM767 1161.6h-17.2c-.8 0-1.5-.7-1.5-1.5s.7-1.5 1.5-1.5H767c.8 0 1.5.7 1.5 1.5s-.6 1.5-1.5 1.5zM767 1154.8h-17.2c-.8 0-1.5-.7-1.5-1.5s.7-1.5 1.5-1.5H767c.8 0 1.5.7 1.5 1.5s-.6 1.5-1.5 1.5zM767 1147.9h-17.2c-.8 0-1.5-.7-1.5-1.5s.7-1.5 1.5-1.5H767c.8 0 1.5.7 1.5 1.5s-.6 1.5-1.5 1.5zM767 1141h-17.2c-.8 0-1.5-.7-1.5-1.5s.7-1.5 1.5-1.5H767c.8 0 1.5.7 1.5 1.5s-.6 1.5-1.5 1.5zM767 1134.2h-17.2c-.8 0-1.5-.7-1.5-1.5s.7-1.5 1.5-1.5H767c.8 0 1.5.7 1.5 1.5s-.6 1.5-1.5 1.5zM791.1 1161.6h-17.2c-.8 0-1.5-.7-1.5-1.5s.7-1.5 1.5-1.5h17.2c.8 0 1.5.7 1.5 1.5s-.7 1.5-1.5 1.5zM791.1 1154.8h-17.2c-.8 0-1.5-.7-1.5-1.5s.7-1.5 1.5-1.5h17.2c.8 0 1.5.7 1.5 1.5s-.7 1.5-1.5 1.5zM791.1 1147.9h-17.2c-.8 0-1.5-.7-1.5-1.5s.7-1.5 1.5-1.5h17.2c.8 0 1.5.7 1.5 1.5s-.7 1.5-1.5 1.5zM791.1 1141h-17.2c-.8 0-1.5-.7-1.5-1.5s.7-1.5 1.5-1.5h17.2c.8 0 1.5.7 1.5 1.5s-.7 1.5-1.5 1.5zM791.1 1134.2h-17.2c-.8 0-1.5-.7-1.5-1.5s.7-1.5 1.5-1.5h17.2c.8 0 1.5.7 1.5 1.5s-.7 1.5-1.5 1.5zM791.1 1127.3h-17.2c-.8 0-1.5-.7-1.5-1.5s.7-1.5 1.5-1.5h17.2c.8 0 1.5.7 1.5 1.5s-.7 1.5-1.5 1.5zM791.1 1120.4h-17.2c-.8 0-1.5-.7-1.5-1.5s.7-1.5 1.5-1.5h17.2c.8 0 1.5.7 1.5 1.5s-.7 1.5-1.5 1.5zM791.1 1113.5h-17.2c-.8 0-1.5-.7-1.5-1.5s.7-1.5 1.5-1.5h17.2c.8 0 1.5.7 1.5 1.5s-.7 1.5-1.5 1.5zM791.1 1106.7h-17.2c-.8 0-1.5-.7-1.5-1.5s.7-1.5 1.5-1.5h17.2c.8 0 1.5.7 1.5 1.5s-.7 1.5-1.5 1.5zM791.1 1099.8h-17.2c-.8 0-1.5-.7-1.5-1.5s.7-1.5 1.5-1.5h17.2c.8 0 1.5.7 1.5 1.5s-.7 1.5-1.5 1.5zM815.1 1161.6H798c-.8 0-1.5-.7-1.5-1.5s.7-1.5 1.5-1.5h17.2c.8 0 1.5.7 1.5 1.5s-.7 1.5-1.6 1.5zM815.1 1154.8H798c-.8 0-1.5-.7-1.5-1.5s.7-1.5 1.5-1.5h17.2c.8 0 1.5.7 1.5 1.5s-.7 1.5-1.6 1.5zM815.1 1147.9H798c-.8 0-1.5-.7-1.5-1.5s.7-1.5 1.5-1.5h17.2c.8 0 1.5.7 1.5 1.5s-.7 1.5-1.6 1.5zM533.6 1204.3c-.8 0-1.5-.7-1.5-1.5V1141c0-.8.7-1.5 1.5-1.5s1.5.7 1.5 1.5v61.8c0 .9-.7 1.5-1.5 1.5zM543.9 1207.8c-.8 0-1.5-.7-1.5-1.5v-75.6c0-.8.7-1.5 1.5-1.5s1.5.7 1.5 1.5v75.6c0 .8-.6 1.5-1.5 1.5zM554.2 1200.9c-.8 0-1.5-.7-1.5-1.5v-61.8c0-.8.7-1.5 1.5-1.5s1.5.7 1.5 1.5v61.8c0 .8-.6 1.5-1.5 1.5zM564.5 1190.6c-.8 0-1.5-.7-1.5-1.5v-34.4c0-.8.7-1.5 1.5-1.5s1.5.7 1.5 1.5v34.4c0 .8-.6 1.5-1.5 1.5zM523.3 1190.6c-.8 0-1.5-.7-1.5-1.5v-34.4c0-.8.7-1.5 1.5-1.5s1.5.7 1.5 1.5v34.4c0 .8-.7 1.5-1.5 1.5zM574.8 1187.2c-.8 0-1.5-.7-1.5-1.5v-27.5c0-.8.7-1.5 1.5-1.5s1.5.7 1.5 1.5v27.5c0 .8-.6 1.5-1.5 1.5zM513 1187.2c-.8 0-1.5-.7-1.5-1.5v-27.5c0-.8.7-1.5 1.5-1.5s1.5.7 1.5 1.5v27.5c0 .8-.7 1.5-1.5 1.5zM506.1 1176.9c-.8 0-1.5-.7-1.5-1.5v-6.9c0-.8.7-1.5 1.5-1.5s1.5.7 1.5 1.5v6.9c0 .8-.6 1.5-1.5 1.5zM581.7 1176.9c-.8 0-1.5-.7-1.5-1.5v-6.9c0-.8.7-1.5 1.5-1.5s1.5.7 1.5 1.5v6.9c0 .8-.7 1.5-1.5 1.5zM473.1 977.1c-.4 0-.8-.1-1.1-.4l-9.7-9.7c-.3-.3-.4-.7-.4-1.1 0-.4.2-.8.4-1.1l14.6-14.6c.6-.6 1.5-.6 2.1 0l9.7 9.7c.3.3.4.7.4 1.1 0 .4-.2.8-.4 1.1l-14.6 14.6c-.2.3-.6.4-1 .4zm-7.6-11.2l7.6 7.6 12.5-12.5-7.6-7.6-12.5 12.5zM427 1023.2c-.4 0-.8-.2-1.1-.4l-9.7-9.7c-.6-.6-.6-1.5 0-2.1l14.6-14.6c.6-.6 1.5-.6 2.1 0l9.7 9.7c.3.3.4.7.4 1.1s-.2.8-.4 1.1l-14.6 14.6c-.2.1-.6.3-1 .3zm-7.6-11.2l7.6 7.6 12.5-12.5-7.6-7.6-12.5 12.5zM444 1001.3c-.4 0-.7-.1-1-.4-6.6-6.6-6.6-17.3 0-23.9 6.6-6.6 17.4-6.6 24 0 .6.6.6 1.5 0 2.1l-21.9 21.8c-.3.3-.7.4-1.1.4zm1.1-22.2c-5.1 5.1-5.4 13.1-1 18.6l19.6-19.6c-5.5-4.5-13.5-4.1-18.6 1 0-.1 0 0 0 0z"/><path class="st0" d="M455.2 997.4c-2.2 0-4.5-.9-6.1-2.6-.6-.6-.6-1.5 0-2.1.6-.6 1.5-.6 2.1 0 2.1 2.2 5.5 2.3 7.8.2 2.1-2.3 2-5.7-.2-7.9-.6-.6-.6-1.5 0-2.1.6-.6 1.5-.6 2.1 0 3.3 3.3 3.4 8.6.2 12.1l-.1.1c-1.6 1.5-3.7 2.3-5.8 2.3zm4.8-3.4zM455.1 1007.8c-.9 0-1.8-.1-2.6-.2s-1.4-.9-1.3-1.7.9-1.4 1.7-1.3c1.5.2 3 .2 4.5 0 4.1-.6 7.8-2.8 10.3-6.2 2.5-3.4 3.5-7.5 2.9-11.6-.1-.8.4-1.6 1.3-1.7.8-.1 1.6.4 1.7 1.3.7 4.9-.5 9.9-3.5 13.9s-7.3 6.6-12.3 7.3c-.8.1-1.8.2-2.7.2z"/><path class="st0" d="M455.1 1018.1c-1.1 0-2.2-.1-3.2-.2-.8-.1-1.4-.8-1.3-1.7.1-.8.8-1.4 1.7-1.3 1.9.2 3.9.2 5.8 0 6.9-.8 13.1-4.2 17.4-9.6 4.3-5.4 6.3-12.2 5.5-19.1-.1-.8.5-1.6 1.3-1.7.8-.1 1.6.5 1.7 1.3.9 7.7-1.3 15.3-6.2 21.3s-11.7 9.8-19.4 10.7c-1.1.2-2.2.3-3.3.3z"/><path class="st0" d="M455.1 1028.4c-2.2 0-4.3-.2-6.5-.5-.8-.1-1.4-.9-1.2-1.7.1-.8.9-1.4 1.7-1.2 4.1.7 8.2.7 12.3-.1 9.6-1.7 17.9-7 23.4-14.9 5.6-7.9 7.7-17.6 6-27.1-.1-.8.4-1.6 1.2-1.7.8-.1 1.6.4 1.7 1.2 1.8 10.3-.5 20.8-6.5 29.4-6 8.6-15 14.3-25.4 16.2-2.1.2-4.4.4-6.7.4zM138.6 1057.5c-.8 0-1.5-.7-1.5-1.5v-79c0-.8.7-1.5 1.5-1.5s1.5.7 1.5 1.5v79c0 .8-.6 1.5-1.5 1.5zM66.5 1050.6c-.8 0-1.5-.7-1.5-1.5v-65.3c0-.8.7-1.5 1.5-1.5s1.5.7 1.5 1.5v65.3c0 .9-.7 1.5-1.5 1.5zM76.8 1038.6c-.8 0-1.5-.7-1.5-1.5v-41.2c0-.8.7-1.5 1.5-1.5s1.5.7 1.5 1.5v41.2c0 .8-.7 1.5-1.5 1.5zM87.1 1047.2c-.8 0-1.5-.7-1.5-1.5v-58.4c0-.8.7-1.5 1.5-1.5s1.5.7 1.5 1.5v58.4c0 .8-.7 1.5-1.5 1.5zM97.4 1057.5c-.8 0-1.5-.7-1.5-1.5v-79c0-.8.7-1.5 1.5-1.5s1.5.7 1.5 1.5v79c0 .8-.7 1.5-1.5 1.5zM107.7 1043.8c-.8 0-1.5-.7-1.5-1.5v-51.5c0-.8.7-1.5 1.5-1.5s1.5.7 1.5 1.5v51.5c0 .8-.7 1.5-1.5 1.5zM118 1035.2c-.8 0-1.5-.7-1.5-1.5v-34.3c0-.8.7-1.5 1.5-1.5s1.5.7 1.5 1.5v34.3c0 .8-.7 1.5-1.5 1.5zM128.3 1043.8c-.8 0-1.5-.7-1.5-1.5v-51.5c0-.8.7-1.5 1.5-1.5s1.5.7 1.5 1.5v51.5c0 .8-.7 1.5-1.5 1.5zM263.3 1117.7c-1.8 0-3.4-.7-4.7-2-1.3-1.3-1.9-2.9-1.9-4.7 0-1.8.7-3.4 1.9-4.7l22.6-22.6c.6-.6 1.5-.6 2.1 0l7.3 7.3c.3.3.4.7.4 1.1s-.2.8-.4 1.1l-22.6 22.6c-1.3 1.2-2.9 1.9-4.7 1.9zm18.9-30.8l-21.5 21.5c-.7.7-1.1 1.6-1.1 2.6s.4 1.9 1.1 2.6c1.4 1.4 3.8 1.4 5.2 0l21.5-21.5-5.2-5.2z"/><path class="st0" d="M293.1 1097.2c-.4 0-.8-.1-1.1-.4l-14.6-14.6c-.6-.6-.6-1.5 0-2.1s1.5-.6 2.1 0l14.6 14.6c.6.6.6 1.5 0 2.1-.2.3-.6.4-1 .4z"/><path transform="rotate(-45.001 304.159 1070.139)" class="st0" d="M278.2 1068.6h51.9v3h-51.9z"/><path class="st0" d="M326.6 1057.3c-.4 0-.8-.2-1.1-.4l-8.5-8.5c-.3-.3-.5-.8-.4-1.2 0-.4.3-.8.6-1.1l12.2-8.4c.6-.4 1.4-.3 1.9.2l5.1 5.1c.5.5.6 1.4.1 2l-8.8 11.8c-.3.3-.7.6-1.1.6.1-.1 0-.1 0-.1zm-6.2-9.7l6 6 7-9.4-3.3-3.3-9.7 6.7zM287.2 1079.3l-12.2-12.1c-5.5 1.9-11.6.6-15.8-3.6-4.4-4.4-5.7-10.9-3.3-16.7.2-.5.6-.8 1.1-.9.5-.1 1 0 1.3.4l6.7 6.4h5.3v-5l-6.5-6.8c-.3-.4-.5-.9-.4-1.3.1-.5.4-.9.9-1.1 5.6-2.4 12.2-1.1 16.5 3.3 4.2 4.2 5.5 10.2 3.6 15.7l12.2 12.2-2.1 2.1-12.9-12.9c-.4-.4-.6-1.1-.3-1.6 2-4.6.9-9.9-2.6-13.4-2.9-3-7.1-4.2-11-3.3l5.3 5.5c.3.3.4.7.4 1v7.1c0 .8-.7 1.5-1.5 1.5h-7.4c-.4 0-.8-.1-1-.4l-5.4-5.2c-.9 4 .3 8.2 3.3 11.2 3.6 3.5 8.8 4.5 13.4 2.6.6-.2 1.2-.1 1.7.3l12.9 12.8-2.2 2.2zM321 1118.9c-2 0-4.1-.4-5.9-1.2-7.4-3.1-11.1-11.5-8.4-19l-12.2-12.2 2.1-2.1 12.9 12.9c.4.4.6 1.1.3 1.6-2.6 6.2.3 13.4 6.5 16 2.3 1 4.9 1.2 7.4.7l-5.3-5.5c-.3-.3-.4-.7-.4-1v-6.9c0-.8.7-1.5 1.5-1.5h6.9c.4 0 .7.1 1 .4l5.7 5.2c1.3-5.6-1.6-11.6-7.2-13.9-3-1.3-6.5-1.3-9.5 0-.6.2-1.2.1-1.6-.3l-12.9-12.9 2.1-2.1 12.2 12.2c3.5-1.2 7.5-1.1 10.9.4 7.7 3.3 11.4 12.2 8.1 20-.2.5-.6.8-1.1.9-.5.1-1 0-1.3-.4l-7-6.4H321v4.8l6.6 6.8c.3.4.5.9.4 1.3-.1.5-.4.9-.9 1.1-2 .7-4 1.1-6.1 1.1zM846.3 851.6h-.3c-2.2-.1-4.3-1-5.8-2.7-1.5-1.6-2.3-3.8-2.2-6s1-4.3 2.7-5.8l33-32.9c-4.1-9-2.2-19.6 4.9-26.7 7.4-7.3 18.6-9.1 27.8-4.4.4.2.7.6.8 1.1.1.5-.1 1-.4 1.3l-10.8 11v7.5h7l10.9-10.9c.3-.3.8-.5 1.3-.4.5.1.9.4 1.1.8 4.7 9.2 3 20.4-4.4 27.7-7.1 7.1-17.7 9-26.7 4.8l-33 33c-.1.1-.2.3-.4.4-1.4 1.4-3.4 2.2-5.5 2.2zm49.1-78.1c-5.4 0-10.8 2.1-14.8 6.1-6.4 6.4-8 16.1-3.9 24.2.3.6.2 1.3-.3 1.7l-33.8 33.7c-1.1 1-1.7 2.3-1.7 3.8-.1 1.4.5 2.8 1.4 3.8 1 1 2.3 1.7 3.7 1.7 1.4 0 2.8-.5 3.8-1.4l.3-.3 33.8-33.7c.5-.5 1.2-.6 1.7-.3 8.1 4.1 17.8 2.6 24.2-3.8 5.9-5.9 7.7-14.7 4.7-22.3l-9.8 9.8c-.3.3-.7.4-1.1.4h-9.2c-.8 0-1.5-.7-1.5-1.5v-9.7c0-.4.2-.8.4-1l9.6-9.8c-2.4-.9-5-1.4-7.5-1.4zM271.7 117.4c-2.2 0-4.3-.9-5.9-2.4-1.6-1.6-2.5-3.7-2.5-5.9V81.5c0-4.6 3.8-8.4 8.4-8.4 4.6 0 8.4 3.8 8.4 8.4V109c0 2.2-.9 4.3-2.4 5.9-1.7 1.6-3.8 2.5-6 2.5zm0-41.2c-1.4 0-2.8.6-3.8 1.6s-1.6 2.4-1.6 3.8V109c0 1.4.6 2.8 1.6 3.8s2.4 1.6 3.8 1.6 2.8-.6 3.8-1.6 1.6-2.4 1.6-3.8V81.5c-.1-2.9-2.5-5.3-5.4-5.3zM326.6 96.8h-41.2c-.8 0-1.5-.7-1.5-1.5s.7-1.5 1.5-1.5h41.2c.8 0 1.5.7 1.5 1.5s-.6 1.5-1.5 1.5zM257.9 96.8h-10.3c-.8 0-1.5-.7-1.5-1.5s.7-1.5 1.5-1.5h10.3c.8 0 1.5.7 1.5 1.5s-.6 1.5-1.5 1.5zM741.5 628.3H714c-2.2 0-4.3-.9-5.9-2.5-1.6-1.6-2.4-3.7-2.4-5.9 0-4.6 3.8-8.4 8.4-8.4h27.5c4.6 0 8.4 3.8 8.4 8.4-.2 4.7-3.9 8.4-8.5 8.4zM714 614.6c-3 0-5.4 2.4-5.4 5.4 0 1.4.6 2.8 1.6 3.8s2.4 1.6 3.8 1.6h27.4c3 0 5.4-2.4 5.4-5.4 0-3-2.4-5.4-5.4-5.4H714zM727.7 607.8c-.8 0-1.5-.7-1.5-1.5v-41.2c0-.8.7-1.5 1.5-1.5s1.5.7 1.5 1.5v41.2c0 .8-.7 1.5-1.5 1.5zM727.7 645.6c-.8 0-1.5-.7-1.5-1.5v-10.3c0-.8.7-1.5 1.5-1.5s1.5.7 1.5 1.5v10.3c0 .8-.7 1.5-1.5 1.5zM518.3 554.6h-.3c-2.2-.1-4.3-1-5.8-2.7-1.5-1.6-2.3-3.8-2.2-6 .1-2.2 1-4.3 2.7-5.8l33-32.9c-4.1-9-2.2-19.6 4.9-26.7 7.4-7.3 18.6-9.1 27.8-4.4.4.2.7.6.8 1.1.1.5-.1 1-.4 1.3l-10.8 11v7.5h7l10.9-10.9c.3-.3.8-.5 1.3-.4.5.1.9.4 1.1.8 4.7 9.2 3 20.4-4.4 27.7-7.1 7.1-17.7 9-26.7 4.8l-33 33c-.1.1-.2.3-.4.4-1.4 1.4-3.4 2.2-5.5 2.2zm49.1-78.1c-5.4 0-10.8 2.1-14.8 6.1-6.4 6.4-8 16.1-3.9 24.2.3.6.2 1.3-.3 1.7l-33.8 33.7c-1.1 1-1.7 2.3-1.7 3.8-.1 1.4.5 2.8 1.4 3.8s2.3 1.7 3.7 1.7c1.4.1 2.8-.5 3.8-1.4l.3-.3 33.8-33.8c.5-.5 1.2-.6 1.7-.3 8.1 4.1 17.8 2.6 24.2-3.8 5.9-5.9 7.7-14.7 4.7-22.3l-9.8 9.8c-.3.3-.7.4-1.1.4h-9.1c-.8 0-1.5-.7-1.5-1.5v-9.6c0-.4.2-.8.4-1l9.6-9.8c-2.5-.9-5.1-1.4-7.6-1.4zM1203.3 1199h-75.6c-.8 0-1.5-.7-1.5-1.5v-79c0-.8.7-1.5 1.5-1.5h75.6c.8 0 1.5.7 1.5 1.5v79c0 .8-.6 1.5-1.5 1.5zm-74-3h72.6v-76h-72.6v76z"/><path class="st0" d="M1165.6 1168.1c-.8 0-1.5-.7-1.5-1.5v-24c0-.8.7-1.5 1.5-1.5s1.5.7 1.5 1.5v24c0 .8-.7 1.5-1.5 1.5zM1186.3 1168.1c-.8 0-1.5-.7-1.5-1.5v-6.9c0-.8.7-1.5 1.5-1.5s1.5.7 1.5 1.5v6.9c0 .8-.7 1.5-1.5 1.5zM1145 1147.5c-.8 0-1.5-.7-1.5-1.5v-17.2c0-.8.7-1.5 1.5-1.5s1.5.7 1.5 1.5v17.2c0 .8-.7 1.5-1.5 1.5zM1145 1168.1c-.8 0-1.5-.7-1.5-1.5v-13.7c0-.8.7-1.5 1.5-1.5s1.5.7 1.5 1.5v13.7c0 .8-.7 1.5-1.5 1.5zM1186.3 1154.3c-.8 0-1.5-.7-1.5-1.5v-24c0-.8.7-1.5 1.5-1.5s1.5.7 1.5 1.5v24c0 .8-.7 1.5-1.5 1.5zM1165.6 1137.2c-.8 0-1.5-.7-1.5-1.5v-6.9c0-.8.7-1.5 1.5-1.5s1.5.7 1.5 1.5v6.9c0 .8-.7 1.5-1.5 1.5z"/><path class="st0" d="M1193.2 1161.2h-13.7c-.8 0-1.5-.7-1.5-1.5v-6.9c0-.8.7-1.5 1.5-1.5h13.7c.8 0 1.5.7 1.5 1.5v6.9c0 .8-.7 1.5-1.5 1.5zm-12.3-3h10.7v-3.9h-10.7v3.9zM1172.4 1144h-13.7c-.8 0-1.5-.7-1.5-1.5v-6.9c0-.8.7-1.5 1.5-1.5h13.7c.8 0 1.5.7 1.5 1.5v6.9c0 .8-.6 1.5-1.5 1.5zm-12.2-3h10.7v-3.9h-10.7v3.9zM1151.8 1154.3h-13.7c-.8 0-1.5-.7-1.5-1.5v-6.9c0-.8.7-1.5 1.5-1.5h13.7c.8 0 1.5.7 1.5 1.5v6.9c0 .8-.6 1.5-1.5 1.5zm-12.2-3h10.7v-3.9h-10.7v3.9zM1186.3 1188.7c-3.7 0-6.7-3-6.7-6.7s3-6.6 6.7-6.6 6.6 3 6.6 6.6c.1 3.7-2.9 6.7-6.6 6.7zm0-10.3c-2 0-3.7 1.6-3.7 3.6s1.6 3.7 3.7 3.7 3.6-1.6 3.6-3.7-1.6-3.6-3.6-3.6zM1165.6 1188.7c-3.7 0-6.7-3-6.7-6.7s3-6.6 6.7-6.6 6.6 3 6.6 6.6c0 3.7-3 6.7-6.6 6.7zm0-10.3c-2 0-3.7 1.6-3.7 3.6s1.6 3.7 3.7 3.7 3.6-1.6 3.6-3.7-1.6-3.6-3.6-3.6zM1145 1188.7c-3.7 0-6.7-3-6.7-6.7s3-6.6 6.7-6.6 6.7 3 6.7 6.6c-.1 3.7-3.1 6.7-6.7 6.7zm0-10.3c-2 0-3.7 1.6-3.7 3.6s1.6 3.7 3.7 3.7 3.7-1.6 3.7-3.7-1.7-3.6-3.7-3.6zM973.4 1112.1c-.8 0-1.4-.6-1.5-1.3l-9.3-58.8-8.4 28c-.2.6-.8 1.1-1.4 1.1h-20.6c-.8 0-1.5-.7-1.5-1.5s.7-1.5 1.5-1.5h19.5l10-33.3c.2-.7.8-1.1 1.5-1.1s1.3.6 1.4 1.3l9.1 57.3 8.6-40.2c.1-.6.7-1.1 1.3-1.2.7-.1 1.3.3 1.5.9l6.5 16.2h19.6c.8 0 1.5.7 1.5 1.5s-.7 1.5-1.5 1.5h-20.6c-.6 0-1.2-.4-1.4-.9l-5-12.6-9.3 43.3c-.2.8-.8 1.3-1.5 1.3zM151.5 196.1c-3.7 0-6.7-3-6.7-6.6s3-6.6 6.7-6.6 6.6 3 6.6 6.6-3 6.6-6.6 6.6zm0-10.3c-2 0-3.7 1.6-3.7 3.6s1.6 3.6 3.7 3.6 3.6-1.6 3.6-3.6-1.6-3.6-3.6-3.6z"/><path class="st0" d="M155.1 187.3c-.4 0-.8-.1-1.1-.4-.6-.6-.6-1.5 0-2.1l17-17c.6-.6 1.5-.6 2.1 0 .6.6.6 1.5 0 2.1l-17 17c-.2.2-.6.4-1 .4zM125.7 192.6h-6.9c-.8 0-1.5-.7-1.5-1.5s.7-1.5 1.5-1.5h6.9c.8 0 1.5.7 1.5 1.5s-.7 1.5-1.5 1.5zM184.1 192.6h-6.9c-.8 0-1.5-.7-1.5-1.5s.7-1.5 1.5-1.5h6.9c.8 0 1.5.7 1.5 1.5s-.7 1.5-1.5 1.5zM175.3 181.1c-.6 0-1.1-.3-1.4-.9-.3-.8 0-1.6.8-2l6.4-2.6c.8-.3 1.6 0 2 .8.3.8 0 1.6-.8 2l-6.4 2.6c-.3 0-.5.1-.6.1zM161.3 167.1c-.2 0-.4 0-.6-.1-.8-.3-1.1-1.2-.8-2l2.6-6.4c.3-.8 1.2-1.1 2-.8.8.3 1.1 1.2.8 2l-2.6 6.4c-.2.6-.8.9-1.4.9zM151.5 165.2c-.8 0-1.5-.7-1.5-1.5v-6.9c0-.8.7-1.5 1.5-1.5s1.5.7 1.5 1.5v6.9c0 .8-.7 1.5-1.5 1.5zM141.6 167.1c-.6 0-1.1-.3-1.4-.9l-2.6-6.4c-.3-.8 0-1.6.8-2 .8-.3 1.6 0 2 .8l2.6 6.4c.3.8 0 1.6-.8 2-.2.1-.4.1-.6.1zM133.2 172.7c-.4 0-.8-.1-1.1-.4l-4.9-4.9c-.6-.6-.6-1.5 0-2.1.6-.6 1.5-.6 2.1 0l4.9 4.9c.6.6.6 1.5 0 2.1-.2.3-.6.4-1 .4zM127.6 181.1c-.2 0-.4 0-.6-.1l-6.3-2.6c-.8-.3-1.1-1.2-.8-2s1.2-1.1 2-.8l6.3 2.6c.8.3 1.1 1.2.8 2-.2.5-.8.9-1.4.9z"/><path class="st0" d="M191 206.4h-79c-.8 0-1.5-.7-1.5-1.5v-15.5c0-22.6 18.4-41 40.9-41h.1c22.6 0 41 18.4 41 41v15.4c0 .9-.7 1.6-1.5 1.6zm-77.5-3h76v-14c0-20.9-17-38-38-38l-.1-1.5v1.5c-20.9 0-38 17.1-38 38v14zM385.7 1169.4c-5.6 0-10.1-4.5-10.1-10.1s4.5-10.1 10.1-10.1 10.1 4.5 10.1 10.1c0 5.5-4.5 10.1-10.1 10.1zm0-17.2c-3.9 0-7.1 3.2-7.1 7.1 0 3.9 3.2 7.1 7.1 7.1 3.9 0 7.1-3.2 7.1-7.1 0-3.9-3.2-7.1-7.1-7.1zM385.7 1200.3c-5.6 0-10.1-4.5-10.1-10.1s4.5-10.1 10.1-10.1 10.1 4.5 10.1 10.1-4.5 10.1-10.1 10.1zm0-17.2c-3.9 0-7.1 3.2-7.1 7.1 0 3.9 3.2 7.1 7.1 7.1 3.9 0 7.1-3.2 7.1-7.1 0-3.9-3.2-7.1-7.1-7.1zM385.7 1231.2c-5.6 0-10.1-4.5-10.1-10.1s4.5-10.1 10.1-10.1 10.1 4.5 10.1 10.1-4.5 10.1-10.1 10.1zm0-17.2c-3.9 0-7.1 3.2-7.1 7.1s3.2 7.1 7.1 7.1c3.9 0 7.1-3.2 7.1-7.1s-3.2-7.1-7.1-7.1zM398.8 486h-34.3c-.5 0-1-.3-1.3-.7-.3-.4-.3-1-.1-1.5l17.2-34.3c.3-.5.8-.8 1.3-.8.6 0 1.1.3 1.3.8l17.2 34.3c.2.5.2 1-.1 1.5s-.7.7-1.2.7zm-31.9-3h29.5l-14.7-29.5-14.8 29.5z"/><path class="st0" d="M410.2 473.8c-.4 0-.7-.1-1-.4-.6-.6-.6-1.5 0-2.1 14.5-15.1 14-39.2-1.2-53.7-7.3-7-17-10.8-27.1-10.5-10.1.2-19.6 4.4-26.6 11.7-14.1 14.7-14.1 37.8 0 52.6.6.6.6 1.5 0 2.1-.6.6-1.5.6-2.1 0-15.2-15.9-15.2-40.8 0-56.7 7.6-7.9 17.8-12.4 28.7-12.6 10.9-.3 21.3 3.8 29.2 11.4 16.3 15.6 16.9 41.6 1.3 58-.5 0-.8.2-1.2.2z"/><path class="st0" d="M402.5 461.5c-.3 0-.6-.1-.9-.3-.7-.5-.8-1.4-.3-2.1 6.1-8.5 6.1-19.9 0-28.3-3.8-5.3-9.4-8.7-15.8-9.8-6.4-1-12.8.5-18.1 4.2-10.9 7.8-13.4 23-5.5 33.9.5.7.3 1.6-.3 2.1-.7.5-1.6.3-2.1-.3-8.8-12.2-6-29.3 6.2-38.1 5.9-4.3 13.1-5.9 20.3-4.8 7.2 1.2 13.5 5.1 17.7 11 6.8 9.5 6.8 22.3 0 31.8-.2.5-.7.7-1.2.7z"/><path class="st0" d="M393.6 447c-.8 0-1.5-.7-1.5-1.5v-.5c0-5.8-4.7-10.5-10.5-10.5s-10.5 4.7-10.5 10.5v.5c0 .8-.7 1.5-1.5 1.5s-1.5-.7-1.5-1.5v-.5c0-7.4 6.1-13.5 13.5-13.5s13.5 6.1 13.5 13.5v.5c0 .8-.6 1.5-1.5 1.5z"/><path class="st0" d="M381.6 451.6c-.8 0-1.5-.7-1.5-1.5v-6.9c0-.8.7-1.5 1.5-1.5s1.5.7 1.5 1.5v6.9c0 .8-.6 1.5-1.5 1.5z"/><path transform="rotate(-33.757 377.357 475.852)" class="st0" d="M361.9 474.4h30.9v3h-30.9z"/><path transform="rotate(-56.317 385.902 475.878)" class="st0" d="M384.4 460.4h3v31h-3z"/><path class="st0" d="M375.7 460.6h11.9v3h-11.9zM765.2 780.5h-34.3c-.5 0-1-.2-1.2-.6-.3-.4-.3-.9-.2-1.4l17.2-46.4c.2-.6.8-1 1.4-1s1.2.4 1.4 1l17.2 46.4c.2.5.1 1-.2 1.4-.4.3-.8.6-1.3.6zm-32.2-3h30l-15-40.6-15 40.6z"/><path class="st0" d="M748 734.1c-.8 0-1.5-.7-1.5-1.5V724c0-.8.7-1.5 1.5-1.5s1.5.7 1.5 1.5v8.6c0 .8-.7 1.5-1.5 1.5zM742.3 746.5h11.5v3h-11.5zM748 708.3c-.8 0-1.5-.7-1.5-1.5V700c0-.8.7-1.5 1.5-1.5s1.5.7 1.5 1.5v6.9c0 .7-.7 1.4-1.5 1.4zM736 713.5c-.4 0-.8-.1-1.1-.4l-5.2-5.1c-.6-.6-.6-1.5 0-2.1.6-.6 1.5-.6 2.1 0l5.2 5.1c.6.6.6 1.5 0 2.1-.3.2-.6.4-1 .4zM730.8 725.5H724c-.8 0-1.5-.7-1.5-1.5s.7-1.5 1.5-1.5h6.9c.8 0 1.5.7 1.5 1.5s-.8 1.5-1.6 1.5zM730.8 742.7c-.4 0-.8-.1-1.1-.4-.6-.6-.6-1.5 0-2.1l5.2-5.2c.6-.6 1.5-.6 2.1 0s.6 1.5 0 2.1l-5.2 5.2c-.2.2-.6.4-1 .4zM765.2 742.7c-.4 0-.8-.1-1.1-.4l-5.2-5.2c-.6-.6-.6-1.5 0-2.1.6-.6 1.5-.6 2.1 0l5.2 5.2c.6.6.6 1.5 0 2.1-.3.2-.6.4-1 .4zM760 713.5c-.4 0-.8-.1-1.1-.4-.6-.6-.6-1.5 0-2.1l5.2-5.1c.6-.6 1.5-.6 2.1 0s.6 1.5 0 2.1l-5.2 5.1c-.2.2-.6.4-1 .4zM772 725.5h-6.9c-.8 0-1.5-.7-1.5-1.5s.7-1.5 1.5-1.5h6.9c.8 0 1.5.7 1.5 1.5s-.6 1.5-1.5 1.5z"/><path transform="rotate(-47.266 752.416 767.155)" class="st0" d="M750.9 749.7h3v34.8h-3z"/><path transform="rotate(-42.731 743.563 767.075)" class="st0" d="M726.2 765.6H761v3h-34.8z"/><path class="st0" d="M116.4 1235.1h-79c-.8 0-1.5-.7-1.5-1.5v-5.2c0-6.3 4-12.1 9.9-14.3h.1l21.8-6c.8-.2 1.6.2 1.8 1 .2.8-.2 1.6-1 1.8l-21.7 6c-4.7 1.8-7.9 6.4-7.9 11.4v3.7h76v-3.7c0-5.1-3.2-9.6-7.9-11.4l-21.6-6c-.8-.2-1.3-1-1-1.8.2-.8 1-1.3 1.8-1l21.7 6h.1c5.9 2.2 9.9 8 9.9 14.3v5.1c0 .9-.7 1.6-1.5 1.6zM73.4 1193.9c-.8 0-1.5-.7-1.5-1.5v-.1c-.3-.1-1-.1-1.5-.1h-1c-.5 0-1.2 0-1.5.1v.1c0 .8-.7 1.5-1.5 1.5s-1.5-.7-1.5-1.5c0-1 .3-1.7.8-2.3 1-.9 2.3-.9 3.6-.9h.8c1.3 0 2.7 0 3.6.9.6.6.8 1.3.8 2.3.4.8-.3 1.5-1.1 1.5zm-5.3-1.8zM87.2 1193.9c-.8 0-1.5-.7-1.5-1.5v-.1c-.3-.1-1-.1-1.5-.1h-1c-.5 0-1.2 0-1.5.1v.1c0 .8-.7 1.5-1.5 1.5s-1.5-.7-1.5-1.5c0-1 .3-1.7.8-2.3 1-.9 2.3-.9 3.6-.9h.8c1.3 0 2.7 0 3.7.9.6.6.8 1.3.8 2.3.3.8-.4 1.5-1.2 1.5z"/><path class="st0" d="M76.8 1214.7c-5.3 0-17.7-6.7-18.6-17.5-2.6-.8-3.9-3.6-3.9-6.4 0-2.8 1.3-5.6 3.9-6.4v-3.7c0-.8.7-1.5 1.5-1.5s1.5.7 1.5 1.5v5c0 .8-.7 1.5-1.5 1.5-1.9 0-2.4 2.4-2.4 3.7 0 1.3.5 3.7 2.4 3.7.8 0 1.5.7 1.5 1.5 0 9.1 11 15.8 15.7 15.8 4.7 0 15.7-6.7 15.7-15.8 0-.8.7-1.5 1.5-1.5 1.9 0 2.4-2.4 2.4-3.7 0-1.3-.5-3.7-2.4-3.7-.8 0-1.5-.7-1.5-1.5v-5c0-.8.7-1.5 1.5-1.5s1.5.7 1.5 1.5v3.7c2.5.8 3.9 3.6 3.9 6.4 0 2.8-1.3 5.7-3.9 6.4-1.1 10.7-13.4 17.5-18.8 17.5z"/><path class="st0" d="M85.4 1224.8H68.3c-4.6 0-8.4-3.8-8.4-8.4v-5c0-.8.7-1.5 1.5-1.5s1.5.7 1.5 1.5v5c0 3 2.4 5.4 5.4 5.4h17.2c3 0 5.4-2.4 5.4-5.4v-5c0-.8.7-1.5 1.5-1.5s1.5.7 1.5 1.5v5c-.1 4.6-3.8 8.4-8.5 8.4zM51.1 1235.1c-.8 0-1.5-.7-1.5-1.5v-19.4c0-.8.7-1.5 1.5-1.5s1.5.7 1.5 1.5v19.4c0 .8-.7 1.5-1.5 1.5zM102.6 1235.1c-.8 0-1.5-.7-1.5-1.5v-19.4c0-.8.7-1.5 1.5-1.5s1.5.7 1.5 1.5v19.4c0 .8-.7 1.5-1.5 1.5zM76.9 1185.3c-21.6 0-23.7-9.4-23.8-9.8-.1-.6.2-1.3.7-1.6l4.4-2.6c.4-7.3 5.3-13.1 13.3-15.6.8-.3 1.6.2 1.9 1 .3.8-.2 1.6-1 1.9-7 2.2-11.2 7.3-11.2 13.6 0 .5-.3 1-.7 1.3l-4 2.3c1.2 2 5.7 6.5 20.4 6.5s19.1-4.5 20.4-6.5l-4-2.3c-.5-.3-.7-.8-.7-1.3 0-6.3-4.2-11.4-11.2-13.6-.8-.2-1.2-1.1-1-1.9.2-.8 1.1-1.2 1.9-1 8 2.5 12.9 8.3 13.3 15.6l4.4 2.6c.6.3.8 1 .7 1.6-.1.4-2.3 9.8-23.8 9.8z"/><path class="st0" d="M80.1 1176.6H80c-.8-.1-1.4-.8-1.4-1.6l1.8-18.9h-7l1.8 18.9c.1.8-.5 1.6-1.4 1.6-.8.1-1.6-.5-1.6-1.4l-1.9-20.5c0-.4.1-.8.4-1.1.3-.3.7-.5 1.1-.5H82c.4 0 .8.2 1.1.5.3.3.4.7.4 1.1l-1.9 20.5c-.1.8-.7 1.4-1.5 1.4z"/><path class="st0" d="M76.8 1176.7c-6.6 0-13.1-1.1-17.8-3.1-.8-.3-1.1-1.2-.8-2s1.2-1.1 2-.8c4.3 1.8 10.4 2.9 16.6 2.9 6.3 0 12.3-1 16.6-2.9.8-.3 1.6 0 2 .8.3.8 0 1.6-.8 2-4.6 2-11.1 3.1-17.8 3.1zM381.2 303.9h-79c-.8 0-1.5-.7-1.5-1.5v-20.6c0-.8.7-1.5 1.5-1.5h79c.8 0 1.5.7 1.5 1.5v20.6c0 .8-.7 1.5-1.5 1.5zm-77.5-3h76v-17.6h-76v17.6z"/><path class="st0" d="M302.2 283.3c-.4 0-.9-.2-1.2-.5-.5-.6-.4-1.6.2-2.1l20.6-17.2c.3-.2.6-.3 1-.3h37.8c.4 0 .7.1 1 .3l20.6 17.2c.6.5.7 1.5.2 2.1-.5.6-1.5.7-2.1.2L360 266.1h-36.7l-20.2 16.8c-.2.3-.6.4-.9.4zM348.5 295.3c-1.8 0-3.2-1.4-3.2-3.2s1.4-3.2 3.2-3.2 3.2 1.4 3.2 3.2-1.4 3.2-3.2 3.2zm0-3.4c-.1 0-.2.1-.2.2 0 .2.4.2.4 0 .1-.1 0-.2-.2-.2zM358.8 295.3c-1.8 0-3.2-1.4-3.2-3.2s1.4-3.2 3.2-3.2 3.2 1.4 3.2 3.2-1.4 3.2-3.2 3.2zm0-3.4c-.1 0-.2.1-.2.2 0 .2.4.2.4 0 .1-.1 0-.2-.2-.2zM369.1 295.3c-1.8 0-3.2-1.4-3.2-3.2s1.4-3.2 3.2-3.2 3.2 1.4 3.2 3.2-1.4 3.2-3.2 3.2zm0-3.4c-.1 0-.2.1-.2.2 0 .2.4.2.4 0 .1-.1 0-.2-.2-.2zM312.5 297c-2.7 0-4.9-2.2-4.9-4.9s2.2-4.9 4.9-4.9 4.9 2.2 4.9 4.9-2.2 4.9-4.9 4.9zm0-6.9c-1.1 0-1.9.9-1.9 1.9 0 1.1.9 1.9 1.9 1.9 1.1 0 1.9-.9 1.9-1.9 0-1-.9-1.9-1.9-1.9zM381.2 324.5h-79c-.8 0-1.5-.7-1.5-1.5v-20.6c0-.8.7-1.5 1.5-1.5s1.5.7 1.5 1.5v19.1h76v-19.1c0-.8.7-1.5 1.5-1.5s1.5.7 1.5 1.5V323c0 .8-.7 1.5-1.5 1.5z"/><path class="st0" d="M348.5 315.9c-1.8 0-3.2-1.4-3.2-3.2s1.4-3.2 3.2-3.2 3.2 1.4 3.2 3.2-1.4 3.2-3.2 3.2zm0-3.4c-.1 0-.2.1-.2.2 0 .2.4.2.4 0 .1-.1 0-.2-.2-.2zM358.8 315.9c-1.8 0-3.2-1.4-3.2-3.2s1.4-3.2 3.2-3.2 3.2 1.4 3.2 3.2-1.4 3.2-3.2 3.2zm0-3.4c-.1 0-.2.1-.2.2 0 .2.4.2.4 0 .1-.1 0-.2-.2-.2zM369.1 315.9c-1.8 0-3.2-1.4-3.2-3.2s1.4-3.2 3.2-3.2 3.2 1.4 3.2 3.2-1.4 3.2-3.2 3.2zm0-3.4c-.1 0-.2.1-.2.2 0 .2.4.2.4 0 .1-.1 0-.2-.2-.2zM312.5 317.6c-2.7 0-4.9-2.2-4.9-4.9s2.2-4.9 4.9-4.9 4.9 2.2 4.9 4.9-2.2 4.9-4.9 4.9zm0-6.8c-1.1 0-1.9.9-1.9 1.9 0 1.1.9 1.9 1.9 1.9 1.1 0 1.9-.9 1.9-1.9 0-1.1-.9-1.9-1.9-1.9zM374.3 345.1H309c-4.6 0-8.4-3.8-8.4-8.4V323c0-.8.7-1.5 1.5-1.5s1.5.7 1.5 1.5v13.7c0 3 2.4 5.4 5.4 5.4h65.3c3 0 5.4-2.4 5.4-5.4V323c0-.8.7-1.5 1.5-1.5s1.5.7 1.5 1.5v13.7c0 4.6-3.8 8.4-8.4 8.4z"/><path class="st0" d="M348.5 336.5c-1.8 0-3.2-1.4-3.2-3.2s1.4-3.2 3.2-3.2 3.2 1.4 3.2 3.2-1.4 3.2-3.2 3.2zm0-3.4c-.1 0-.2.1-.2.2 0 .2.4.2.4 0 .1-.1 0-.2-.2-.2zM358.8 336.5c-1.8 0-3.2-1.4-3.2-3.2s1.4-3.2 3.2-3.2 3.2 1.4 3.2 3.2-1.4 3.2-3.2 3.2zm0-3.4c-.1 0-.2.1-.2.2 0 .2.4.2.4 0 .1-.1 0-.2-.2-.2zM369.1 336.5c-1.8 0-3.2-1.4-3.2-3.2s1.4-3.2 3.2-3.2 3.2 1.4 3.2 3.2-1.4 3.2-3.2 3.2zm0-3.4c-.1 0-.2.1-.2.2 0 .2.4.2.4 0 .1-.1 0-.2-.2-.2zM312.5 338.2c-2.7 0-4.9-2.2-4.9-4.9s2.2-4.9 4.9-4.9 4.9 2.2 4.9 4.9-2.2 4.9-4.9 4.9zm0-6.8c-1.1 0-1.9.9-1.9 1.9s.9 1.9 1.9 1.9c1.1 0 1.9-.9 1.9-1.9s-.9-1.9-1.9-1.9zM971.5 1244.1h-65.3c-4.6 0-8.4-3.8-8.4-8.4v-34.3c0-4.6 3.8-8.4 8.4-8.4h65.3c4.6 0 8.4 3.8 8.4 8.4v34.3c0 4.6-3.8 8.4-8.4 8.4zm-65.3-48.1c-3 0-5.4 2.4-5.4 5.4v34.3c0 3 2.4 5.4 5.4 5.4h65.3c3 0 5.4-2.4 5.4-5.4v-34.3c0-3-2.4-5.4-5.4-5.4h-65.3z"/><path class="st0" d="M966.3 1223.5h-55c-3.7 0-6.6-3-6.6-6.7v-10.3c0-3.7 3-6.7 6.6-6.7h55c3.7 0 6.7 3 6.7 6.7v10.3c0 3.7-3 6.7-6.7 6.7zm-54.9-20.6c-2 0-3.6 1.6-3.6 3.7v10.3c0 2 1.6 3.7 3.6 3.7h55c2 0 3.7-1.6 3.7-3.7v-10.3c0-2-1.6-3.7-3.7-3.7h-55zM913.1 1237.2c-2.7 0-4.9-2.2-4.9-4.9s2.2-4.9 4.9-4.9 4.9 2.2 4.9 4.9-2.2 4.9-4.9 4.9zm0-6.8c-1.1 0-1.9.9-1.9 1.9s.9 1.9 1.9 1.9 1.9-.9 1.9-1.9-.8-1.9-1.9-1.9zM964.6 1237.2c-2.7 0-4.9-2.2-4.9-4.9s2.2-4.9 4.9-4.9 4.9 2.2 4.9 4.9-2.2 4.9-4.9 4.9zm0-6.8c-1.1 0-1.9.9-1.9 1.9s.9 1.9 1.9 1.9 1.9-.9 1.9-1.9-.8-1.9-1.9-1.9zM950.9 1237.2h-24c-1.3 0-2.6-.5-3.5-1.5-.9-.9-1.4-2.2-1.4-3.5 0-2.7 2.2-4.9 4.9-4.9h24c1.3 0 2.6.5 3.5 1.4s1.5 2.2 1.5 3.5c0 1.3-.5 2.6-1.4 3.5-1.1 1-2.3 1.5-3.6 1.5zm-24-6.8c-1.1 0-1.9.9-1.9 1.9 0 .5.2 1 .6 1.4.4.4.8.6 1.4.6h24c.5 0 1-.2 1.4-.6s.6-.8.6-1.4c0-.5-.2-1-.6-1.4-.4-.4-.8-.6-1.4-.6h-24.1z"/><path class="st0" d="M971.5 1209.8h-65.2c-.8 0-1.5-.7-1.5-1.5s.7-1.5 1.5-1.5h65.2c.8 0 1.5.7 1.5 1.5s-.7 1.5-1.5 1.5zM971.5 1216.6h-65.2c-.8 0-1.5-.7-1.5-1.5s.7-1.5 1.5-1.5h65.2c.8 0 1.5.7 1.5 1.5s-.7 1.5-1.5 1.5zM944 1237.2c-.8 0-1.5-.7-1.5-1.5v-6.9c0-.8.7-1.5 1.5-1.5s1.5.7 1.5 1.5v6.9c0 .8-.7 1.5-1.5 1.5zM906.2 1196c-.5 0-1.1-.3-1.3-.8-.4-.7-.1-1.6.7-2l54.9-27.5c.7-.4 1.6-.1 2 .7.4.7.1 1.6-.7 2l-54.9 27.5c-.2.1-.4.1-.7.1zM916.5 1247.5c-.8 0-1.5-.7-1.5-1.5v-3.4c0-.8.7-1.5 1.5-1.5s1.5.7 1.5 1.5v3.4c0 .9-.6 1.5-1.5 1.5zM961.2 1247.5c-.8 0-1.5-.7-1.5-1.5v-3.4c0-.8.7-1.5 1.5-1.5s1.5.7 1.5 1.5v3.4c0 .9-.7 1.5-1.5 1.5zM953.8 619.2c-.4 0-.8-.2-1.1-.4l-23.6-23.6h-11.4c-3.7 0-6.7-3-6.7-6.7v-10.3c0-1.8.7-3.5 2-4.7 1.3-1.3 2.9-1.9 4.7-1.9h11.4l23.6-23.7c.4-.4 1.1-.6 1.6-.3.6.2.9.8.9 1.4v68.7c0 .6-.4 1.2-.9 1.4-.1.1-.3.1-.5.1zm-36-44.6c-1 0-1.9.4-2.6 1.1-.7.7-1.1 1.6-1.1 2.6v10.3c0 2 1.6 3.7 3.6 3.7h12c.4 0 .8.2 1.1.4l21.4 21.4v-61.4l-21.4 21.5c-.3.3-.7.4-1.1.4h-11.9zM979.6 612.5c-.4 0-.8-.2-1.1-.5-.5-.6-.5-1.6.1-2.1 7.3-6.4 11.5-16.1 11.5-26.4 0-10.3-4.2-19.9-11.5-26.3-.6-.5-.7-1.5-.1-2.1.5-.6 1.5-.7 2.1-.1 7.9 6.9 12.5 17.4 12.5 28.6 0 11.2-4.5 21.7-12.5 28.7-.3.1-.7.2-1 .2z"/><path class="st0" d="M971 605.5c-.4 0-.9-.2-1.2-.5-.5-.6-.4-1.6.2-2.1 6.2-5.2 9.7-12.1 9.7-19.5s-3.4-14.3-9.7-19.4c-.6-.5-.7-1.5-.2-2.1.5-.6 1.5-.7 2.1-.2 6.9 5.7 10.8 13.5 10.8 21.8s-3.8 16-10.8 21.8c-.2.1-.6.2-.9.2z"/><path class="st0" d="M964.1 596.9c-.5 0-.9-.2-1.2-.6-.5-.7-.3-1.6.3-2.1 4-2.9 6.3-6.7 6.3-10.7 0-4-2.2-7.9-6.3-10.8-.7-.5-.8-1.4-.3-2.1.5-.7 1.4-.8 2.1-.3 4.8 3.5 7.5 8.2 7.5 13.3 0 5-2.7 9.7-7.5 13.2-.3 0-.6.1-.9.1zM669.8 1077.4h-58.4c-4.6 0-8.4-3.8-8.4-8.4v-30.9c0-4.6 3.8-8.4 8.4-8.4h58.4c4.6 0 8.4 3.8 8.4 8.4v30.9c-.1 4.6-3.8 8.4-8.4 8.4zm-58.4-44.7c-3 0-5.4 2.4-5.4 5.4v30.9c0 3 2.4 5.4 5.4 5.4h58.4c3 0 5.4-2.4 5.4-5.4v-30.9c0-3-2.4-5.4-5.4-5.4h-58.4z"/><path class="st0" d="M632 1032.7h-24c-.8 0-1.5-.7-1.5-1.5v-30.9c0-.8.7-1.5 1.5-1.5h24c.8 0 1.5.7 1.5 1.5v30.9c0 .9-.7 1.5-1.5 1.5zm-22.6-3h21v-27.9h-21v27.9z"/><path class="st0" d="M620 1027.6c-4.6 0-8.4-3.8-8.4-8.4s3.8-8.4 8.4-8.4 8.4 3.8 8.4 8.4-3.8 8.4-8.4 8.4zm0-13.8c-3 0-5.4 2.4-5.4 5.4s2.4 5.4 5.4 5.4 5.4-2.4 5.4-5.4-2.5-5.4-5.4-5.4zM673.2 1032.7h-24c-.8 0-1.5-.7-1.5-1.5v-30.9c0-.8.7-1.5 1.5-1.5h24c.8 0 1.5.7 1.5 1.5v30.9c0 .9-.7 1.5-1.5 1.5zm-22.5-3h21v-27.9h-21v27.9z"/><path class="st0" d="M661.2 1027.6c-4.6 0-8.4-3.8-8.4-8.4s3.8-8.4 8.4-8.4 8.4 3.8 8.4 8.4-3.8 8.4-8.4 8.4zm0-13.8c-3 0-5.4 2.4-5.4 5.4s2.4 5.4 5.4 5.4 5.4-2.4 5.4-5.4-2.5-5.4-5.4-5.4zM616.5 1005.7h6.9v3h-6.9zM657.7 1005.7h6.9v3h-6.9zM669.8 1056.8h-58.4c-.8 0-1.5-.7-1.5-1.5v-17.2c0-.8.7-1.5 1.5-1.5h58.4c.8 0 1.5.7 1.5 1.5v17.2c0 .8-.7 1.5-1.5 1.5zm-56.9-3h55.4v-14.2h-55.4v14.2zM620 1070.5c-2.7 0-4.9-2.2-4.9-4.9s2.2-4.9 4.9-4.9 4.9 2.2 4.9 4.9-2.2 4.9-4.9 4.9zm0-6.8c-1.1 0-1.9.9-1.9 1.9s.9 1.9 1.9 1.9c1.1 0 1.9-.9 1.9-1.9s-.9-1.9-1.9-1.9zM637.1 1070.5c-2.7 0-4.9-2.2-4.9-4.9s2.2-4.9 4.9-4.9 4.9 2.2 4.9 4.9-2.2 4.9-4.9 4.9zm0-6.8c-1.1 0-1.9.9-1.9 1.9s.9 1.9 1.9 1.9 1.9-.9 1.9-1.9-.8-1.9-1.9-1.9zM669.7 1063.7H656c-.8 0-1.5-.7-1.5-1.5s.7-1.5 1.5-1.5h13.6c.8 0 1.5.7 1.5 1.5s-.6 1.5-1.4 1.5zM669.7 1070.5H656c-.8 0-1.5-.7-1.5-1.5s.7-1.5 1.5-1.5h13.6c.8 0 1.5.7 1.5 1.5s-.6 1.5-1.4 1.5z"/><path class="st0" d="M616.7 1046.7h3v8.6h-3zM623.6 1043.3h3v12h-3zM630.5 1046.7h3v8.6h-3zM637.3 1046.7h3v8.6h-3zM644.2 1043.3h3v12h-3zM651.1 1046.7h3v8.6h-3zM911.6 137.2h-65.3c-4.6 0-8.4-3.8-8.4-8.4v-17.2c0-4.6 3.8-8.4 8.4-8.4h65.3c4.6 0 8.4 3.8 8.4 8.4v17.2c0 4.7-3.8 8.4-8.4 8.4zm-65.2-30.9c-3 0-5.4 2.4-5.4 5.4v17.2c0 3 2.4 5.4 5.4 5.4h65.3c3 0 5.4-2.4 5.4-5.4v-17.2c0-3-2.4-5.4-5.4-5.4h-65.3zM882.4 96h-10.3c-6 0-10.1-4.7-10.1-11.8V67.1c0-7.1 4.1-11.8 10.1-11.8h10.3c6 0 10.1 4.7 10.1 11.8v17.2c0 7-4.1 11.7-10.1 11.7zm-10.3-37.8c-5.2 0-7.1 4.6-7.1 8.8v17.2c0 4.3 1.9 8.8 7.1 8.8h10.3c5.2 0 7.1-4.5 7.1-8.8V67.1c0-4.3-1.9-8.8-7.1-8.8h-10.3z"/><path class="st0" d="M877.3 106.3c-.8 0-1.5-.7-1.5-1.5V86c0-.8.7-1.5 1.5-1.5s1.5.7 1.5 1.5v18.9c0 .8-.7 1.4-1.5 1.4zM873.8 72h-10.3c-.8 0-1.5-.7-1.5-1.5s.7-1.5 1.5-1.5h10.3c.8 0 1.5.7 1.5 1.5s-.6 1.5-1.5 1.5zM873.8 78.9h-10.3c-.8 0-1.5-.7-1.5-1.5s.7-1.5 1.5-1.5h10.3c.8 0 1.5.7 1.5 1.5s-.6 1.5-1.5 1.5zM891 72h-6.9c-.8 0-1.5-.7-1.5-1.5s.7-1.5 1.5-1.5h6.9c.8 0 1.5.7 1.5 1.5s-.7 1.5-1.5 1.5zM891 78.9h-6.9c-.8 0-1.5-.7-1.5-1.5s.7-1.5 1.5-1.5h6.9c.8 0 1.5.7 1.5 1.5s-.7 1.5-1.5 1.5zM870.4 126.9c-.5 0-1-.2-1.2-.7l-4.1-6.2v5.3c0 .8-.7 1.5-1.5 1.5s-1.5-.7-1.5-1.5V115c0-.7.4-1.2 1.1-1.4s1.3.1 1.7.6l4.1 6.2v-5.3c0-.8.7-1.5 1.5-1.5s1.5.7 1.5 1.5v10.3c0 .7-.4 1.2-1.1 1.4-.2.1-.3.1-.5.1zM853.2 126.9c-2.8 0-4.9-2.9-4.9-6.6s2.2-6.6 4.9-6.6 4.9 2.9 4.9 6.6-2.1 6.6-4.9 6.6zm0-10.3c-.9 0-1.9 1.6-1.9 3.6s1 3.6 1.9 3.6 1.9-1.6 1.9-3.6-.9-3.6-1.9-3.6zM894.5 126.9c-.8 0-1.5-.7-1.5-1.5v-10.3c0-.8.7-1.5 1.5-1.5s1.5.7 1.5 1.5v10.3c0 .9-.7 1.5-1.5 1.5zM888.2 126.9c-.6 0-1.2-.4-1.4-1l-2.4-6.4-2.4 6.4c-.3.8-1.1 1.2-1.9.9-.8-.3-1.2-1.1-.9-1.9l3.8-10.3c.2-.6.8-1 1.4-1s1.2.4 1.4 1l3.8 10.3c.3.8-.1 1.6-.9 1.9-.1.1-.3.1-.5.1z"/><path class="st0" d="M887.6 125.2h-6.3c-.8 0-1.5-.7-1.5-1.5s.7-1.5 1.5-1.5h6.3c.8 0 1.5.7 1.5 1.5s-.7 1.5-1.5 1.5zM901.3 126.9c-.8 0-1.5-.7-1.5-1.5v-10.3c0-.8.7-1.5 1.5-1.5h2.7c2.6 0 4.7 0 4.7 3.3 0 4-2.5 4.8-4.7 4.8h-1.2v3.6c0 1-.7 1.6-1.5 1.6zm1.5-8.1h1.2c1.4 0 1.7-.3 1.7-1.8v-.3h-2.9v2.1z"/><path class="st0" d="M907.2 126.9c-.5 0-1-.3-1.3-.7l-3.2-5.1c-.4-.7-.2-1.6.5-2.1.7-.4 1.6-.2 2.1.5l3.2 5.1c.4.7.2 1.6-.5 2.1-.2.2-.5.2-.8.2zM978.5 465.6c-22.6 0-41-18.4-41-41s18.4-41 41-41 41 18.4 41 41-18.4 41-41 41zm0-79c-21 0-38 17-38 38s17 38 38 38 38-17 38-38-17-38-38-38z"/><path class="st0" d="M966.5 441.6c-.3 0-.5-.1-.8-.2-.4-.3-.7-.8-.7-1.3v-30.9c0-.5.3-1 .7-1.3.4-.3 1-.3 1.5-.1l30.9 15.5c.5.3.8.8.8 1.3 0 .6-.3 1.1-.8 1.3l-30.9 15.4c-.2.2-.5.3-.7.3zm1.5-30v26.1l26.1-13-26.1-13.1zM858.3 287.2h-17.2c-.8 0-1.5-.7-1.5-1.5s.7-1.5 1.5-1.5h17.2c.8 0 1.5.7 1.5 1.5s-.7 1.5-1.5 1.5zM858.3 280.3h-17.2c-.8 0-1.5-.7-1.5-1.5s.7-1.5 1.5-1.5h17.2c.8 0 1.5.7 1.5 1.5s-.7 1.5-1.5 1.5zM858.3 273.5h-17.2c-.8 0-1.5-.7-1.5-1.5s.7-1.5 1.5-1.5h17.2c.8 0 1.5.7 1.5 1.5s-.7 1.5-1.5 1.5zM858.3 266.6h-17.2c-.8 0-1.5-.7-1.5-1.5s.7-1.5 1.5-1.5h17.2c.8 0 1.5.7 1.5 1.5s-.7 1.5-1.5 1.5zM858.3 259.7h-17.2c-.8 0-1.5-.7-1.5-1.5s.7-1.5 1.5-1.5h17.2c.8 0 1.5.7 1.5 1.5s-.7 1.5-1.5 1.5zM882.3 287.2h-17.2c-.8 0-1.5-.7-1.5-1.5s.7-1.5 1.5-1.5h17.2c.8 0 1.5.7 1.5 1.5s-.7 1.5-1.5 1.5zM882.3 280.3h-17.2c-.8 0-1.5-.7-1.5-1.5s.7-1.5 1.5-1.5h17.2c.8 0 1.5.7 1.5 1.5s-.7 1.5-1.5 1.5zM882.3 273.5h-17.2c-.8 0-1.5-.7-1.5-1.5s.7-1.5 1.5-1.5h17.2c.8 0 1.5.7 1.5 1.5s-.7 1.5-1.5 1.5zM882.3 266.6h-17.2c-.8 0-1.5-.7-1.5-1.5s.7-1.5 1.5-1.5h17.2c.8 0 1.5.7 1.5 1.5s-.7 1.5-1.5 1.5zM882.3 259.7h-17.2c-.8 0-1.5-.7-1.5-1.5s.7-1.5 1.5-1.5h17.2c.8 0 1.5.7 1.5 1.5s-.7 1.5-1.5 1.5zM882.3 252.8h-17.2c-.8 0-1.5-.7-1.5-1.5s.7-1.5 1.5-1.5h17.2c.8 0 1.5.7 1.5 1.5s-.7 1.5-1.5 1.5zM882.3 246h-17.2c-.8 0-1.5-.7-1.5-1.5s.7-1.5 1.5-1.5h17.2c.8 0 1.5.7 1.5 1.5s-.7 1.5-1.5 1.5zM882.3 239.1h-17.2c-.8 0-1.5-.7-1.5-1.5s.7-1.5 1.5-1.5h17.2c.8 0 1.5.7 1.5 1.5s-.7 1.5-1.5 1.5zM882.3 232.2h-17.2c-.8 0-1.5-.7-1.5-1.5s.7-1.5 1.5-1.5h17.2c.8 0 1.5.7 1.5 1.5s-.7 1.5-1.5 1.5zM882.3 225.4h-17.2c-.8 0-1.5-.7-1.5-1.5s.7-1.5 1.5-1.5h17.2c.8 0 1.5.7 1.5 1.5s-.7 1.5-1.5 1.5zM906.3 287.2h-17.2c-.8 0-1.5-.7-1.5-1.5s.7-1.5 1.5-1.5h17.2c.8 0 1.5.7 1.5 1.5s-.6 1.5-1.5 1.5zM906.3 280.3h-17.2c-.8 0-1.5-.7-1.5-1.5s.7-1.5 1.5-1.5h17.2c.8 0 1.5.7 1.5 1.5s-.6 1.5-1.5 1.5zM906.3 273.5h-17.2c-.8 0-1.5-.7-1.5-1.5s.7-1.5 1.5-1.5h17.2c.8 0 1.5.7 1.5 1.5s-.6 1.5-1.5 1.5zM285.8 677.9c-.8 0-1.5-.7-1.5-1.5v-61.8c0-.8.7-1.5 1.5-1.5s1.5.7 1.5 1.5v61.8c0 .8-.6 1.5-1.5 1.5zM296.1 681.3c-.8 0-1.5-.7-1.5-1.5v-75.6c0-.8.7-1.5 1.5-1.5s1.5.7 1.5 1.5v75.6c0 .9-.6 1.5-1.5 1.5zM306.5 674.5c-.8 0-1.5-.7-1.5-1.5v-61.8c0-.8.7-1.5 1.5-1.5s1.5.7 1.5 1.5V673c0 .8-.7 1.5-1.5 1.5zM316.8 664.2c-.8 0-1.5-.7-1.5-1.5v-34.4c0-.8.7-1.5 1.5-1.5s1.5.7 1.5 1.5v34.4c-.1.8-.7 1.5-1.5 1.5zM275.5 664.2c-.8 0-1.5-.7-1.5-1.5v-34.4c0-.8.7-1.5 1.5-1.5s1.5.7 1.5 1.5v34.4c0 .8-.6 1.5-1.5 1.5zM327 660.7c-.8 0-1.5-.7-1.5-1.5v-27.5c0-.8.7-1.5 1.5-1.5s1.5.7 1.5 1.5v27.5c0 .9-.6 1.5-1.5 1.5zM265.2 660.7c-.8 0-1.5-.7-1.5-1.5v-27.5c0-.8.7-1.5 1.5-1.5s1.5.7 1.5 1.5v27.5c0 .9-.6 1.5-1.5 1.5zM258.4 650.4c-.8 0-1.5-.7-1.5-1.5V642c0-.8.7-1.5 1.5-1.5s1.5.7 1.5 1.5v6.9c0 .9-.7 1.5-1.5 1.5zM333.9 650.4c-.8 0-1.5-.7-1.5-1.5V642c0-.8.7-1.5 1.5-1.5s1.5.7 1.5 1.5v6.9c0 .9-.7 1.5-1.5 1.5zM582.4 298.7c-.4 0-.8-.1-1.1-.4l-9.7-9.7c-.3-.3-.4-.7-.4-1.1 0-.4.2-.8.4-1.1l14.6-14.6c.6-.6 1.5-.6 2.1 0l9.7 9.7c.3.3.4.7.4 1.1 0 .4-.2.8-.4 1.1l-14.6 14.6c-.3.2-.6.4-1 .4zm-7.6-11.3l7.6 7.6 12.5-12.5-7.6-7.6-12.5 12.5zM536.2 344.7c-.4 0-.8-.1-1.1-.4l-9.7-9.7c-.6-.6-.6-1.5 0-2.1l14.6-14.6c.6-.6 1.5-.6 2.1 0l9.7 9.7c.6.6.6 1.5 0 2.1l-14.6 14.6c-.2.3-.6.4-1 .4zm-7.6-11.2l7.6 7.6 12.5-12.5-7.6-7.6-12.5 12.5zM553.2 322.9c-.4 0-.8-.2-1.1-.4-6.6-6.6-6.6-17.4 0-24 6.6-6.6 17.4-6.6 24 0 .3.3.4.7.4 1.1s-.2.8-.4 1.1l-21.9 21.9c-.2.1-.6.3-1 .3zm1.1-22.3c-5.1 5.1-5.4 13.1-1 18.6l19.6-19.6c-5.5-4.4-13.5-4.1-18.6 1z"/><path class="st0" d="M564.4 319c-2.2 0-4.4-.9-6.1-2.6-.6-.6-.6-1.5 0-2.1.6-.6 1.5-.6 2.1 0 2.1 2.2 5.5 2.3 7.8.2 2.1-2.3 2-5.7-.2-7.9-.6-.6-.6-1.5 0-2.1.6-.6 1.5-.6 2.1 0 3.3 3.3 3.4 8.6.2 12.1 0 0 0 .1-.1.1-1.6 1.5-3.7 2.3-5.8 2.3zm4.8-3.4zM564.3 329.4c-.9 0-1.8-.1-2.6-.2s-1.4-.9-1.3-1.7c.1-.8.9-1.4 1.7-1.3 1.5.2 3 .2 4.5 0 8.6-1.3 14.5-9.3 13.2-17.8-.1-.8.4-1.6 1.3-1.7.8-.1 1.6.4 1.7 1.3 1.5 10.2-5.5 19.7-15.7 21.2-.9.1-1.8.2-2.8.2z"/><path class="st0" d="M564.4 339.7c-1.1 0-2.2-.1-3.2-.2-.8-.1-1.4-.8-1.3-1.7.1-.8.8-1.4 1.7-1.3 1.9.2 3.9.2 5.8 0 14.2-1.6 24.5-14.5 22.9-28.7-.1-.8.5-1.6 1.3-1.7.8-.1 1.6.5 1.7 1.3 1.8 15.9-9.7 30.2-25.6 32-1.2.2-2.3.3-3.3.3z"/><path class="st0" d="M564.3 350c-2.2 0-4.3-.2-6.5-.5-.8-.1-1.4-.9-1.2-1.7.1-.8.9-1.4 1.7-1.2 4.1.7 8.2.7 12.3-.1 19.7-3.5 32.9-22.3 29.4-42.1-.1-.8.4-1.6 1.2-1.7.8-.1 1.6.4 1.7 1.2 3.8 21.3-10.5 41.8-31.9 45.5-2.1.4-4.4.6-6.7.6zM1186.8 690.1c-.8 0-1.5-.7-1.5-1.5v-79c0-.8.7-1.5 1.5-1.5s1.5.7 1.5 1.5v79c0 .8-.6 1.5-1.5 1.5zM1114.7 683.2c-.8 0-1.5-.7-1.5-1.5v-65.3c0-.8.7-1.5 1.5-1.5s1.5.7 1.5 1.5v65.3c0 .8-.7 1.5-1.5 1.5zM1125 671.2c-.8 0-1.5-.7-1.5-1.5v-41.2c0-.8.7-1.5 1.5-1.5s1.5.7 1.5 1.5v41.2c0 .8-.7 1.5-1.5 1.5zM1135.3 679.8c-.8 0-1.5-.7-1.5-1.5v-58.4c0-.8.7-1.5 1.5-1.5s1.5.7 1.5 1.5v58.4c0 .8-.7 1.5-1.5 1.5zM1145.6 690.1c-.8 0-1.5-.7-1.5-1.5v-79c0-.8.7-1.5 1.5-1.5s1.5.7 1.5 1.5v79c0 .8-.6 1.5-1.5 1.5zM1155.9 676.3c-.8 0-1.5-.7-1.5-1.5v-51.5c0-.8.7-1.5 1.5-1.5s1.5.7 1.5 1.5v51.5c0 .8-.6 1.5-1.5 1.5zM1166.2 667.7c-.8 0-1.5-.7-1.5-1.5v-34.4c0-.8.7-1.5 1.5-1.5s1.5.7 1.5 1.5v34.4c0 .9-.6 1.5-1.5 1.5zM1176.5 676.3c-.8 0-1.5-.7-1.5-1.5v-51.5c0-.8.7-1.5 1.5-1.5s1.5.7 1.5 1.5v51.5c0 .8-.6 1.5-1.5 1.5zM1133.4 429.3c-1.7 0-3.3-.6-4.6-1.8-2.7-2.5-2.8-6.7-.3-9.4l.3-.3 22.5-22.5c.6-.6 1.5-.6 2.1 0l7.3 7.3c.3.3.4.7.4 1.1s-.2.8-.4 1.1l-22.6 22.6c-1.2 1.3-2.9 2-4.6 2.1 0-.2-.1-.2-.1-.2zm19-30.8l-21.5 21.5-.2.2c-1.4 1.5-1.3 3.8.2 5.2.7.7 1.6 1 2.6 1s1.9-.4 2.5-1.1l21.5-21.5-5.1-5.3z"/><path class="st0" d="M1163.3 408.8c-.4 0-.8-.1-1.1-.4l-14.6-14.6c-.6-.6-.6-1.5 0-2.1.6-.6 1.5-.6 2.1 0l14.6 14.6c.6.6.6 1.5 0 2.1-.2.2-.6.4-1 .4z"/><path transform="rotate(-45.001 1174.386 381.7)" class="st0" d="M1148.4 380.2h51.9v3h-51.9z"/><path class="st0" d="M1196.8 368.9c-.4 0-.8-.2-1.1-.4l-8.5-8.5c-.3-.3-.5-.8-.4-1.2 0-.4.3-.8.6-1.1l12.2-8.4c.6-.4 1.4-.3 1.9.2l5.2 5.2c.5.5.6 1.4.1 2l-8.8 11.8c-.3.3-.7.6-1.1.6 0-.2-.1-.2-.1-.2zm-6.2-9.8l6 6 7-9.4-3.4-3.4-9.6 6.8zM1157.5 390.8l-12.2-12.1c-5.5 1.9-11.6.6-15.8-3.5-4.4-4.4-5.7-10.9-3.3-16.6.2-.5.6-.8 1.1-.9.5-.1 1 0 1.3.4l6.7 6.4h5.3v-5l-6.5-6.8c-.3-.4-.5-.9-.4-1.3.1-.5.4-.9.9-1.1 5.6-2.4 12.2-1.1 16.5 3.3 4.1 4.2 5.5 10.3 3.6 15.8l12.2 12.2-2.1 2.1-12.9-12.9c-.4-.4-.6-1.1-.3-1.6 2-4.6 1-9.9-2.6-13.4-2.9-2.9-7.1-4.1-11-3.3l5.3 5.5c.3.3.4.7.4 1v7.1c0 .8-.7 1.5-1.5 1.5h-7.4c-.4 0-.8-.1-1-.4l-5.4-5.1c-.9 4 .3 8.2 3.3 11.1 3.6 3.5 8.8 4.5 13.4 2.5.6-.2 1.2-.1 1.7.3l12.9 12.8-2.2 2zM1191.3 430.5c-2 0-4.1-.4-5.9-1.2-7.4-3.1-11.1-11.5-8.4-19l-12.2-12.2 2.1-2.1 12.9 12.9c.4.4.6 1.1.3 1.6-2.6 6.2.3 13.4 6.5 16 2.3 1 4.9 1.2 7.4.7l-5.3-5.5c-.3-.3-.4-.7-.4-1v-6.9c0-.8.7-1.5 1.5-1.5h6.9c.4 0 .7.1 1 .4l5.7 5.2c1.3-5.7-1.7-11.6-7.2-13.9-3-1.3-6.5-1.3-9.5 0-.6.2-1.2.1-1.6-.3l-12.9-12.9 2.1-2.1 12.2 12.2c3.5-1.2 7.4-1.1 10.9.4 7.7 3.3 11.4 12.2 8.1 20-.2.5-.6.8-1.1.9-.5.1-1 0-1.3-.4l-7-6.4h-4.8v4.8l6.6 6.8c.3.4.5.9.4 1.3s-.4.9-.9 1.1c-2.1.7-4.1 1.1-6.1 1.1z"/></svg>